SplineFontDB: 3.0
FontName: Auvaiyar-Bold
FullName: Auvaiyar Bold
FamilyName: Auvaiyar
Weight: Bold
Copyright: Copyright (c) 1995-2015, NLCI (http://www.nlci.in/fonts/) Derived from TAM Auvaiyar Bold by ttfbuilder v0.33
Version: 1.0 Wed Feb 01 17:17:32 1995
ItalicAngle: 0
UnderlinePosition: -310
UnderlineWidth: 20
Ascent: 800
Descent: 200
InvalidEm: 0
sfntRevision: 0x00010000
LayerCount: 2
Layer: 0 1 "Back" 1
Layer: 1 1 "Fore" 0
XUID: [1021 372 501010778 5901160]
StyleMap: 0x0020
FSType: 0
OS2Version: 1
OS2_WeightWidthSlopeOnly: 0
OS2_UseTypoMetrics: 0
CreationTime: 1534550734
ModificationTime: 1534550771
PfmFamily: 17
TTFWeight: 700
TTFWidth: 5
LineGap: 0
VLineGap: 0
Panose: 2 0 0 3 0 0 0 0 0 0
OS2TypoAscent: 750
OS2TypoAOffset: 0
OS2TypoDescent: -329
OS2TypoDOffset: 0
OS2TypoLinegap: 0
OS2WinAscent: 750
OS2WinAOffset: 0
OS2WinDescent: 329
OS2WinDOffset: 0
HheadAscent: 750
HheadAOffset: 0
HheadDescent: -329
HheadDOffset: 0
OS2SubXSize: 700
OS2SubYSize: 650
OS2SubXOff: 0
OS2SubYOff: 143
OS2SupXSize: 700
OS2SupYSize: 650
OS2SupXOff: 0
OS2SupYOff: 453
OS2StrikeYSize: 50
OS2StrikeYPos: 259
OS2Vendor: 'Phsc'
OS2CodePages: 20000001.00000000
OS2UnicodeRanges: a01080ff.520021cb.08000028.00000000
Lookup: 260 0 0 "_holdAnchorsbase" { "_someAnchorsbase"  } []
DEI: 91125
ShortTable: maxp 16
  1
  0
  339
  223
  12
  347
  16
  1
  0
  0
  0
  0
  122
  0
  3
  2
EndShort

StartChar: .notdef
Encoding: 0 -1 0
Width: 500
Flags: W
LayerCount: 2
Fore
SplineSet
31 0 m 1,0,-1
 31 750 l 1,1,-1
 469 750 l 1,2,-1
 469 0 l 1,3,-1
 31 0 l 1,0,-1
438 31 m 1,4,-1
 438 719 l 1,5,-1
 62 719 l 1,6,-1
 62 31 l 1,7,-1
 438 31 l 1,4,-1
EndSplineSet
EndChar

StartChar: exclam
Encoding: 4 33 4
Width: 339
VWidth: 488
Flags: W
LayerCount: 2
Fore
SplineSet
198.2421875 208.0078125 m 0,0,-1
 144.04296875 208.0078125 l 0,1,-1
 88.8671875 605.95703125 l 0,2,3
 88.8671875 626.953125 88.8671875 626.953125 95.458984375 642.333984375 c 0,4,5
 102.05078125 657.71484375 102.05078125 657.71484375 113.037109375 667.48046875 c 0,6,7
 124.0234375 677.24609375 124.0234375 677.24609375 138.916015625 682.12890625 c 0,8,9
 153.80859375 687.01171875 153.80859375 687.01171875 170.8984375 687.01171875 c 0,10,11
 187.5 687.01171875 187.5 687.01171875 202.392578125 682.373046875 c 0,12,13
 217.28515625 677.734375 217.28515625 677.734375 228.271484375 667.96875 c 0,14,15
 239.2578125 658.203125 239.2578125 658.203125 245.60546875 642.822265625 c 0,16,17
 251.953125 627.44140625 251.953125 627.44140625 251.953125 605.95703125 c 0,18,-1
 198.2421875 208.0078125 l 0,0,-1
250.9765625 69.82421875 m 0,19,20
 250.9765625 52.734375 250.9765625 52.734375 244.384765625 37.59765625 c 0,21,22
 237.79296875 22.4609375 237.79296875 22.4609375 226.806640625 11.474609375 c 0,23,24
 215.8203125 0.48828125 215.8203125 0.48828125 201.416015625 -5.859375 c 0,25,26
 187.01171875 -12.20703125 187.01171875 -12.20703125 170.8984375 -12.20703125 c 0,27,28
 158.69140625 -12.20703125 158.69140625 -12.20703125 144.53125 -7.568359375 c 0,29,30
 130.37109375 -2.9296875 130.37109375 -2.9296875 118.1640625 6.8359375 c 0,31,32
 105.95703125 16.6015625 105.95703125 16.6015625 97.900390625 32.2265625 c 0,33,34
 89.84375 47.8515625 89.84375 47.8515625 89.84375 69.82421875 c 0,35,36
 89.84375 89.35546875 89.84375 89.35546875 97.16796875 104.248046875 c 0,37,38
 104.4921875 119.140625 104.4921875 119.140625 116.2109375 128.90625 c 0,39,40
 127.9296875 138.671875 127.9296875 138.671875 142.333984375 143.798828125 c 0,41,42
 156.73828125 148.92578125 156.73828125 148.92578125 170.8984375 148.92578125 c 0,43,44
 184.5703125 148.92578125 184.5703125 148.92578125 198.974609375 143.5546875 c 0,45,46
 213.37890625 138.18359375 213.37890625 138.18359375 224.853515625 127.9296875 c 0,47,48
 236.328125 117.67578125 236.328125 117.67578125 243.65234375 103.02734375 c 0,49,50
 250.9765625 88.37890625 250.9765625 88.37890625 250.9765625 69.82421875 c 0,19,20
EndSplineSet
EndChar

StartChar: quotedbl
Encoding: 5 34 5
Width: 392
VWidth: 488
Flags: W
LayerCount: 2
Fore
SplineSet
274.90234375 416.9921875 m 0,0,-1
 235.83984375 650.87890625 l 0,1,2
 235.83984375 678.7109375 235.83984375 678.7109375 249.267578125 696.2890625 c 0,3,4
 262.6953125 713.8671875 262.6953125 713.8671875 292.96875 713.8671875 c 0,5,6
 323.73046875 713.8671875 323.73046875 713.8671875 337.890625 696.2890625 c 0,7,8
 352.05078125 678.7109375 352.05078125 678.7109375 352.05078125 650.87890625 c 0,9,-1
 312.01171875 416.9921875 l 0,10,-1
 274.90234375 416.9921875 l 0,0,-1
79.1015625 416.9921875 m 0,11,-1
 40.0390625 650.87890625 l 0,12,13
 40.0390625 678.7109375 40.0390625 678.7109375 53.466796875 696.2890625 c 0,14,15
 66.89453125 713.8671875 66.89453125 713.8671875 97.16796875 713.8671875 c 0,16,17
 127.44140625 713.8671875 127.44140625 713.8671875 141.11328125 696.2890625 c 0,18,19
 154.78515625 678.7109375 154.78515625 678.7109375 154.78515625 650.87890625 c 0,20,-1
 116.2109375 416.9921875 l 0,21,-1
 79.1015625 416.9921875 l 0,11,-1
EndSplineSet
EndChar

StartChar: numbersign
Encoding: 6 35 6
Width: 741
VWidth: 488
Flags: W
LayerCount: 2
Fore
SplineSet
526.85546875 414.0625 m 0,0,-1
 483.88671875 282.2265625 l 0,1,-1
 639.16015625 282.2265625 l 0,2,-1
 639.16015625 219.23828125 l 0,3,-1
 461.9140625 219.23828125 l 0,4,-1
 386.23046875 -23.92578125 l 0,5,-1
 316.89453125 -6.8359375 l 0,6,-1
 391.11328125 219.23828125 l 0,7,-1
 266.11328125 219.23828125 l 0,8,-1
 187.98828125 -23.92578125 l 0,9,-1
 121.09375 -5.859375 l 0,10,-1
 195.80078125 219.23828125 l 0,11,-1
 62.01171875 219.23828125 l 0,12,-1
 62.01171875 282.2265625 l 0,13,-1
 215.8203125 282.2265625 l 0,14,-1
 258.7890625 414.0625 l 0,15,-1
 110.83984375 414.0625 l 0,16,-1
 110.83984375 479.98046875 l 0,17,-1
 279.78515625 479.98046875 l 0,18,-1
 356.93359375 709.9609375 l 0,19,-1
 423.828125 691.89453125 l 0,20,-1
 350.09765625 479.98046875 l 0,21,-1
 479.98046875 479.98046875 l 0,22,-1
 554.19921875 709.9609375 l 0,23,-1
 623.046875 690.91796875 l 0,24,-1
 547.8515625 479.98046875 l 0,25,-1
 679.19921875 479.98046875 l 0,26,-1
 679.19921875 414.0625 l 0,27,-1
 526.85546875 414.0625 l 0,0,-1
331.0546875 414.0625 m 0,28,-1
 287.109375 282.2265625 l 0,29,-1
 411.1328125 282.2265625 l 0,30,-1
 457.03125 414.0625 l 0,31,-1
 331.0546875 414.0625 l 0,28,-1
EndSplineSet
EndChar

StartChar: dollar
Encoding: 7 36 7
Width: 586
VWidth: 488
Flags: W
LayerCount: 2
Fore
SplineSet
534.1796875 205.078125 m 0,0,1
 534.1796875 162.109375 534.1796875 162.109375 518.310546875 127.44140625 c 0,2,3
 502.44140625 92.7734375 502.44140625 92.7734375 473.6328125 66.89453125 c 0,4,5
 444.82421875 41.015625 444.82421875 41.015625 405.029296875 24.4140625 c 0,6,7
 365.234375 7.8125 365.234375 7.8125 317.87109375 0.9765625 c 0,8,-1
 317.87109375 -102.05078125 l 0,9,-1
 258.7890625 -102.05078125 l 0,10,-1
 258.7890625 0 l 0,11,12
 224.12109375 1.46484375 224.12109375 1.46484375 188.4765625 5.859375 c 0,13,14
 157.71484375 9.765625 157.71484375 9.765625 122.0703125 16.11328125 c 0,15,16
 86.42578125 22.4609375 86.42578125 22.4609375 54.19921875 33.203125 c 0,17,-1
 54.19921875 206.0546875 l 0,18,-1
 125 206.0546875 l 0,19,-1
 145.99609375 88.8671875 l 0,20,21
 161.62109375 79.1015625 161.62109375 79.1015625 181.15234375 73.73046875 c 0,22,23
 200.68359375 68.359375 200.68359375 68.359375 217.7734375 65.91796875 c 0,24,25
 237.79296875 62.98828125 237.79296875 62.98828125 258.7890625 62.01171875 c 0,26,-1
 258.7890625 282.2265625 l 0,27,28
 240.234375 287.59765625 240.234375 287.59765625 218.26171875 294.921875 c 0,29,30
 196.2890625 302.24609375 196.2890625 302.24609375 174.072265625 312.5 c 0,31,32
 151.85546875 322.75390625 151.85546875 322.75390625 131.34765625 337.158203125 c 0,33,34
 110.83984375 351.5625 110.83984375 351.5625 94.970703125 371.337890625 c 0,35,36
 79.1015625 391.11328125 79.1015625 391.11328125 69.580078125 417.236328125 c 0,37,38
 60.05859375 443.359375 60.05859375 443.359375 60.05859375 477.05078125 c 0,39,40
 60.05859375 511.23046875 60.05859375 511.23046875 68.603515625 537.59765625 c 0,41,42
 77.1484375 563.96484375 77.1484375 563.96484375 91.064453125 583.984375 c 0,43,44
 104.98046875 604.00390625 104.98046875 604.00390625 122.802734375 617.919921875 c 0,45,46
 140.625 631.8359375 140.625 631.8359375 159.1796875 641.11328125 c 0,47,48
 203.125 663.0859375 203.125 663.0859375 258.7890625 667.96875 c 0,49,-1
 258.7890625 742.1875 l 0,50,-1
 317.87109375 742.1875 l 0,51,-1
 317.87109375 667.96875 l 0,52,53
 348.6328125 667.96875 348.6328125 667.96875 380.615234375 663.330078125 c 0,54,55
 412.59765625 658.69140625 412.59765625 658.69140625 438.96484375 653.3203125 c 0,56,57
 469.7265625 646.97265625 469.7265625 646.97265625 499.0234375 639.16015625 c 0,58,-1
 499.0234375 472.16796875 l 0,59,-1
 430.17578125 472.16796875 l 0,60,-1
 411.1328125 583.0078125 l 0,61,62
 410.15625 586.42578125 410.15625 586.42578125 397.705078125 590.576171875 c 0,63,64
 385.25390625 594.7265625 385.25390625 594.7265625 369.384765625 598.388671875 c 0,65,66
 353.515625 602.05078125 353.515625 602.05078125 338.623046875 604.4921875 c 0,67,68
 323.73046875 606.93359375 323.73046875 606.93359375 317.87109375 606.93359375 c 0,69,-1
 317.87109375 400.87890625 l 0,70,71
 334.47265625 396.484375 334.47265625 396.484375 356.93359375 389.892578125 c 0,72,73
 379.39453125 383.30078125 379.39453125 383.30078125 403.3203125 373.291015625 c 0,74,75
 427.24609375 363.28125 427.24609375 363.28125 450.68359375 348.876953125 c 0,76,77
 474.12109375 334.47265625 474.12109375 334.47265625 492.67578125 314.208984375 c 0,78,79
 511.23046875 293.9453125 511.23046875 293.9453125 522.705078125 267.08984375 c 0,80,81
 534.1796875 240.234375 534.1796875 240.234375 534.1796875 205.078125 c 0,0,1
258.7890625 604.00390625 m 0,82,83
 238.76953125 601.07421875 238.76953125 601.07421875 222.65625 590.8203125 c 0,84,85
 208.984375 581.54296875 208.984375 581.54296875 197.998046875 563.4765625 c 0,86,87
 187.01171875 545.41015625 187.01171875 545.41015625 187.01171875 513.18359375 c 0,88,89
 187.01171875 482.421875 187.01171875 482.421875 197.998046875 463.37890625 c 0,90,91
 208.984375 444.3359375 208.984375 444.3359375 222.65625 433.59375 c 0,92,93
 238.76953125 420.8984375 238.76953125 420.8984375 258.7890625 415.0390625 c 0,94,-1
 258.7890625 604.00390625 l 0,82,83
407.2265625 168.9453125 m 0,95,96
 407.2265625 193.84765625 407.2265625 193.84765625 397.94921875 210.9375 c 0,97,98
 388.671875 228.02734375 388.671875 228.02734375 375.244140625 239.2578125 c 0,99,100
 361.81640625 250.48828125 361.81640625 250.48828125 346.19140625 257.080078125 c 0,101,102
 330.56640625 263.671875 330.56640625 263.671875 317.87109375 267.08984375 c 0,103,-1
 317.87109375 64.94140625 l 0,104,105
 342.7734375 68.359375 342.7734375 68.359375 362.3046875 80.56640625 c 0,106,107
 370.60546875 85.44921875 370.60546875 85.44921875 378.662109375 93.26171875 c 0,108,109
 386.71875 101.07421875 386.71875 101.07421875 393.06640625 111.572265625 c 0,110,111
 399.4140625 122.0703125 399.4140625 122.0703125 403.3203125 136.23046875 c 0,112,113
 407.2265625 150.390625 407.2265625 150.390625 407.2265625 168.9453125 c 0,95,96
EndSplineSet
EndChar

StartChar: percent
Encoding: 8 37 8
Width: 894
VWidth: 488
Flags: W
LayerCount: 2
Fore
SplineSet
865.234375 192.87109375 m 0,0,1
 865.234375 144.04296875 865.234375 144.04296875 854.248046875 105.46875 c 0,2,3
 843.26171875 66.89453125 843.26171875 66.89453125 821.77734375 39.794921875 c 0,4,5
 800.29296875 12.6953125 800.29296875 12.6953125 768.06640625 -1.708984375 c 0,6,7
 735.83984375 -16.11328125 735.83984375 -16.11328125 692.87109375 -16.11328125 c 0,8,9
 650.390625 -16.11328125 650.390625 -16.11328125 618.408203125 -1.708984375 c 0,10,11
 586.42578125 12.6953125 586.42578125 12.6953125 565.185546875 39.794921875 c 0,12,13
 543.9453125 66.89453125 543.9453125 66.89453125 533.447265625 105.46875 c 0,14,15
 522.94921875 144.04296875 522.94921875 144.04296875 522.94921875 192.87109375 c 0,16,17
 522.94921875 241.69921875 522.94921875 241.69921875 533.447265625 280.517578125 c 0,18,19
 543.9453125 319.3359375 543.9453125 319.3359375 565.185546875 346.19140625 c 0,20,21
 586.42578125 373.046875 586.42578125 373.046875 618.408203125 387.451171875 c 0,22,23
 650.390625 401.85546875 650.390625 401.85546875 692.87109375 401.85546875 c 0,24,25
 735.83984375 401.85546875 735.83984375 401.85546875 768.06640625 387.451171875 c 0,26,27
 800.29296875 373.046875 800.29296875 373.046875 821.77734375 346.19140625 c 0,28,29
 843.26171875 319.3359375 843.26171875 319.3359375 854.248046875 280.517578125 c 0,30,31
 865.234375 241.69921875 865.234375 241.69921875 865.234375 192.87109375 c 0,0,1
274.90234375 0 m 0,32,-1
 204.1015625 0 l 0,33,-1
 619.140625 670.8984375 l 0,34,-1
 690.91796875 670.8984375 l 0,35,-1
 274.90234375 0 l 0,32,-1
372.0703125 478.02734375 m 0,36,37
 372.0703125 429.19921875 372.0703125 429.19921875 361.328125 390.380859375 c 0,38,39
 350.5859375 351.5625 350.5859375 351.5625 329.345703125 324.462890625 c 0,40,41
 308.10546875 297.36328125 308.10546875 297.36328125 275.87890625 282.71484375 c 0,42,43
 243.65234375 268.06640625 243.65234375 268.06640625 201.171875 268.06640625 c 0,44,45
 158.203125 268.06640625 158.203125 268.06640625 125.9765625 282.71484375 c 0,46,47
 93.75 297.36328125 93.75 297.36328125 72.021484375 324.462890625 c 0,48,49
 50.29296875 351.5625 50.29296875 351.5625 39.55078125 390.380859375 c 0,50,51
 28.80859375 429.19921875 28.80859375 429.19921875 28.80859375 478.02734375 c 0,52,53
 28.80859375 526.85546875 28.80859375 526.85546875 39.55078125 565.4296875 c 0,54,55
 50.29296875 604.00390625 50.29296875 604.00390625 72.021484375 631.103515625 c 0,56,57
 93.75 658.203125 93.75 658.203125 125.9765625 672.607421875 c 0,58,59
 158.203125 687.01171875 158.203125 687.01171875 201.171875 687.01171875 c 0,60,61
 243.65234375 687.01171875 243.65234375 687.01171875 275.87890625 672.607421875 c 0,62,63
 308.10546875 658.203125 308.10546875 658.203125 329.345703125 631.103515625 c 0,64,65
 350.5859375 604.00390625 350.5859375 604.00390625 361.328125 565.4296875 c 0,66,67
 372.0703125 526.85546875 372.0703125 526.85546875 372.0703125 478.02734375 c 0,36,37
755.859375 192.87109375 m 0,68,69
 755.859375 238.76953125 755.859375 238.76953125 751.220703125 270.01953125 c 0,70,71
 746.58203125 301.26953125 746.58203125 301.26953125 738.28125 320.068359375 c 0,72,73
 729.98046875 338.8671875 729.98046875 338.8671875 718.26171875 346.923828125 c 0,74,75
 706.54296875 354.98046875 706.54296875 354.98046875 692.87109375 354.98046875 c 0,76,77
 679.6875 354.98046875 679.6875 354.98046875 667.236328125 346.923828125 c 0,78,79
 654.78515625 338.8671875 654.78515625 338.8671875 645.5078125 320.068359375 c 0,80,81
 636.23046875 301.26953125 636.23046875 301.26953125 630.615234375 270.01953125 c 0,82,83
 625 238.76953125 625 238.76953125 625 192.87109375 c 0,84,85
 625 146.484375 625 146.484375 630.615234375 115.478515625 c 0,86,87
 636.23046875 84.47265625 636.23046875 84.47265625 645.5078125 65.673828125 c 0,88,89
 654.78515625 46.875 654.78515625 46.875 667.236328125 38.818359375 c 0,90,91
 679.6875 30.76171875 679.6875 30.76171875 692.87109375 30.76171875 c 0,92,93
 706.54296875 30.76171875 706.54296875 30.76171875 718.26171875 38.818359375 c 0,94,95
 729.98046875 46.875 729.98046875 46.875 738.28125 65.673828125 c 0,96,97
 746.58203125 84.47265625 746.58203125 84.47265625 751.220703125 115.478515625 c 0,98,99
 755.859375 146.484375 755.859375 146.484375 755.859375 192.87109375 c 0,68,69
264.16015625 478.02734375 m 0,100,101
 264.16015625 523.92578125 264.16015625 523.92578125 259.27734375 555.17578125 c 0,102,103
 254.39453125 586.42578125 254.39453125 586.42578125 246.09375 605.224609375 c 0,104,105
 237.79296875 624.0234375 237.79296875 624.0234375 226.07421875 632.080078125 c 0,106,107
 214.35546875 640.13671875 214.35546875 640.13671875 201.171875 640.13671875 c 0,108,109
 187.01171875 640.13671875 187.01171875 640.13671875 174.31640625 632.080078125 c 0,110,111
 161.62109375 624.0234375 161.62109375 624.0234375 151.611328125 605.224609375 c 0,112,113
 141.6015625 586.42578125 141.6015625 586.42578125 135.7421875 555.17578125 c 0,114,115
 129.8828125 523.92578125 129.8828125 523.92578125 129.8828125 478.02734375 c 0,116,117
 129.8828125 431.640625 129.8828125 431.640625 135.7421875 400.390625 c 0,118,119
 141.6015625 369.140625 141.6015625 369.140625 151.611328125 350.09765625 c 0,120,121
 161.62109375 331.0546875 161.62109375 331.0546875 174.31640625 322.998046875 c 0,122,123
 187.01171875 314.94140625 187.01171875 314.94140625 201.171875 314.94140625 c 0,124,125
 214.35546875 314.94140625 214.35546875 314.94140625 226.07421875 322.998046875 c 0,126,127
 237.79296875 331.0546875 237.79296875 331.0546875 246.09375 350.09765625 c 0,128,129
 254.39453125 369.140625 254.39453125 369.140625 259.27734375 400.390625 c 0,130,131
 264.16015625 431.640625 264.16015625 431.640625 264.16015625 478.02734375 c 0,100,101
EndSplineSet
EndChar

StartChar: ampersand
Encoding: 9 38 9
Width: 734
VWidth: 488
Flags: W
LayerCount: 2
Fore
SplineSet
376.953125 524.90234375 m 0,0,1
 376.953125 545.41015625 376.953125 545.41015625 371.58203125 563.4765625 c 0,2,3
 366.2109375 581.54296875 366.2109375 581.54296875 355.95703125 594.970703125 c 0,4,5
 345.703125 608.3984375 345.703125 608.3984375 331.0546875 616.2109375 c 0,6,7
 316.40625 624.0234375 316.40625 624.0234375 297.8515625 624.0234375 c 0,8,9
 280.76171875 624.0234375 280.76171875 624.0234375 266.11328125 618.1640625 c 0,10,11
 251.46484375 612.3046875 251.46484375 612.3046875 240.72265625 602.05078125 c 0,12,13
 229.98046875 591.796875 229.98046875 591.796875 223.876953125 577.392578125 c 0,14,15
 217.7734375 562.98828125 217.7734375 562.98828125 217.7734375 545.8984375 c 0,16,17
 217.7734375 529.296875 217.7734375 529.296875 222.900390625 512.939453125 c 0,18,19
 228.02734375 496.58203125 228.02734375 496.58203125 239.501953125 479.00390625 c 0,20,21
 250.9765625 461.42578125 250.9765625 461.42578125 269.04296875 441.40625 c 0,22,23
 287.109375 421.38671875 287.109375 421.38671875 312.98828125 397.94921875 c 0,24,25
 328.125 411.62109375 328.125 411.62109375 340.087890625 425.29296875 c 0,26,27
 352.05078125 438.96484375 352.05078125 438.96484375 360.3515625 453.857421875 c 0,28,29
 368.65234375 468.75 368.65234375 468.75 372.802734375 486.083984375 c 0,30,31
 376.953125 503.41796875 376.953125 503.41796875 376.953125 524.90234375 c 0,0,1
220.21484375 320.80078125 m 0,32,33
 206.54296875 311.5234375 206.54296875 311.5234375 196.2890625 298.828125 c 0,34,35
 187.5 287.59765625 187.5 287.59765625 180.17578125 270.5078125 c 0,36,37
 172.8515625 253.41796875 172.8515625 253.41796875 172.8515625 229.98046875 c 0,38,39
 172.8515625 187.5 172.8515625 187.5 185.791015625 157.71484375 c 0,40,41
 198.73046875 127.9296875 198.73046875 127.9296875 219.7265625 109.375 c 0,42,43
 240.72265625 90.8203125 240.72265625 90.8203125 267.08984375 82.51953125 c 0,44,45
 293.45703125 74.21875 293.45703125 74.21875 319.82421875 74.21875 c 0,46,47
 345.21484375 74.21875 345.21484375 74.21875 363.525390625 80.322265625 c 0,48,49
 381.8359375 86.42578125 381.8359375 86.42578125 394.04296875 93.75 c 0,50,51
 408.203125 102.5390625 408.203125 102.5390625 417.96875 113.76953125 c 0,52,-1
 220.21484375 320.80078125 l 0,32,33
500.9765625 0 m 0,53,-1
 500.9765625 23.92578125 l 0,54,-1
 458.984375 70.80078125 l 0,55,56
 435.546875 47.36328125 435.546875 47.36328125 404.78515625 29.296875 c 0,57,58
 391.6015625 21.484375 391.6015625 21.484375 375.48828125 13.916015625 c 0,59,60
 359.375 6.34765625 359.375 6.34765625 340.33203125 0.48828125 c 0,61,62
 321.2890625 -5.37109375 321.2890625 -5.37109375 299.560546875 -8.7890625 c 0,63,64
 277.83203125 -12.20703125 277.83203125 -12.20703125 253.90625 -12.20703125 c 0,65,66
 205.56640625 -12.20703125 205.56640625 -12.20703125 165.771484375 1.953125 c 0,67,68
 125.9765625 16.11328125 125.9765625 16.11328125 97.65625 41.748046875 c 0,69,70
 69.3359375 67.3828125 69.3359375 67.3828125 53.7109375 103.515625 c 0,71,72
 38.0859375 139.6484375 38.0859375 139.6484375 38.0859375 184.08203125 c 0,73,74
 38.0859375 219.7265625 38.0859375 219.7265625 48.095703125 247.0703125 c 0,75,76
 58.10546875 274.4140625 58.10546875 274.4140625 76.66015625 295.41015625 c 0,77,78
 95.21484375 316.40625 95.21484375 316.40625 121.09375 331.0546875 c 0,79,80
 146.97265625 345.703125 146.97265625 345.703125 178.22265625 355.95703125 c 0,81,82
 176.7578125 356.93359375 176.7578125 356.93359375 170.41015625 361.81640625 c 0,83,84
 163.0859375 367.1875 163.0859375 367.1875 152.83203125 376.708984375 c 0,85,86
 142.578125 386.23046875 142.578125 386.23046875 130.859375 399.658203125 c 0,87,88
 119.140625 413.0859375 119.140625 413.0859375 109.130859375 430.419921875 c 0,89,90
 99.12109375 447.75390625 99.12109375 447.75390625 92.529296875 468.75 c 0,91,92
 85.9375 489.74609375 85.9375 489.74609375 85.9375 514.16015625 c 0,93,94
 85.9375 555.6640625 85.9375 555.6640625 103.271484375 587.40234375 c 0,95,96
 120.60546875 619.140625 120.60546875 619.140625 150.146484375 640.625 c 0,97,98
 179.6875 662.109375 179.6875 662.109375 219.23828125 673.095703125 c 0,99,100
 258.7890625 684.08203125 258.7890625 684.08203125 303.22265625 684.08203125 c 0,101,102
 322.75390625 684.08203125 322.75390625 684.08203125 344.970703125 681.15234375 c 0,103,104
 367.1875 678.22265625 367.1875 678.22265625 389.16015625 670.8984375 c 0,105,106
 411.1328125 663.57421875 411.1328125 663.57421875 431.396484375 651.85546875 c 0,107,108
 451.66015625 640.13671875 451.66015625 640.13671875 467.041015625 622.802734375 c 0,109,110
 482.421875 605.46875 482.421875 605.46875 491.69921875 581.54296875 c 0,111,112
 500.9765625 557.6171875 500.9765625 557.6171875 500.9765625 526.85546875 c 0,113,114
 500.9765625 493.1640625 500.9765625 493.1640625 490.72265625 468.26171875 c 0,115,116
 480.46875 443.359375 480.46875 443.359375 464.84375 425.048828125 c 0,117,118
 449.21875 406.73828125 449.21875 406.73828125 430.6640625 394.775390625 c 0,119,120
 412.109375 382.8125 412.109375 382.8125 395.5078125 375.732421875 c 0,121,122
 378.90625 368.65234375 378.90625 368.65234375 366.455078125 365.478515625 c 0,123,124
 354.00390625 362.3046875 354.00390625 362.3046875 351.07421875 361.81640625 c 0,125,-1
 504.8828125 202.1484375 l 0,126,127
 516.6015625 217.28515625 516.6015625 217.28515625 526.85546875 234.86328125 c 0,128,129
 535.64453125 250 535.64453125 250 544.43359375 270.263671875 c 0,130,131
 553.22265625 290.52734375 553.22265625 290.52734375 558.10546875 313.96484375 c 0,132,133
 558.59375 318.359375 558.59375 318.359375 554.6875 324.21875 c 0,134,135
 550.78125 330.078125 550.78125 330.078125 547.8515625 331.0546875 c 0,136,-1
 496.09375 339.84375 l 0,137,-1
 496.09375 387.20703125 l 0,138,-1
 706.0546875 387.20703125 l 0,139,-1
 706.0546875 339.84375 l 0,140,-1
 637.20703125 326.171875 l 0,141,142
 625 286.62109375 625 286.62109375 608.88671875 255.859375 c 0,143,144
 592.7734375 225.09765625 592.7734375 225.09765625 578.61328125 203.61328125 c 0,145,146
 561.5234375 178.7109375 561.5234375 178.7109375 543.9453125 160.15625 c 0,147,-1
 638.18359375 59.08203125 l 0,148,-1
 719.23828125 50.78125 l 0,149,-1
 719.23828125 0 l 0,150,-1
 500.9765625 0 l 0,53,-1
EndSplineSet
EndChar

StartChar: quotesingle
Encoding: 10 39 10
Width: 175
VWidth: 488
Flags: W
LayerCount: 2
Fore
SplineSet
69.82421875 416.9921875 m 0,0,-1
 30.76171875 650.87890625 l 0,1,2
 30.76171875 678.7109375 30.76171875 678.7109375 43.9453125 696.2890625 c 0,3,4
 57.12890625 713.8671875 57.12890625 713.8671875 87.890625 713.8671875 c 0,5,6
 118.1640625 713.8671875 118.1640625 713.8671875 132.080078125 696.2890625 c 0,7,8
 145.99609375 678.7109375 145.99609375 678.7109375 145.99609375 650.87890625 c 0,9,-1
 105.95703125 416.9921875 l 0,10,-1
 69.82421875 416.9921875 l 0,0,-1
EndSplineSet
EndChar

StartChar: parenleft
Encoding: 11 40 11
Width: 392
VWidth: 488
Flags: W
LayerCount: 2
Fore
SplineSet
357.91015625 -142.08984375 m 0,0,1
 284.1796875 -140.13671875 284.1796875 -140.13671875 228.271484375 -109.375 c 0,2,3
 172.36328125 -78.61328125 172.36328125 -78.61328125 134.765625 -22.94921875 c 0,4,5
 97.16796875 32.71484375 97.16796875 32.71484375 78.125 111.328125 c 0,6,7
 59.08203125 189.94140625 59.08203125 189.94140625 59.08203125 288.0859375 c 0,8,9
 59.08203125 385.7421875 59.08203125 385.7421875 78.125 464.111328125 c 0,10,11
 97.16796875 542.48046875 97.16796875 542.48046875 134.765625 597.900390625 c 0,12,13
 172.36328125 653.3203125 172.36328125 653.3203125 228.271484375 683.837890625 c 0,14,15
 284.1796875 714.35546875 284.1796875 714.35546875 357.91015625 716.796875 c 0,16,-1
 357.91015625 663.0859375 l 0,17,18
 305.17578125 655.76171875 305.17578125 655.76171875 271.728515625 625.244140625 c 0,19,20
 238.28125 594.7265625 238.28125 594.7265625 219.23828125 545.41015625 c 0,21,22
 200.1953125 496.09375 200.1953125 496.09375 193.115234375 430.419921875 c 0,23,24
 186.03515625 364.74609375 186.03515625 364.74609375 186.03515625 288.0859375 c 0,25,26
 186.03515625 210.9375 186.03515625 210.9375 193.115234375 145.263671875 c 0,27,28
 200.1953125 79.58984375 200.1953125 79.58984375 219.23828125 30.2734375 c 0,29,30
 238.28125 -19.04296875 238.28125 -19.04296875 271.728515625 -49.8046875 c 0,31,32
 305.17578125 -80.56640625 305.17578125 -80.56640625 357.91015625 -87.890625 c 0,33,-1
 357.91015625 -142.08984375 l 0,0,1
EndSplineSet
EndChar

StartChar: parenright
Encoding: 12 41 12
Width: 392
VWidth: 488
Flags: W
LayerCount: 2
Fore
SplineSet
333.0078125 288.0859375 m 0,0,1
 333.0078125 189.94140625 333.0078125 189.94140625 313.96484375 111.328125 c 0,2,3
 294.921875 32.71484375 294.921875 32.71484375 257.080078125 -22.94921875 c 0,4,5
 219.23828125 -78.61328125 219.23828125 -78.61328125 163.330078125 -109.375 c 0,6,7
 107.421875 -140.13671875 107.421875 -140.13671875 34.1796875 -142.08984375 c 0,8,-1
 34.1796875 -87.890625 l 0,9,10
 86.42578125 -80.56640625 86.42578125 -80.56640625 119.873046875 -49.8046875 c 0,11,12
 153.3203125 -19.04296875 153.3203125 -19.04296875 172.36328125 30.2734375 c 0,13,14
 191.40625 79.58984375 191.40625 79.58984375 198.73046875 145.263671875 c 0,15,16
 206.0546875 210.9375 206.0546875 210.9375 206.0546875 288.0859375 c 0,17,18
 206.0546875 364.74609375 206.0546875 364.74609375 198.73046875 430.419921875 c 0,19,20
 191.40625 496.09375 191.40625 496.09375 172.36328125 545.41015625 c 0,21,22
 153.3203125 594.7265625 153.3203125 594.7265625 119.873046875 625.244140625 c 0,23,24
 86.42578125 655.76171875 86.42578125 655.76171875 34.1796875 663.0859375 c 0,25,-1
 34.1796875 716.796875 l 0,26,27
 107.421875 714.35546875 107.421875 714.35546875 163.330078125 683.837890625 c 0,28,29
 219.23828125 653.3203125 219.23828125 653.3203125 257.080078125 597.900390625 c 0,30,31
 294.921875 542.48046875 294.921875 542.48046875 313.96484375 464.111328125 c 0,32,33
 333.0078125 385.7421875 333.0078125 385.7421875 333.0078125 288.0859375 c 0,0,1
EndSplineSet
EndChar

StartChar: asterisk
Encoding: 13 42 13
Width: 500
VWidth: 488
Flags: W
LayerCount: 2
Fore
SplineSet
402.83203125 505.859375 m 0,0,-1
 273.92578125 506.8359375 l 0,1,-1
 267.08984375 521.97265625 l 0,2,-1
 373.046875 600.09765625 l 0,3,-1
 446.77734375 570.80078125 l 0,4,-1
 402.83203125 505.859375 l 0,0,-1
257.8125 533.203125 m 0,5,-1
 241.2109375 533.203125 l 0,6,-1
 200.1953125 658.203125 l 0,7,-1
 250 717.7734375 l 0,8,-1
 299.8046875 658.203125 l 0,9,-1
 257.8125 533.203125 l 0,5,-1
372.0703125 337.890625 m 0,10,-1
 295.8984375 357.91015625 l 0,11,-1
 255.859375 481.93359375 l 0,12,-1
 268.06640625 494.140625 l 0,13,-1
 375 416.015625 l 0,14,-1
 372.0703125 337.890625 l 0,10,-1
226.07421875 506.8359375 m 0,15,-1
 96.19140625 505.859375 l 0,16,-1
 53.22265625 570.80078125 l 0,17,-1
 125 600.09765625 l 0,18,-1
 231.93359375 520.99609375 l 0,19,-1
 226.07421875 506.8359375 l 0,15,-1
204.1015625 357.91015625 m 0,20,-1
 127.9296875 337.890625 l 0,21,-1
 125 416.015625 l 0,22,-1
 231.93359375 494.140625 l 0,23,-1
 244.140625 481.93359375 l 0,24,-1
 204.1015625 357.91015625 l 0,20,-1
EndSplineSet
EndChar

StartChar: plus
Encoding: 14 43 14
Width: 1000
VWidth: 488
Flags: W
LayerCount: 2
Fore
SplineSet
530.76171875 269.04296875 m 0,0,-1
 530.76171875 0 l 0,1,-1
 469.23828125 0 l 0,2,-1
 469.23828125 269.04296875 l 0,3,-1
 200.1953125 269.04296875 l 0,4,-1
 200.1953125 331.0546875 l 0,5,-1
 469.23828125 331.0546875 l 0,6,-1
 469.23828125 600.09765625 l 0,7,-1
 530.76171875 600.09765625 l 0,8,-1
 530.76171875 331.0546875 l 0,9,-1
 799.8046875 331.0546875 l 0,10,-1
 799.8046875 269.04296875 l 0,11,-1
 530.76171875 269.04296875 l 0,0,-1
EndSplineSet
EndChar

StartChar: comma
Encoding: 15 44 15
Width: 317
VWidth: 488
Flags: W
LayerCount: 2
Fore
SplineSet
242.1875 59.08203125 m 0,0,1
 242.1875 27.83203125 242.1875 27.83203125 233.3984375 -0.9765625 c 0,2,3
 224.609375 -29.78515625 224.609375 -29.78515625 209.716796875 -55.419921875 c 0,4,5
 194.82421875 -81.0546875 194.82421875 -81.0546875 174.560546875 -102.294921875 c 0,6,7
 154.296875 -123.53515625 154.296875 -123.53515625 131.34765625 -139.404296875 c 0,8,9
 108.3984375 -155.2734375 108.3984375 -155.2734375 83.740234375 -164.794921875 c 0,10,11
 59.08203125 -174.31640625 59.08203125 -174.31640625 35.15625 -175.78125 c 0,12,-1
 35.15625 -126.953125 l 0,13,14
 54.19921875 -124.0234375 54.19921875 -124.0234375 75.927734375 -115.966796875 c 0,15,16
 97.65625 -107.91015625 97.65625 -107.91015625 115.72265625 -92.28515625 c 0,17,18
 133.7890625 -76.66015625 133.7890625 -76.66015625 145.01953125 -52.490234375 c 0,19,20
 156.25 -28.3203125 156.25 -28.3203125 154.78515625 6.8359375 c 0,21,-1
 94.23828125 6.8359375 l 0,22,23
 84.9609375 14.16015625 84.9609375 14.16015625 79.1015625 22.216796875 c 0,24,25
 73.2421875 30.2734375 73.2421875 30.2734375 69.580078125 38.57421875 c 0,26,27
 65.91796875 46.875 65.91796875 46.875 64.453125 55.17578125 c 0,28,29
 62.98828125 63.4765625 62.98828125 63.4765625 62.98828125 70.80078125 c 0,30,31
 62.98828125 89.84375 62.98828125 89.84375 70.068359375 105.224609375 c 0,32,33
 77.1484375 120.60546875 77.1484375 120.60546875 88.8671875 131.591796875 c 0,34,35
 100.5859375 142.578125 100.5859375 142.578125 115.72265625 148.681640625 c 0,36,37
 130.859375 154.78515625 130.859375 154.78515625 146.97265625 154.78515625 c 0,38,39
 192.3828125 154.78515625 192.3828125 154.78515625 217.28515625 128.90625 c 0,40,41
 242.1875 103.02734375 242.1875 103.02734375 242.1875 59.08203125 c 0,0,1
EndSplineSet
EndChar

StartChar: hyphen
Encoding: 16 45 16
Width: 328
VWidth: 488
Flags: W
LayerCount: 2
Fore
SplineSet
33.203125 187.98828125 m 0,0,-1
 33.203125 293.9453125 l 0,1,-1
 294.921875 293.9453125 l 0,2,-1
 294.921875 187.98828125 l 0,3,-1
 33.203125 187.98828125 l 0,0,-1
EndSplineSet
EndChar

StartChar: period
Encoding: 17 46 17
Width: 317
VWidth: 488
Flags: W
LayerCount: 2
Fore
SplineSet
229.98046875 70.80078125 m 0,0,1
 229.98046875 53.7109375 229.98046875 53.7109375 223.6328125 38.57421875 c 0,2,3
 217.28515625 23.4375 217.28515625 23.4375 206.0546875 12.20703125 c 0,4,5
 194.82421875 0.9765625 194.82421875 0.9765625 179.6875 -5.615234375 c 0,6,7
 164.55078125 -12.20703125 164.55078125 -12.20703125 146.97265625 -12.20703125 c 0,8,9
 129.8828125 -12.20703125 129.8828125 -12.20703125 114.501953125 -5.615234375 c 0,10,11
 99.12109375 0.9765625 99.12109375 0.9765625 87.646484375 12.20703125 c 0,12,13
 76.171875 23.4375 76.171875 23.4375 69.580078125 38.57421875 c 0,14,15
 62.98828125 53.7109375 62.98828125 53.7109375 62.98828125 70.80078125 c 0,16,17
 62.98828125 88.37890625 62.98828125 88.37890625 69.580078125 103.515625 c 0,18,19
 76.171875 118.65234375 76.171875 118.65234375 87.646484375 130.126953125 c 0,20,21
 99.12109375 141.6015625 99.12109375 141.6015625 114.501953125 148.193359375 c 0,22,23
 129.8828125 154.78515625 129.8828125 154.78515625 146.97265625 154.78515625 c 0,24,25
 164.55078125 154.78515625 164.55078125 154.78515625 179.6875 148.193359375 c 0,26,27
 194.82421875 141.6015625 194.82421875 141.6015625 206.0546875 130.126953125 c 0,28,29
 217.28515625 118.65234375 217.28515625 118.65234375 223.6328125 103.515625 c 0,30,31
 229.98046875 88.37890625 229.98046875 88.37890625 229.98046875 70.80078125 c 0,0,1
EndSplineSet
EndChar

StartChar: slash
Encoding: 18 47 18
Width: 500
VWidth: 488
Flags: W
LayerCount: 2
Fore
SplineSet
78.125 -92.7734375 m 0,0,-1
 0 -92.7734375 l 0,1,-1
 421.875 670.8984375 l 0,2,-1
 500.9765625 670.8984375 l 0,3,-1
 78.125 -92.7734375 l 0,0,-1
EndSplineSet
EndChar

StartChar: zero
Encoding: 19 48 19
Width: 586
VWidth: 488
Flags: W
LayerCount: 2
Fore
SplineSet
551.7578125 334.9609375 m 0,0,1
 551.7578125 264.6484375 551.7578125 264.6484375 536.865234375 201.416015625 c 0,2,3
 521.97265625 138.18359375 521.97265625 138.18359375 490.478515625 90.8203125 c 0,4,5
 458.984375 43.45703125 458.984375 43.45703125 410.15625 15.625 c 0,6,7
 361.328125 -12.20703125 361.328125 -12.20703125 292.96875 -12.20703125 c 0,8,9
 225.09765625 -12.20703125 225.09765625 -12.20703125 176.513671875 15.625 c 0,10,11
 127.9296875 43.45703125 127.9296875 43.45703125 96.6796875 90.8203125 c 0,12,13
 65.4296875 138.18359375 65.4296875 138.18359375 50.78125 201.416015625 c 0,14,15
 36.1328125 264.6484375 36.1328125 264.6484375 36.1328125 334.9609375 c 0,16,17
 36.1328125 405.2734375 36.1328125 405.2734375 50.78125 468.26171875 c 0,18,19
 65.4296875 531.25 65.4296875 531.25 96.6796875 579.1015625 c 0,20,21
 127.9296875 626.953125 127.9296875 626.953125 176.513671875 655.029296875 c 0,22,23
 225.09765625 683.10546875 225.09765625 683.10546875 292.96875 683.10546875 c 0,24,25
 361.328125 683.10546875 361.328125 683.10546875 410.15625 655.029296875 c 0,26,27
 458.984375 626.953125 458.984375 626.953125 490.478515625 579.1015625 c 0,28,29
 521.97265625 531.25 521.97265625 531.25 536.865234375 468.26171875 c 0,30,31
 551.7578125 405.2734375 551.7578125 405.2734375 551.7578125 334.9609375 c 0,0,1
405.76171875 334.9609375 m 0,32,33
 405.76171875 356.4453125 405.76171875 356.4453125 404.78515625 386.474609375 c 0,34,35
 403.80859375 416.50390625 403.80859375 416.50390625 400.390625 448.73046875 c 0,36,37
 396.97265625 480.95703125 396.97265625 480.95703125 389.892578125 512.451171875 c 0,38,39
 382.8125 543.9453125 382.8125 543.9453125 370.1171875 569.091796875 c 0,40,41
 357.421875 594.23828125 357.421875 594.23828125 338.623046875 609.619140625 c 0,42,43
 319.82421875 625 319.82421875 625 292.96875 625 c 0,44,45
 266.11328125 625 266.11328125 625 247.55859375 609.619140625 c 0,46,47
 229.00390625 594.23828125 229.00390625 594.23828125 216.796875 569.091796875 c 0,48,49
 204.58984375 543.9453125 204.58984375 543.9453125 197.509765625 512.451171875 c 0,50,51
 190.4296875 480.95703125 190.4296875 480.95703125 187.01171875 448.73046875 c 0,52,53
 183.59375 416.50390625 183.59375 416.50390625 182.861328125 386.474609375 c 0,54,55
 182.12890625 356.4453125 182.12890625 356.4453125 182.12890625 334.9609375 c 0,56,57
 182.12890625 312.98828125 182.12890625 312.98828125 182.861328125 283.203125 c 0,58,59
 183.59375 253.41796875 183.59375 253.41796875 187.01171875 221.435546875 c 0,60,61
 190.4296875 189.453125 190.4296875 189.453125 197.509765625 158.203125 c 0,62,63
 204.58984375 126.953125 204.58984375 126.953125 216.796875 102.294921875 c 0,64,65
 229.00390625 77.63671875 229.00390625 77.63671875 247.55859375 62.255859375 c 0,66,67
 266.11328125 46.875 266.11328125 46.875 292.96875 46.875 c 0,68,69
 319.82421875 46.875 319.82421875 46.875 338.623046875 62.255859375 c 0,70,71
 357.421875 77.63671875 357.421875 77.63671875 370.1171875 102.294921875 c 0,72,73
 382.8125 126.953125 382.8125 126.953125 389.892578125 158.203125 c 0,74,75
 396.97265625 189.453125 396.97265625 189.453125 400.390625 221.435546875 c 0,76,77
 403.80859375 253.41796875 403.80859375 253.41796875 404.78515625 283.203125 c 0,78,79
 405.76171875 312.98828125 405.76171875 312.98828125 405.76171875 334.9609375 c 0,32,33
EndSplineSet
EndChar

StartChar: one
Encoding: 20 49 20
Width: 586
VWidth: 488
Flags: W
LayerCount: 2
Fore
SplineSet
115.234375 0 m 0,0,-1
 115.234375 51.7578125 l 0,1,-1
 201.171875 55.17578125 l 0,2,3
 209.9609375 56.15234375 209.9609375 56.15234375 216.552734375 62.01171875 c 0,4,5
 223.14453125 67.87109375 223.14453125 67.87109375 223.14453125 77.1484375 c 0,6,-1
 223.14453125 577.1484375 l 0,7,-1
 74.21875 556.15234375 l 0,8,-1
 74.21875 608.88671875 l 0,9,-1
 290.0390625 687.01171875 l 0,10,-1
 363.76953125 687.01171875 l 0,11,-1
 363.76953125 77.1484375 l 0,12,13
 363.76953125 67.87109375 363.76953125 67.87109375 370.361328125 62.01171875 c 0,14,15
 376.953125 56.15234375 376.953125 56.15234375 386.23046875 55.17578125 c 0,16,-1
 464.84375 51.7578125 l 0,17,-1
 464.84375 0 l 0,18,-1
 115.234375 0 l 0,0,-1
EndSplineSet
EndChar

StartChar: two
Encoding: 21 50 21
Width: 586
VWidth: 488
Flags: W
LayerCount: 2
Fore
SplineSet
42.96875 0 m 0,0,-1
 42.96875 83.0078125 l 0,1,2
 62.98828125 99.609375 62.98828125 99.609375 95.458984375 123.291015625 c 0,3,4
 127.9296875 146.97265625 127.9296875 146.97265625 164.794921875 176.513671875 c 0,5,6
 201.66015625 206.0546875 201.66015625 206.0546875 239.013671875 240.72265625 c 0,7,8
 276.3671875 275.390625 276.3671875 275.390625 306.640625 313.96484375 c 0,9,10
 336.9140625 352.5390625 336.9140625 352.5390625 355.95703125 394.287109375 c 0,11,12
 375 436.03515625 375 436.03515625 375 479.98046875 c 0,13,14
 375 509.765625 375 509.765625 366.2109375 535.400390625 c 0,15,16
 357.421875 561.03515625 357.421875 561.03515625 341.30859375 579.833984375 c 0,17,18
 325.1953125 598.6328125 325.1953125 598.6328125 302.24609375 609.375 c 0,19,20
 279.296875 620.1171875 279.296875 620.1171875 250.9765625 620.1171875 c 0,21,22
 240.72265625 620.1171875 240.72265625 620.1171875 233.642578125 618.896484375 c 0,23,24
 226.5625 617.67578125 226.5625 617.67578125 220.458984375 615.966796875 c 0,25,26
 214.35546875 614.2578125 214.35546875 614.2578125 208.251953125 611.81640625 c 0,27,28
 202.1484375 609.375 202.1484375 609.375 193.84765625 606.93359375 c 0,29,-1
 193.84765625 472.16796875 l 0,30,31
 183.10546875 466.796875 183.10546875 466.796875 171.875 462.40234375 c 0,32,33
 162.109375 458.49609375 162.109375 458.49609375 150.146484375 455.810546875 c 0,34,35
 138.18359375 453.125 138.18359375 453.125 125.9765625 453.125 c 0,36,37
 89.35546875 453.125 89.35546875 453.125 70.068359375 473.388671875 c 0,38,39
 50.78125 493.65234375 50.78125 493.65234375 50.78125 526.85546875 c 0,40,41
 50.78125 558.10546875 50.78125 558.10546875 62.744140625 582.275390625 c 0,42,43
 74.70703125 606.4453125 74.70703125 606.4453125 94.7265625 624.267578125 c 0,44,45
 114.74609375 642.08984375 114.74609375 642.08984375 140.380859375 654.052734375 c 0,46,47
 166.015625 666.015625 166.015625 666.015625 193.115234375 673.33984375 c 0,48,49
 220.21484375 680.6640625 220.21484375 680.6640625 246.826171875 683.837890625 c 0,50,51
 273.4375 687.01171875 273.4375 687.01171875 294.921875 687.01171875 c 0,52,53
 342.28515625 687.01171875 342.28515625 687.01171875 383.7890625 672.8515625 c 0,54,55
 425.29296875 658.69140625 425.29296875 658.69140625 456.0546875 632.8125 c 0,56,57
 486.81640625 606.93359375 486.81640625 606.93359375 504.39453125 570.3125 c 0,58,59
 521.97265625 533.69140625 521.97265625 533.69140625 521.97265625 488.76953125 c 0,60,61
 521.97265625 435.05859375 521.97265625 435.05859375 495.849609375 387.20703125 c 0,62,63
 469.7265625 339.35546875 469.7265625 339.35546875 423.33984375 293.45703125 c 0,64,65
 376.953125 247.55859375 376.953125 247.55859375 313.4765625 202.1484375 c 0,66,67
 250 156.73828125 250 156.73828125 175.78125 107.91015625 c 0,68,-1
 459.9609375 107.91015625 l 0,69,-1
 479.00390625 195.80078125 l 0,70,-1
 542.96875 195.80078125 l 0,71,-1
 542.96875 0 l 0,72,-1
 42.96875 0 l 0,0,-1
EndSplineSet
EndChar

StartChar: three
Encoding: 22 51 22
Width: 586
VWidth: 488
Flags: W
LayerCount: 2
Fore
SplineSet
542.96875 191.89453125 m 0,0,1
 542.96875 159.1796875 542.96875 159.1796875 531.982421875 131.34765625 c 0,2,3
 520.99609375 103.515625 520.99609375 103.515625 501.46484375 80.322265625 c 0,4,5
 481.93359375 57.12890625 481.93359375 57.12890625 454.833984375 39.0625 c 0,6,7
 427.734375 20.99609375 427.734375 20.99609375 395.751953125 8.7890625 c 0,8,9
 363.76953125 -3.41796875 363.76953125 -3.41796875 327.880859375 -9.765625 c 0,10,11
 291.9921875 -16.11328125 291.9921875 -16.11328125 254.8828125 -16.11328125 c 0,12,13
 206.0546875 -16.11328125 206.0546875 -16.11328125 166.9921875 -4.8828125 c 0,14,15
 127.9296875 6.34765625 127.9296875 6.34765625 100.341796875 25.146484375 c 0,16,17
 72.75390625 43.9453125 72.75390625 43.9453125 57.861328125 67.626953125 c 0,18,19
 42.96875 91.30859375 42.96875 91.30859375 42.96875 116.2109375 c 0,20,21
 42.96875 137.20703125 42.96875 137.20703125 50.048828125 150.390625 c 0,22,23
 57.12890625 163.57421875 57.12890625 163.57421875 68.115234375 171.38671875 c 0,24,25
 79.1015625 179.19921875 79.1015625 179.19921875 92.28515625 182.12890625 c 0,26,27
 105.46875 185.05859375 105.46875 185.05859375 117.1875 185.05859375 c 0,28,29
 130.37109375 185.05859375 130.37109375 185.05859375 141.11328125 182.373046875 c 0,30,31
 151.85546875 179.6875 151.85546875 179.6875 160.15625 175.78125 c 0,32,-1
 191.89453125 62.98828125 l 0,33,34
 208.49609375 58.59375 208.49609375 58.59375 226.5625 52.24609375 c 0,35,36
 244.62890625 45.8984375 244.62890625 45.8984375 265.13671875 45.8984375 c 0,37,38
 291.015625 45.8984375 291.015625 45.8984375 314.697265625 56.884765625 c 0,39,40
 338.37890625 67.87109375 338.37890625 67.87109375 356.4453125 86.669921875 c 0,41,42
 374.51171875 105.46875 374.51171875 105.46875 385.25390625 131.103515625 c 0,43,44
 395.99609375 156.73828125 395.99609375 156.73828125 395.99609375 186.03515625 c 0,45,46
 395.99609375 209.47265625 395.99609375 209.47265625 387.20703125 231.689453125 c 0,47,48
 378.41796875 253.90625 378.41796875 253.90625 360.83984375 270.751953125 c 0,49,50
 343.26171875 287.59765625 343.26171875 287.59765625 317.138671875 297.8515625 c 0,51,52
 291.015625 308.10546875 291.015625 308.10546875 255.859375 308.10546875 c 0,53,54
 244.62890625 308.10546875 244.62890625 308.10546875 232.421875 307.373046875 c 0,55,56
 220.21484375 306.640625 220.21484375 306.640625 209.9609375 305.6640625 c 0,57,58
 197.75390625 304.19921875 197.75390625 304.19921875 186.03515625 303.22265625 c 0,59,-1
 186.03515625 377.9296875 l 0,60,61
 194.3359375 376.953125 194.3359375 376.953125 200.68359375 376.953125 c 0,62,-1
 213.8671875 376.953125 l 0,63,64
 242.1875 376.953125 242.1875 376.953125 270.5078125 382.568359375 c 0,65,66
 298.828125 388.18359375 298.828125 388.18359375 321.533203125 402.34375 c 0,67,68
 344.23828125 416.50390625 344.23828125 416.50390625 358.642578125 440.185546875 c 0,69,70
 373.046875 463.8671875 373.046875 463.8671875 373.046875 500 c 0,71,72
 373.046875 523.92578125 373.046875 523.92578125 363.28125 545.654296875 c 0,73,74
 353.515625 567.3828125 353.515625 567.3828125 336.42578125 583.984375 c 0,75,76
 319.3359375 600.5859375 319.3359375 600.5859375 295.8984375 610.3515625 c 0,77,78
 272.4609375 620.1171875 272.4609375 620.1171875 245.1171875 620.1171875 c 0,79,80
 237.79296875 620.1171875 237.79296875 620.1171875 228.759765625 618.1640625 c 0,81,82
 219.7265625 616.2109375 219.7265625 616.2109375 211.42578125 613.76953125 c 0,83,84
 202.1484375 611.328125 202.1484375 611.328125 191.89453125 607.91015625 c 0,85,-1
 191.89453125 484.86328125 l 0,86,87
 178.22265625 476.07421875 178.22265625 476.07421875 164.0625 473.6328125 c 0,88,89
 149.90234375 471.19140625 149.90234375 471.19140625 138.18359375 471.19140625 c 0,90,91
 122.55859375 471.19140625 122.55859375 471.19140625 108.3984375 475.5859375 c 0,92,93
 94.23828125 479.98046875 94.23828125 479.98046875 83.49609375 488.76953125 c 0,94,95
 72.75390625 497.55859375 72.75390625 497.55859375 66.40625 510.986328125 c 0,96,97
 60.05859375 524.4140625 60.05859375 524.4140625 60.05859375 542.96875 c 0,98,99
 60.05859375 574.21875 60.05859375 574.21875 78.61328125 600.5859375 c 0,100,101
 97.16796875 626.953125 97.16796875 626.953125 128.90625 646.240234375 c 0,102,103
 160.64453125 665.52734375 160.64453125 665.52734375 202.63671875 676.26953125 c 0,104,105
 244.62890625 687.01171875 244.62890625 687.01171875 291.9921875 687.01171875 c 0,106,107
 333.0078125 687.01171875 333.0078125 687.01171875 373.53515625 676.26953125 c 0,108,109
 414.0625 665.52734375 414.0625 665.52734375 446.2890625 643.798828125 c 0,110,111
 478.515625 622.0703125 478.515625 622.0703125 498.779296875 589.111328125 c 0,112,113
 519.04296875 556.15234375 519.04296875 556.15234375 519.04296875 511.23046875 c 0,114,115
 519.04296875 479.4921875 519.04296875 479.4921875 508.30078125 455.56640625 c 0,116,117
 497.55859375 431.640625 497.55859375 431.640625 480.95703125 414.306640625 c 0,118,119
 464.35546875 396.97265625 464.35546875 396.97265625 444.091796875 385.498046875 c 0,120,121
 423.828125 374.0234375 423.828125 374.0234375 405.029296875 366.943359375 c 0,122,123
 386.23046875 359.86328125 386.23046875 359.86328125 371.09375 356.4453125 c 0,124,125
 357.421875 353.515625 357.421875 353.515625 350.5859375 353.02734375 c 0,126,127
 356.93359375 352.5390625 356.93359375 352.5390625 372.0703125 351.5625 c 0,128,129
 389.16015625 350.09765625 389.16015625 350.09765625 410.888671875 344.482421875 c 0,130,131
 432.6171875 338.8671875 432.6171875 338.8671875 455.810546875 328.125 c 0,132,133
 479.00390625 317.3828125 479.00390625 317.3828125 498.53515625 299.31640625 c 0,134,135
 518.06640625 281.25 518.06640625 281.25 530.517578125 254.8828125 c 0,136,137
 542.96875 228.515625 542.96875 228.515625 542.96875 191.89453125 c 0,0,1
EndSplineSet
EndChar

StartChar: four
Encoding: 23 52 23
Width: 586
VWidth: 488
Flags: W
LayerCount: 2
Fore
SplineSet
470.21484375 187.98828125 m 0,0,-1
 470.21484375 -16.11328125 l 0,1,-1
 342.7734375 -16.11328125 l 0,2,-1
 342.7734375 187.01171875 l 0,3,-1
 36.1328125 187.01171875 l 0,4,-1
 36.1328125 272.94921875 l 0,5,-1
 361.81640625 687.01171875 l 0,6,-1
 470.21484375 687.01171875 l 0,7,-1
 470.21484375 269.04296875 l 0,8,-1
 551.7578125 269.04296875 l 0,9,-1
 551.7578125 187.98828125 l 0,10,-1
 470.21484375 187.98828125 l 0,0,-1
342.7734375 532.2265625 m 0,11,-1
 132.8125 269.04296875 l 0,12,-1
 342.7734375 269.04296875 l 0,13,-1
 342.7734375 532.2265625 l 0,11,-1
EndSplineSet
EndChar

StartChar: five
Encoding: 24 53 24
Width: 586
VWidth: 488
Flags: W
LayerCount: 2
Fore
SplineSet
546.875 227.05078125 m 0,0,1
 546.875 170.41015625 546.875 170.41015625 521.728515625 125.48828125 c 0,2,3
 496.58203125 80.56640625 496.58203125 80.56640625 454.833984375 49.072265625 c 0,4,5
 413.0859375 17.578125 413.0859375 17.578125 359.130859375 0.732421875 c 0,6,7
 305.17578125 -16.11328125 305.17578125 -16.11328125 248.046875 -16.11328125 c 0,8,9
 209.9609375 -16.11328125 209.9609375 -16.11328125 172.8515625 -7.8125 c 0,10,11
 135.7421875 0.48828125 135.7421875 0.48828125 106.4453125 17.08984375 c 0,12,13
 77.1484375 33.69140625 77.1484375 33.69140625 59.08203125 58.349609375 c 0,14,15
 41.015625 83.0078125 41.015625 83.0078125 41.015625 115.234375 c 0,16,17
 41.015625 126.46484375 41.015625 126.46484375 45.654296875 137.939453125 c 0,18,19
 50.29296875 149.4140625 50.29296875 149.4140625 59.326171875 158.935546875 c 0,20,21
 68.359375 168.45703125 68.359375 168.45703125 82.03125 174.31640625 c 0,22,23
 95.703125 180.17578125 95.703125 180.17578125 113.76953125 180.17578125 c 0,24,25
 123.53515625 180.17578125 123.53515625 180.17578125 134.521484375 177.734375 c 0,26,27
 145.5078125 175.29296875 145.5078125 175.29296875 159.1796875 170.8984375 c 0,28,-1
 190.91796875 51.7578125 l 0,29,30
 203.125 49.8046875 203.125 49.8046875 213.37890625 47.8515625 c 0,31,32
 222.16796875 46.38671875 222.16796875 46.38671875 230.712890625 45.166015625 c 0,33,34
 239.2578125 43.9453125 239.2578125 43.9453125 243.1640625 43.9453125 c 0,35,36
 286.62109375 43.9453125 286.62109375 43.9453125 317.138671875 60.546875 c 0,37,38
 347.65625 77.1484375 347.65625 77.1484375 366.943359375 100.830078125 c 0,39,40
 386.23046875 124.51171875 386.23046875 124.51171875 395.01953125 149.90234375 c 0,41,42
 403.80859375 175.29296875 403.80859375 175.29296875 403.80859375 192.87109375 c 0,43,44
 403.80859375 226.5625 403.80859375 226.5625 389.892578125 253.173828125 c 0,45,46
 375.9765625 279.78515625 375.9765625 279.78515625 351.806640625 298.33984375 c 0,47,48
 327.63671875 316.89453125 327.63671875 316.89453125 295.166015625 326.904296875 c 0,49,50
 262.6953125 336.9140625 262.6953125 336.9140625 226.07421875 336.9140625 c 0,51,52
 200.1953125 336.9140625 200.1953125 336.9140625 174.31640625 334.228515625 c 0,53,54
 148.4375 331.54296875 148.4375 331.54296875 126.953125 328.61328125 c 0,55,56
 102.05078125 325.1953125 102.05078125 325.1953125 79.1015625 320.80078125 c 0,57,-1
 79.1015625 670.8984375 l 0,58,-1
 508.7890625 670.8984375 l 0,59,-1
 508.7890625 560.05859375 l 0,60,-1
 164.0625 560.05859375 l 0,61,-1
 164.0625 398.92578125 l 0,62,63
 185.05859375 405.2734375 185.05859375 405.2734375 208.0078125 410.64453125 c 0,64,65
 227.5390625 415.0390625 227.5390625 415.0390625 251.953125 418.9453125 c 0,66,67
 276.3671875 422.8515625 276.3671875 422.8515625 301.7578125 422.8515625 c 0,68,69
 355.46875 422.8515625 355.46875 422.8515625 400.390625 408.447265625 c 0,70,71
 445.3125 394.04296875 445.3125 394.04296875 478.02734375 368.1640625 c 0,72,73
 510.7421875 342.28515625 510.7421875 342.28515625 528.80859375 306.396484375 c 0,74,75
 546.875 270.5078125 546.875 270.5078125 546.875 227.05078125 c 0,0,1
EndSplineSet
EndChar

StartChar: six
Encoding: 25 54 25
Width: 586
VWidth: 488
Flags: W
LayerCount: 2
Fore
SplineSet
551.7578125 241.2109375 m 0,0,1
 551.7578125 183.10546875 551.7578125 183.10546875 531.982421875 135.498046875 c 0,2,3
 512.20703125 87.890625 512.20703125 87.890625 478.02734375 54.19921875 c 0,4,5
 443.84765625 20.5078125 443.84765625 20.5078125 398.681640625 2.197265625 c 0,6,7
 353.515625 -16.11328125 353.515625 -16.11328125 303.22265625 -16.11328125 c 0,8,9
 240.234375 -16.11328125 240.234375 -16.11328125 190.4296875 3.90625 c 0,10,11
 140.625 23.92578125 140.625 23.92578125 106.4453125 62.98828125 c 0,12,13
 72.265625 102.05078125 72.265625 102.05078125 54.19921875 159.423828125 c 0,14,15
 36.1328125 216.796875 36.1328125 216.796875 36.1328125 291.015625 c 0,16,17
 36.1328125 389.16015625 36.1328125 389.16015625 67.138671875 463.8671875 c 0,18,19
 98.14453125 538.57421875 98.14453125 538.57421875 154.78515625 588.37890625 c 0,20,21
 211.42578125 638.18359375 211.42578125 638.18359375 290.771484375 663.0859375 c 0,22,23
 370.1171875 687.98828125 370.1171875 687.98828125 466.796875 687.01171875 c 0,24,-1
 466.796875 608.88671875 l 0,25,-1
 422.8515625 613.76953125 l 0,26,27
 368.65234375 609.86328125 368.65234375 609.86328125 327.63671875 593.505859375 c 0,28,29
 286.62109375 577.1484375 286.62109375 577.1484375 258.056640625 549.072265625 c 0,30,31
 229.4921875 520.99609375 229.4921875 520.99609375 211.9140625 481.93359375 c 0,32,33
 194.3359375 442.87109375 194.3359375 442.87109375 187.01171875 394.04296875 c 0,34,35
 207.51953125 407.71484375 207.51953125 407.71484375 232.421875 418.9453125 c 0,36,37
 253.41796875 428.22265625 253.41796875 428.22265625 281.494140625 436.03515625 c 0,38,39
 309.5703125 443.84765625 309.5703125 443.84765625 341.796875 443.84765625 c 0,40,41
 394.53125 443.84765625 394.53125 443.84765625 433.837890625 425.537109375 c 0,42,43
 473.14453125 407.2265625 473.14453125 407.2265625 499.267578125 378.173828125 c 0,44,45
 525.390625 349.12109375 525.390625 349.12109375 538.57421875 312.98828125 c 0,46,47
 551.7578125 276.85546875 551.7578125 276.85546875 551.7578125 241.2109375 c 0,0,1
409.1796875 210.9375 m 0,48,49
 409.1796875 243.65234375 409.1796875 243.65234375 401.3671875 270.99609375 c 0,50,51
 393.5546875 298.33984375 393.5546875 298.33984375 377.44140625 317.87109375 c 0,52,53
 361.328125 337.40234375 361.328125 337.40234375 336.42578125 348.14453125 c 0,54,55
 311.5234375 358.88671875 311.5234375 358.88671875 277.83203125 358.88671875 c 0,56,57
 256.34765625 358.88671875 256.34765625 358.88671875 238.525390625 355.46875 c 0,58,59
 220.703125 352.05078125 220.703125 352.05078125 208.0078125 348.14453125 c 0,60,61
 192.87109375 343.26171875 192.87109375 343.26171875 181.15234375 337.890625 c 0,62,63
 179.19921875 320.80078125 179.19921875 320.80078125 178.955078125 305.419921875 c 0,64,65
 178.7109375 290.0390625 178.7109375 290.0390625 179.19921875 278.80859375 c 0,66,67
 179.6875 265.13671875 179.6875 265.13671875 180.17578125 253.90625 c 0,68,69
 180.17578125 219.23828125 180.17578125 219.23828125 187.01171875 182.861328125 c 0,70,71
 193.84765625 146.484375 193.84765625 146.484375 208.984375 116.69921875 c 0,72,73
 224.12109375 86.9140625 224.12109375 86.9140625 247.55859375 67.87109375 c 0,74,75
 270.99609375 48.828125 270.99609375 48.828125 304.19921875 48.828125 c 0,76,77
 330.56640625 48.828125 330.56640625 48.828125 350.09765625 62.255859375 c 0,78,79
 369.62890625 75.68359375 369.62890625 75.68359375 382.8125 98.14453125 c 0,80,81
 395.99609375 120.60546875 395.99609375 120.60546875 402.587890625 149.90234375 c 0,82,83
 409.1796875 179.19921875 409.1796875 179.19921875 409.1796875 210.9375 c 0,48,49
EndSplineSet
EndChar

StartChar: seven
Encoding: 26 55 26
Width: 586
VWidth: 488
Flags: W
LayerCount: 2
Fore
SplineSet
151.3671875 14.16015625 m 0,0,-1
 151.3671875 -16.11328125 l 0,1,-1
 23.4375 -16.11328125 l 0,2,-1
 349.609375 550.78125 l 0,3,-1
 60.546875 550.78125 l 0,4,-1
 45.41015625 458.0078125 l 0,5,-1
 -24.4140625 458.0078125 l 0,6,-1
 -24.4140625 670.8984375 l 0,7,-1
 488.28125 670.8984375 l 0,8,-1
 488.28125 600.09765625 l 0,9,-1
 151.3671875 14.16015625 l 0,0,-1
EndSplineSet
EndChar

StartChar: eight
Encoding: 27 56 27
Width: 586
VWidth: 488
Flags: W
LayerCount: 2
Fore
SplineSet
550.78125 184.08203125 m 0,0,1
 550.78125 132.8125 550.78125 132.8125 528.564453125 95.21484375 c 0,2,3
 506.34765625 57.6171875 506.34765625 57.6171875 469.482421875 32.958984375 c 0,4,5
 432.6171875 8.30078125 432.6171875 8.30078125 385.009765625 -3.90625 c 0,6,7
 337.40234375 -16.11328125 337.40234375 -16.11328125 287.109375 -16.11328125 c 0,8,9
 232.91015625 -16.11328125 232.91015625 -16.11328125 186.767578125 -1.220703125 c 0,10,11
 140.625 13.671875 140.625 13.671875 107.177734375 40.0390625 c 0,12,13
 73.73046875 66.40625 73.73046875 66.40625 54.931640625 102.5390625 c 0,14,15
 36.1328125 138.671875 36.1328125 138.671875 36.1328125 181.15234375 c 0,16,17
 36.1328125 221.6796875 36.1328125 221.6796875 50.78125 248.53515625 c 0,18,19
 65.4296875 275.390625 65.4296875 275.390625 86.669921875 292.724609375 c 0,20,21
 107.91015625 310.05859375 107.91015625 310.05859375 132.080078125 319.580078125 c 0,22,23
 156.25 329.1015625 156.25 329.1015625 174.8046875 334.9609375 c 0,24,25
 159.66796875 340.8203125 159.66796875 340.8203125 140.380859375 353.271484375 c 0,26,27
 121.09375 365.72265625 121.09375 365.72265625 103.759765625 384.521484375 c 0,28,29
 86.42578125 403.3203125 86.42578125 403.3203125 74.70703125 428.466796875 c 0,30,31
 62.98828125 453.61328125 62.98828125 453.61328125 62.98828125 484.86328125 c 0,32,33
 62.98828125 541.50390625 62.98828125 541.50390625 84.716796875 580.322265625 c 0,34,35
 106.4453125 619.140625 106.4453125 619.140625 141.6015625 642.822265625 c 0,36,37
 176.7578125 666.50390625 176.7578125 666.50390625 220.458984375 676.7578125 c 0,38,39
 264.16015625 687.01171875 264.16015625 687.01171875 308.10546875 687.01171875 c 0,40,41
 347.65625 687.01171875 347.65625 687.01171875 386.474609375 676.26953125 c 0,42,43
 425.29296875 665.52734375 425.29296875 665.52734375 456.0546875 643.5546875 c 0,44,45
 486.81640625 621.58203125 486.81640625 621.58203125 505.859375 588.623046875 c 0,46,47
 524.90234375 555.6640625 524.90234375 555.6640625 524.90234375 511.23046875 c 0,48,49
 524.90234375 475.5859375 524.90234375 475.5859375 512.6953125 450.439453125 c 0,50,51
 500.48828125 425.29296875 500.48828125 425.29296875 481.93359375 407.470703125 c 0,52,53
 463.37890625 389.6484375 463.37890625 389.6484375 441.650390625 377.685546875 c 0,54,55
 419.921875 365.72265625 419.921875 365.72265625 400.87890625 356.93359375 c 0,56,57
 407.71484375 354.4921875 407.71484375 354.4921875 421.38671875 349.853515625 c 0,58,59
 435.05859375 345.21484375 435.05859375 345.21484375 451.904296875 336.669921875 c 0,60,61
 468.75 328.125 468.75 328.125 486.083984375 315.4296875 c 0,62,63
 503.41796875 302.734375 503.41796875 302.734375 517.822265625 284.423828125 c 0,64,65
 532.2265625 266.11328125 532.2265625 266.11328125 541.50390625 241.2109375 c 0,66,67
 550.78125 216.30859375 550.78125 216.30859375 550.78125 184.08203125 c 0,0,1
401.85546875 502.9296875 m 0,68,69
 401.85546875 526.3671875 401.85546875 526.3671875 394.287109375 548.095703125 c 0,70,71
 386.71875 569.82421875 386.71875 569.82421875 372.802734375 586.669921875 c 0,72,73
 358.88671875 603.515625 358.88671875 603.515625 339.35546875 613.76953125 c 0,74,75
 319.82421875 624.0234375 319.82421875 624.0234375 295.8984375 624.0234375 c 0,76,77
 275.87890625 624.0234375 275.87890625 624.0234375 258.544921875 616.455078125 c 0,78,79
 241.2109375 608.88671875 241.2109375 608.88671875 228.271484375 595.947265625 c 0,80,81
 215.33203125 583.0078125 215.33203125 583.0078125 207.763671875 565.4296875 c 0,82,83
 200.1953125 547.8515625 200.1953125 547.8515625 200.1953125 527.83203125 c 0,84,85
 200.1953125 498.046875 200.1953125 498.046875 213.37890625 476.07421875 c 0,86,87
 226.5625 454.1015625 226.5625 454.1015625 248.291015625 437.01171875 c 0,88,89
 270.01953125 419.921875 270.01953125 419.921875 297.36328125 406.494140625 c 0,90,91
 324.70703125 393.06640625 324.70703125 393.06640625 353.02734375 380.859375 c 0,92,93
 360.3515625 388.671875 360.3515625 388.671875 368.896484375 400.390625 c 0,94,95
 377.44140625 412.109375 377.44140625 412.109375 384.765625 427.490234375 c 0,96,97
 392.08984375 442.87109375 392.08984375 442.87109375 396.97265625 461.9140625 c 0,98,99
 401.85546875 480.95703125 401.85546875 480.95703125 401.85546875 502.9296875 c 0,68,69
415.0390625 148.92578125 m 0,100,101
 415.0390625 173.33984375 415.0390625 173.33984375 405.029296875 192.87109375 c 0,102,103
 395.01953125 212.40234375 395.01953125 212.40234375 378.90625 227.783203125 c 0,104,105
 362.79296875 243.1640625 362.79296875 243.1640625 342.041015625 255.37109375 c 0,106,107
 321.2890625 267.578125 321.2890625 267.578125 299.8046875 277.099609375 c 0,108,109
 278.3203125 286.62109375 278.3203125 286.62109375 258.056640625 294.677734375 c 0,110,111
 237.79296875 302.734375 237.79296875 302.734375 222.16796875 310.05859375 c 0,112,113
 217.7734375 304.19921875 217.7734375 304.19921875 208.0078125 294.189453125 c 0,114,115
 198.2421875 284.1796875 198.2421875 284.1796875 188.4765625 269.53125 c 0,116,117
 178.7109375 254.8828125 178.7109375 254.8828125 171.38671875 235.3515625 c 0,118,119
 164.0625 215.8203125 164.0625 215.8203125 164.0625 190.91796875 c 0,120,121
 164.0625 161.62109375 164.0625 161.62109375 174.31640625 135.498046875 c 0,122,123
 184.5703125 109.375 184.5703125 109.375 202.392578125 90.087890625 c 0,124,125
 220.21484375 70.80078125 220.21484375 70.80078125 244.140625 59.326171875 c 0,126,127
 268.06640625 47.8515625 268.06640625 47.8515625 294.921875 47.8515625 c 0,128,129
 318.359375 47.8515625 318.359375 47.8515625 339.84375 54.443359375 c 0,130,131
 361.328125 61.03515625 361.328125 61.03515625 378.173828125 73.974609375 c 0,132,133
 395.01953125 86.9140625 395.01953125 86.9140625 405.029296875 105.712890625 c 0,134,135
 415.0390625 124.51171875 415.0390625 124.51171875 415.0390625 148.92578125 c 0,100,101
EndSplineSet
EndChar

StartChar: nine
Encoding: 28 57 28
Width: 586
VWidth: 488
Flags: W
LayerCount: 2
Fore
SplineSet
551.7578125 378.90625 m 0,0,1
 551.7578125 280.76171875 551.7578125 280.76171875 520.751953125 206.298828125 c 0,2,3
 489.74609375 131.8359375 489.74609375 131.8359375 433.10546875 82.03125 c 0,4,5
 376.46484375 32.2265625 376.46484375 32.2265625 297.119140625 7.568359375 c 0,6,7
 217.7734375 -17.08984375 217.7734375 -17.08984375 121.09375 -16.11328125 c 0,8,-1
 121.09375 62.01171875 l 0,9,-1
 165.0390625 57.12890625 l 0,10,11
 219.23828125 60.546875 219.23828125 60.546875 260.009765625 77.1484375 c 0,12,13
 300.78125 93.75 300.78125 93.75 329.345703125 121.58203125 c 0,14,15
 357.91015625 149.4140625 357.91015625 149.4140625 375.244140625 188.232421875 c 0,16,17
 392.578125 227.05078125 392.578125 227.05078125 399.90234375 275.87890625 c 0,18,19
 379.39453125 261.71875 379.39453125 261.71875 354.98046875 250.9765625 c 0,20,21
 333.984375 241.2109375 333.984375 241.2109375 306.15234375 233.642578125 c 0,22,23
 278.3203125 226.07421875 278.3203125 226.07421875 246.09375 226.07421875 c 0,24,25
 193.359375 226.07421875 193.359375 226.07421875 153.80859375 244.384765625 c 0,26,27
 114.2578125 262.6953125 114.2578125 262.6953125 88.134765625 291.9921875 c 0,28,29
 62.01171875 321.2890625 62.01171875 321.2890625 49.072265625 357.421875 c 0,30,31
 36.1328125 393.5546875 36.1328125 393.5546875 36.1328125 429.19921875 c 0,32,33
 36.1328125 487.3046875 36.1328125 487.3046875 55.908203125 534.912109375 c 0,34,35
 75.68359375 582.51953125 75.68359375 582.51953125 109.86328125 616.2109375 c 0,36,37
 144.04296875 649.90234375 144.04296875 649.90234375 189.208984375 668.45703125 c 0,38,39
 234.375 687.01171875 234.375 687.01171875 285.15625 687.01171875 c 0,40,41
 347.65625 687.01171875 347.65625 687.01171875 397.216796875 666.748046875 c 0,42,43
 446.77734375 646.484375 446.77734375 646.484375 481.201171875 607.177734375 c 0,44,45
 515.625 567.87109375 515.625 567.87109375 533.69140625 510.498046875 c 0,46,47
 551.7578125 453.125 551.7578125 453.125 551.7578125 378.90625 c 0,0,1
408.203125 416.015625 m 0,48,49
 408.203125 451.66015625 408.203125 451.66015625 401.123046875 488.28125 c 0,50,51
 394.04296875 524.90234375 394.04296875 524.90234375 378.90625 554.6875 c 0,52,53
 363.76953125 584.47265625 363.76953125 584.47265625 340.33203125 603.271484375 c 0,54,55
 316.89453125 622.0703125 316.89453125 622.0703125 284.1796875 622.0703125 c 0,56,57
 257.8125 622.0703125 257.8125 622.0703125 238.037109375 608.642578125 c 0,58,59
 218.26171875 595.21484375 218.26171875 595.21484375 205.322265625 572.509765625 c 0,60,61
 192.3828125 549.8046875 192.3828125 549.8046875 185.791015625 520.263671875 c 0,62,63
 179.19921875 490.72265625 179.19921875 490.72265625 179.19921875 458.984375 c 0,64,65
 179.19921875 425.78125 179.19921875 425.78125 187.01171875 398.681640625 c 0,66,67
 194.82421875 371.58203125 194.82421875 371.58203125 210.9375 352.05078125 c 0,68,69
 227.05078125 332.51953125 227.05078125 332.51953125 251.708984375 321.77734375 c 0,70,71
 276.3671875 311.03515625 276.3671875 311.03515625 310.05859375 311.03515625 c 0,72,73
 331.0546875 311.03515625 331.0546875 311.03515625 349.12109375 314.208984375 c 0,74,75
 367.1875 317.3828125 367.1875 317.3828125 379.8828125 321.2890625 c 0,76,77
 395.01953125 326.171875 395.01953125 326.171875 407.2265625 332.03125 c 0,78,79
 408.203125 348.6328125 408.203125 348.6328125 408.447265625 363.76953125 c 0,80,81
 408.69140625 378.90625 408.69140625 378.90625 408.69140625 390.625 c 0,82,83
 408.69140625 404.296875 408.69140625 404.296875 408.203125 416.015625 c 0,48,49
EndSplineSet
EndChar

StartChar: colon
Encoding: 29 58 29
Width: 317
VWidth: 488
Flags: W
LayerCount: 2
Fore
SplineSet
229.98046875 70.80078125 m 0,0,1
 229.98046875 53.7109375 229.98046875 53.7109375 223.6328125 38.57421875 c 0,2,3
 217.28515625 23.4375 217.28515625 23.4375 206.0546875 12.20703125 c 0,4,5
 194.82421875 0.9765625 194.82421875 0.9765625 179.6875 -5.615234375 c 0,6,7
 164.55078125 -12.20703125 164.55078125 -12.20703125 146.97265625 -12.20703125 c 0,8,9
 129.8828125 -12.20703125 129.8828125 -12.20703125 114.501953125 -5.615234375 c 0,10,11
 99.12109375 0.9765625 99.12109375 0.9765625 87.646484375 12.20703125 c 0,12,13
 76.171875 23.4375 76.171875 23.4375 69.580078125 38.57421875 c 0,14,15
 62.98828125 53.7109375 62.98828125 53.7109375 62.98828125 70.80078125 c 0,16,17
 62.98828125 88.37890625 62.98828125 88.37890625 69.580078125 103.515625 c 0,18,19
 76.171875 118.65234375 76.171875 118.65234375 87.646484375 130.126953125 c 0,20,21
 99.12109375 141.6015625 99.12109375 141.6015625 114.501953125 148.193359375 c 0,22,23
 129.8828125 154.78515625 129.8828125 154.78515625 146.97265625 154.78515625 c 0,24,25
 164.55078125 154.78515625 164.55078125 154.78515625 179.6875 148.193359375 c 0,26,27
 194.82421875 141.6015625 194.82421875 141.6015625 206.0546875 130.126953125 c 0,28,29
 217.28515625 118.65234375 217.28515625 118.65234375 223.6328125 103.515625 c 0,30,31
 229.98046875 88.37890625 229.98046875 88.37890625 229.98046875 70.80078125 c 0,0,1
229.98046875 416.015625 m 0,32,33
 229.98046875 398.4375 229.98046875 398.4375 223.6328125 383.30078125 c 0,34,35
 217.28515625 368.1640625 217.28515625 368.1640625 206.0546875 356.93359375 c 0,36,37
 194.82421875 345.703125 194.82421875 345.703125 179.6875 339.35546875 c 0,38,39
 164.55078125 333.0078125 164.55078125 333.0078125 146.97265625 333.0078125 c 0,40,41
 129.8828125 333.0078125 129.8828125 333.0078125 114.501953125 339.35546875 c 0,42,43
 99.12109375 345.703125 99.12109375 345.703125 87.646484375 356.93359375 c 0,44,45
 76.171875 368.1640625 76.171875 368.1640625 69.580078125 383.30078125 c 0,46,47
 62.98828125 398.4375 62.98828125 398.4375 62.98828125 416.015625 c 0,48,49
 62.98828125 433.10546875 62.98828125 433.10546875 69.580078125 448.486328125 c 0,50,51
 76.171875 463.8671875 76.171875 463.8671875 87.646484375 475.341796875 c 0,52,53
 99.12109375 486.81640625 99.12109375 486.81640625 114.501953125 493.408203125 c 0,54,55
 129.8828125 500 129.8828125 500 146.97265625 500 c 0,56,57
 164.55078125 500 164.55078125 500 179.6875 493.408203125 c 0,58,59
 194.82421875 486.81640625 194.82421875 486.81640625 206.0546875 475.341796875 c 0,60,61
 217.28515625 463.8671875 217.28515625 463.8671875 223.6328125 448.486328125 c 0,62,63
 229.98046875 433.10546875 229.98046875 433.10546875 229.98046875 416.015625 c 0,32,33
EndSplineSet
EndChar

StartChar: semicolon
Encoding: 30 59 30
Width: 317
VWidth: 488
Flags: W
LayerCount: 2
Fore
SplineSet
242.1875 59.08203125 m 0,0,1
 242.1875 27.83203125 242.1875 27.83203125 233.3984375 -0.9765625 c 0,2,3
 224.609375 -29.78515625 224.609375 -29.78515625 209.716796875 -55.419921875 c 0,4,5
 194.82421875 -81.0546875 194.82421875 -81.0546875 174.560546875 -102.294921875 c 0,6,7
 154.296875 -123.53515625 154.296875 -123.53515625 131.34765625 -139.404296875 c 0,8,9
 108.3984375 -155.2734375 108.3984375 -155.2734375 83.740234375 -164.794921875 c 0,10,11
 59.08203125 -174.31640625 59.08203125 -174.31640625 35.15625 -175.78125 c 0,12,-1
 35.15625 -126.953125 l 0,13,14
 54.19921875 -124.0234375 54.19921875 -124.0234375 75.927734375 -115.966796875 c 0,15,16
 97.65625 -107.91015625 97.65625 -107.91015625 115.72265625 -92.28515625 c 0,17,18
 133.7890625 -76.66015625 133.7890625 -76.66015625 145.01953125 -52.490234375 c 0,19,20
 156.25 -28.3203125 156.25 -28.3203125 154.78515625 6.8359375 c 0,21,-1
 94.23828125 6.8359375 l 0,22,23
 84.9609375 14.16015625 84.9609375 14.16015625 79.1015625 22.216796875 c 0,24,25
 73.2421875 30.2734375 73.2421875 30.2734375 69.580078125 38.57421875 c 0,26,27
 65.91796875 46.875 65.91796875 46.875 64.453125 55.17578125 c 0,28,29
 62.98828125 63.4765625 62.98828125 63.4765625 62.98828125 70.80078125 c 0,30,31
 62.98828125 89.84375 62.98828125 89.84375 70.068359375 105.224609375 c 0,32,33
 77.1484375 120.60546875 77.1484375 120.60546875 88.8671875 131.591796875 c 0,34,35
 100.5859375 142.578125 100.5859375 142.578125 115.72265625 148.681640625 c 0,36,37
 130.859375 154.78515625 130.859375 154.78515625 146.97265625 154.78515625 c 0,38,39
 192.3828125 154.78515625 192.3828125 154.78515625 217.28515625 128.90625 c 0,40,41
 242.1875 103.02734375 242.1875 103.02734375 242.1875 59.08203125 c 0,0,1
229.98046875 416.015625 m 0,42,43
 229.98046875 398.4375 229.98046875 398.4375 223.6328125 383.30078125 c 0,44,45
 217.28515625 368.1640625 217.28515625 368.1640625 206.0546875 356.93359375 c 0,46,47
 194.82421875 345.703125 194.82421875 345.703125 179.6875 339.35546875 c 0,48,49
 164.55078125 333.0078125 164.55078125 333.0078125 146.97265625 333.0078125 c 0,50,51
 129.8828125 333.0078125 129.8828125 333.0078125 114.501953125 339.35546875 c 0,52,53
 99.12109375 345.703125 99.12109375 345.703125 87.646484375 356.93359375 c 0,54,55
 76.171875 368.1640625 76.171875 368.1640625 69.580078125 383.30078125 c 0,56,57
 62.98828125 398.4375 62.98828125 398.4375 62.98828125 416.015625 c 0,58,59
 62.98828125 433.10546875 62.98828125 433.10546875 69.580078125 448.486328125 c 0,60,61
 76.171875 463.8671875 76.171875 463.8671875 87.646484375 475.341796875 c 0,62,63
 99.12109375 486.81640625 99.12109375 486.81640625 114.501953125 493.408203125 c 0,64,65
 129.8828125 500 129.8828125 500 146.97265625 500 c 0,66,67
 164.55078125 500 164.55078125 500 179.6875 493.408203125 c 0,68,69
 194.82421875 486.81640625 194.82421875 486.81640625 206.0546875 475.341796875 c 0,70,71
 217.28515625 463.8671875 217.28515625 463.8671875 223.6328125 448.486328125 c 0,72,73
 229.98046875 433.10546875 229.98046875 433.10546875 229.98046875 416.015625 c 0,42,43
EndSplineSet
EndChar

StartChar: less
Encoding: 31 60 31
Width: 1000
VWidth: 488
Flags: W
LayerCount: 2
Fore
SplineSet
200.1953125 269.04296875 m 0,0,-1
 200.1953125 331.0546875 l 0,1,-1
 799.8046875 561.03515625 l 0,2,-1
 799.8046875 499.0234375 l 0,3,-1
 264.16015625 299.8046875 l 0,4,-1
 799.8046875 101.07421875 l 0,5,-1
 799.8046875 39.0625 l 0,6,-1
 200.1953125 269.04296875 l 0,0,-1
EndSplineSet
EndChar

StartChar: equal
Encoding: 32 61 32
Width: 1000
VWidth: 488
Flags: W
LayerCount: 2
Fore
SplineSet
200.1953125 359.86328125 m 0,0,-1
 200.1953125 421.875 l 0,1,-1
 799.8046875 421.875 l 0,2,-1
 799.8046875 359.86328125 l 0,3,-1
 200.1953125 359.86328125 l 0,0,-1
200.1953125 178.22265625 m 0,4,-1
 200.1953125 240.234375 l 0,5,-1
 799.8046875 240.234375 l 0,6,-1
 799.8046875 178.22265625 l 0,7,-1
 200.1953125 178.22265625 l 0,4,-1
EndSplineSet
EndChar

StartChar: greater
Encoding: 33 62 33
Width: 1000
VWidth: 488
Flags: W
LayerCount: 2
Fore
SplineSet
200.1953125 39.0625 m 0,0,-1
 200.1953125 101.07421875 l 0,1,-1
 735.83984375 299.8046875 l 0,2,-1
 200.1953125 499.0234375 l 0,3,-1
 200.1953125 561.03515625 l 0,4,-1
 799.8046875 331.0546875 l 0,5,-1
 799.8046875 269.04296875 l 0,6,-1
 200.1953125 39.0625 l 0,0,-1
EndSplineSet
EndChar

StartChar: question
Encoding: 34 63 34
Width: 521
VWidth: 488
Flags: W
LayerCount: 2
Fore
SplineSet
458.0078125 497.0703125 m 0,0,1
 458.0078125 465.33203125 458.0078125 465.33203125 448.73046875 439.208984375 c 0,2,3
 439.453125 413.0859375 439.453125 413.0859375 424.072265625 391.845703125 c 0,4,5
 408.69140625 370.60546875 408.69140625 370.60546875 389.404296875 354.4921875 c 0,6,7
 370.1171875 338.37890625 370.1171875 338.37890625 349.609375 326.171875 c 0,8,9
 301.7578125 297.8515625 301.7578125 297.8515625 241.2109375 283.203125 c 0,10,-1
 241.2109375 198.2421875 l 0,11,-1
 172.8515625 198.2421875 l 0,12,-1
 172.8515625 331.0546875 l 0,13,14
 213.37890625 341.796875 213.37890625 341.796875 245.1171875 363.76953125 c 0,15,16
 258.7890625 373.046875 258.7890625 373.046875 271.728515625 385.7421875 c 0,17,18
 284.66796875 398.4375 284.66796875 398.4375 294.921875 415.0390625 c 0,19,20
 305.17578125 431.640625 305.17578125 431.640625 311.5234375 452.392578125 c 0,21,22
 317.87109375 473.14453125 317.87109375 473.14453125 317.87109375 499.0234375 c 0,23,24
 317.87109375 527.34375 317.87109375 527.34375 309.814453125 550.537109375 c 0,25,26
 301.7578125 573.73046875 301.7578125 573.73046875 285.400390625 590.576171875 c 0,27,28
 269.04296875 607.421875 269.04296875 607.421875 244.384765625 616.69921875 c 0,29,30
 219.7265625 625.9765625 219.7265625 625.9765625 187.01171875 625.9765625 c 0,31,-1
 142.08984375 505.859375 l 0,32,33
 141.6015625 505.37109375 141.6015625 505.37109375 139.6484375 504.8828125 c 0,34,35
 138.18359375 504.39453125 138.18359375 504.39453125 135.986328125 504.150390625 c 0,36,37
 133.7890625 503.90625 133.7890625 503.90625 129.8828125 503.90625 c 0,38,39
 120.1171875 503.90625 120.1171875 503.90625 105.46875 505.126953125 c 0,40,41
 90.8203125 506.34765625 90.8203125 506.34765625 77.1484375 512.6953125 c 0,42,43
 63.4765625 519.04296875 63.4765625 519.04296875 53.7109375 531.73828125 c 0,44,45
 43.9453125 544.43359375 43.9453125 544.43359375 43.9453125 567.87109375 c 0,46,47
 43.9453125 600.5859375 43.9453125 600.5859375 61.767578125 623.291015625 c 0,48,49
 79.58984375 645.99609375 79.58984375 645.99609375 106.93359375 660.15625 c 0,50,51
 134.27734375 674.31640625 134.27734375 674.31640625 167.48046875 680.6640625 c 0,52,53
 200.68359375 687.01171875 200.68359375 687.01171875 230.95703125 687.01171875 c 0,54,55
 279.296875 687.01171875 279.296875 687.01171875 320.80078125 673.583984375 c 0,56,57
 362.3046875 660.15625 362.3046875 660.15625 392.822265625 635.498046875 c 0,58,59
 423.33984375 610.83984375 423.33984375 610.83984375 440.673828125 575.68359375 c 0,60,61
 458.0078125 540.52734375 458.0078125 540.52734375 458.0078125 497.0703125 c 0,0,1
289.0625 64.94140625 m 0,62,63
 289.0625 48.33984375 289.0625 48.33984375 282.470703125 34.1796875 c 0,64,65
 275.87890625 20.01953125 275.87890625 20.01953125 264.6484375 9.765625 c 0,66,67
 253.41796875 -0.48828125 253.41796875 -0.48828125 238.525390625 -6.34765625 c 0,68,69
 223.6328125 -12.20703125 223.6328125 -12.20703125 207.03125 -12.20703125 c 0,70,71
 190.91796875 -12.20703125 190.91796875 -12.20703125 177.001953125 -5.615234375 c 0,72,73
 163.0859375 0.9765625 163.0859375 0.9765625 152.83203125 12.20703125 c 0,74,75
 142.578125 23.4375 142.578125 23.4375 136.71875 38.0859375 c 0,76,77
 130.859375 52.734375 130.859375 52.734375 130.859375 68.84765625 c 0,78,79
 130.859375 85.44921875 130.859375 85.44921875 136.962890625 99.853515625 c 0,80,81
 143.06640625 114.2578125 143.06640625 114.2578125 153.3203125 125.244140625 c 0,82,83
 163.57421875 136.23046875 163.57421875 136.23046875 177.734375 142.578125 c 0,84,85
 191.89453125 148.92578125 191.89453125 148.92578125 208.0078125 148.92578125 c 0,86,87
 226.07421875 148.92578125 226.07421875 148.92578125 240.966796875 142.08984375 c 0,88,89
 255.859375 135.25390625 255.859375 135.25390625 266.6015625 123.779296875 c 0,90,91
 277.34375 112.3046875 277.34375 112.3046875 283.203125 96.923828125 c 0,92,93
 289.0625 81.54296875 289.0625 81.54296875 289.0625 64.94140625 c 0,62,63
EndSplineSet
EndChar

StartChar: at
Encoding: 35 64 35
Width: 936
VWidth: 488
Flags: W
LayerCount: 2
Fore
SplineSet
569.82421875 388.18359375 m 0,0,1
 571.2890625 394.04296875 571.2890625 394.04296875 569.091796875 403.076171875 c 0,2,3
 566.89453125 412.109375 566.89453125 412.109375 561.5234375 420.41015625 c 0,4,5
 556.15234375 428.7109375 556.15234375 428.7109375 546.875 434.814453125 c 0,6,7
 537.59765625 440.91796875 537.59765625 440.91796875 524.90234375 440.91796875 c 0,8,9
 494.62890625 440.91796875 494.62890625 440.91796875 468.017578125 424.8046875 c 0,10,11
 441.40625 408.69140625 441.40625 408.69140625 421.38671875 380.126953125 c 0,12,13
 401.3671875 351.5625 401.3671875 351.5625 389.6484375 312.01171875 c 0,14,15
 377.9296875 272.4609375 377.9296875 272.4609375 377.9296875 226.07421875 c 0,16,17
 377.9296875 197.75390625 377.9296875 197.75390625 383.544921875 177.978515625 c 0,18,19
 389.16015625 158.203125 389.16015625 158.203125 398.4375 145.751953125 c 0,20,21
 407.71484375 133.30078125 407.71484375 133.30078125 418.9453125 127.685546875 c 0,22,23
 430.17578125 122.0703125 430.17578125 122.0703125 441.89453125 122.0703125 c 0,24,25
 458.0078125 122.0703125 458.0078125 122.0703125 470.947265625 128.173828125 c 0,26,27
 483.88671875 134.27734375 483.88671875 134.27734375 494.384765625 143.5546875 c 0,28,29
 504.8828125 152.83203125 504.8828125 152.83203125 513.671875 163.57421875 c 0,30,31
 522.4609375 174.31640625 522.4609375 174.31640625 529.78515625 183.10546875 c 0,32,-1
 569.82421875 388.18359375 l 0,0,1
877.9296875 368.1640625 m 0,33,34
 877.9296875 318.359375 877.9296875 318.359375 866.943359375 275.634765625 c 0,35,36
 855.95703125 232.91015625 855.95703125 232.91015625 837.158203125 197.509765625 c 0,37,38
 818.359375 162.109375 818.359375 162.109375 793.212890625 134.521484375 c 0,39,40
 768.06640625 106.93359375 768.06640625 106.93359375 739.2578125 88.134765625 c 0,41,42
 710.44921875 69.3359375 710.44921875 69.3359375 679.931640625 59.5703125 c 0,43,44
 649.4140625 49.8046875 649.4140625 49.8046875 620.1171875 49.8046875 c 0,45,46
 597.16796875 49.8046875 597.16796875 49.8046875 581.787109375 55.6640625 c 0,47,48
 566.40625 61.5234375 566.40625 61.5234375 556.396484375 71.044921875 c 0,49,50
 546.38671875 80.56640625 546.38671875 80.56640625 541.259765625 93.26171875 c 0,51,52
 536.1328125 105.95703125 536.1328125 105.95703125 534.1796875 120.1171875 c 0,53,54
 518.5546875 106.93359375 518.5546875 106.93359375 502.44140625 94.482421875 c 0,55,56
 486.328125 82.03125 486.328125 82.03125 469.23828125 72.265625 c 0,57,58
 452.1484375 62.5 452.1484375 62.5 434.08203125 56.640625 c 0,59,60
 416.015625 50.78125 416.015625 50.78125 396.97265625 50.78125 c 0,61,62
 362.79296875 50.78125 362.79296875 50.78125 336.9140625 63.232421875 c 0,63,64
 311.03515625 75.68359375 311.03515625 75.68359375 293.45703125 97.900390625 c 0,65,66
 275.87890625 120.1171875 275.87890625 120.1171875 266.845703125 150.390625 c 0,67,68
 257.8125 180.6640625 257.8125 180.6640625 257.8125 216.796875 c 0,69,70
 257.8125 272.94921875 257.8125 272.94921875 278.564453125 322.509765625 c 0,71,72
 299.31640625 372.0703125 299.31640625 372.0703125 334.9609375 409.423828125 c 0,73,74
 370.60546875 446.77734375 370.60546875 446.77734375 418.701171875 468.505859375 c 0,75,76
 466.796875 490.234375 466.796875 490.234375 520.99609375 490.234375 c 0,77,78
 532.71484375 490.234375 532.71484375 490.234375 544.677734375 487.3046875 c 0,79,80
 556.640625 484.375 556.640625 484.375 568.359375 479.736328125 c 0,81,82
 580.078125 475.09765625 580.078125 475.09765625 591.064453125 469.7265625 c 0,83,84
 602.05078125 464.35546875 602.05078125 464.35546875 611.81640625 459.9609375 c 0,85,-1
 625 484.86328125 l 0,86,-1
 708.984375 484.86328125 l 0,87,-1
 704.1015625 466.30859375 l 0,88,89
 700.68359375 451.66015625 700.68359375 451.66015625 695.556640625 430.17578125 c 0,90,91
 690.4296875 408.69140625 690.4296875 408.69140625 684.326171875 382.32421875 c 0,92,93
 678.22265625 355.95703125 678.22265625 355.95703125 671.875 329.1015625 c 0,94,95
 657.2265625 266.11328125 657.2265625 266.11328125 639.16015625 187.98828125 c 0,96,97
 635.25390625 171.38671875 635.25390625 171.38671875 633.30078125 157.71484375 c 0,98,99
 631.34765625 144.04296875 631.34765625 144.04296875 633.30078125 134.27734375 c 0,100,101
 635.25390625 124.51171875 635.25390625 124.51171875 641.845703125 119.140625 c 0,102,103
 648.4375 113.76953125 648.4375 113.76953125 662.109375 113.76953125 c 0,104,105
 671.875 113.76953125 671.875 113.76953125 686.279296875 121.337890625 c 0,106,107
 700.68359375 128.90625 700.68359375 128.90625 716.064453125 143.5546875 c 0,108,109
 731.4453125 158.203125 731.4453125 158.203125 746.58203125 179.931640625 c 0,110,111
 761.71875 201.66015625 761.71875 201.66015625 773.681640625 229.736328125 c 0,112,113
 785.64453125 257.8125 785.64453125 257.8125 793.212890625 292.236328125 c 0,114,115
 800.78125 326.66015625 800.78125 326.66015625 800.78125 367.1875 c 0,116,117
 800.78125 414.55078125 800.78125 414.55078125 789.55078125 452.880859375 c 0,118,119
 778.3203125 491.2109375 778.3203125 491.2109375 759.27734375 520.99609375 c 0,120,121
 740.234375 550.78125 740.234375 550.78125 714.111328125 572.509765625 c 0,122,123
 687.98828125 594.23828125 687.98828125 594.23828125 658.69140625 608.3984375 c 0,124,125
 629.39453125 622.55859375 629.39453125 622.55859375 597.65625 629.39453125 c 0,126,127
 565.91796875 636.23046875 565.91796875 636.23046875 535.15625 636.23046875 c 0,128,129
 482.421875 636.23046875 482.421875 636.23046875 434.326171875 623.291015625 c 0,130,131
 386.23046875 610.3515625 386.23046875 610.3515625 344.482421875 586.669921875 c 0,132,133
 302.734375 562.98828125 302.734375 562.98828125 268.5546875 528.80859375 c 0,134,135
 234.375 494.62890625 234.375 494.62890625 209.9609375 451.904296875 c 0,136,137
 185.546875 409.1796875 185.546875 409.1796875 172.36328125 359.130859375 c 0,138,139
 159.1796875 309.08203125 159.1796875 309.08203125 159.1796875 252.9296875 c 0,140,141
 159.1796875 175.78125 159.1796875 175.78125 183.10546875 111.083984375 c 0,142,143
 207.03125 46.38671875 207.03125 46.38671875 250.9765625 -0.9765625 c 0,144,145
 294.921875 -48.33984375 294.921875 -48.33984375 356.93359375 -74.70703125 c 0,146,147
 418.9453125 -101.07421875 418.9453125 -101.07421875 495.1171875 -101.07421875 c 0,148,149
 534.66796875 -101.07421875 534.66796875 -101.07421875 570.3125 -94.482421875 c 0,150,151
 605.95703125 -87.890625 605.95703125 -87.890625 639.16015625 -76.66015625 c 0,152,153
 672.36328125 -65.4296875 672.36328125 -65.4296875 704.345703125 -50.048828125 c 0,154,155
 736.328125 -34.66796875 736.328125 -34.66796875 768.06640625 -17.08984375 c 0,156,-1
 789.0625 -66.89453125 l 0,157,158
 755.37109375 -84.47265625 755.37109375 -84.47265625 719.23828125 -100.830078125 c 0,159,160
 683.10546875 -117.1875 683.10546875 -117.1875 644.04296875 -129.638671875 c 0,161,162
 604.98046875 -142.08984375 604.98046875 -142.08984375 561.767578125 -149.658203125 c 0,163,164
 518.5546875 -157.2265625 518.5546875 -157.2265625 471.19140625 -157.2265625 c 0,165,166
 412.59765625 -157.2265625 412.59765625 -157.2265625 359.375 -144.775390625 c 0,167,168
 306.15234375 -132.32421875 306.15234375 -132.32421875 260.25390625 -108.3984375 c 0,169,170
 214.35546875 -84.47265625 214.35546875 -84.47265625 177.001953125 -50.29296875 c 0,171,172
 139.6484375 -16.11328125 139.6484375 -16.11328125 113.28125 27.587890625 c 0,173,174
 86.9140625 71.2890625 86.9140625 71.2890625 72.509765625 123.291015625 c 0,175,176
 58.10546875 175.29296875 58.10546875 175.29296875 58.10546875 234.86328125 c 0,177,178
 58.10546875 307.6171875 58.10546875 307.6171875 75.68359375 369.62890625 c 0,179,180
 93.26171875 431.640625 93.26171875 431.640625 124.755859375 481.93359375 c 0,181,182
 156.25 532.2265625 156.25 532.2265625 199.70703125 570.556640625 c 0,183,184
 243.1640625 608.88671875 243.1640625 608.88671875 294.677734375 634.765625 c 0,185,186
 346.19140625 660.64453125 346.19140625 660.64453125 404.052734375 673.828125 c 0,187,188
 461.9140625 687.01171875 461.9140625 687.01171875 521.97265625 687.01171875 c 0,189,190
 603.02734375 687.01171875 603.02734375 687.01171875 668.9453125 665.52734375 c 0,191,192
 734.86328125 644.04296875 734.86328125 644.04296875 781.25 603.271484375 c 0,193,194
 827.63671875 562.5 827.63671875 562.5 852.783203125 503.173828125 c 0,195,196
 877.9296875 443.84765625 877.9296875 443.84765625 877.9296875 368.1640625 c 0,33,34
EndSplineSet
EndChar

StartChar: A
Encoding: 36 65 36
Width: 686
VWidth: 488
Flags: W
LayerCount: 2
Fore
SplineSet
404.78515625 0 m 0,0,-1
 404.78515625 50.78125 l 0,1,-1
 463.8671875 58.10546875 l 0,2,3
 468.75 59.08203125 468.75 59.08203125 472.16796875 64.453125 c 0,4,5
 475.5859375 69.82421875 475.5859375 69.82421875 473.14453125 75.1953125 c 0,6,-1
 418.9453125 233.88671875 l 0,7,-1
 205.078125 233.88671875 l 0,8,-1
 149.90234375 79.1015625 l 0,9,10
 146.97265625 71.2890625 146.97265625 71.2890625 152.83203125 64.94140625 c 0,11,12
 158.69140625 58.59375 158.69140625 58.59375 164.0625 58.10546875 c 0,13,-1
 220.21484375 50.78125 l 0,14,-1
 220.21484375 0 l 0,15,-1
 4.8828125 0 l 0,16,-1
 4.8828125 50.78125 l 0,17,-1
 61.03515625 59.08203125 l 0,18,-1
 285.15625 687.01171875 l 0,19,-1
 398.92578125 687.01171875 l 0,20,-1
 621.09375 77.1484375 l 0,21,22
 625 67.87109375 625 67.87109375 628.662109375 64.208984375 c 0,23,24
 632.32421875 60.546875 632.32421875 60.546875 643.06640625 58.10546875 c 0,25,-1
 681.15234375 50.78125 l 0,26,-1
 681.15234375 0 l 0,27,-1
 404.78515625 0 l 0,0,-1
308.10546875 533.203125 m 0,28,-1
 224.12109375 292.96875 l 0,29,-1
 394.04296875 292.96875 l 0,30,-1
 308.10546875 533.203125 l 0,28,-1
EndSplineSet
EndChar

StartChar: B
Encoding: 37 66 37
Width: 639
VWidth: 488
Flags: W
LayerCount: 2
Fore
SplineSet
416.015625 500 m 0,0,1
 416.015625 521.97265625 416.015625 521.97265625 411.1328125 542.724609375 c 0,2,3
 406.25 563.4765625 406.25 563.4765625 392.333984375 579.58984375 c 0,4,5
 378.41796875 595.703125 378.41796875 595.703125 353.271484375 605.46875 c 0,6,7
 328.125 615.234375 328.125 615.234375 288.0859375 615.234375 c 0,8,-1
 283.203125 615.234375 l 0,9,10
 281.73828125 615.234375 281.73828125 615.234375 278.076171875 614.990234375 c 0,11,12
 274.4140625 614.74609375 274.4140625 614.74609375 267.333984375 614.2578125 c 0,13,14
 260.25390625 613.76953125 260.25390625 613.76953125 247.0703125 612.79296875 c 0,15,-1
 247.0703125 375 l 0,16,17
 252.44140625 374.51171875 252.44140625 374.51171875 257.8125 374.51171875 c 0,18,19
 262.20703125 374.0234375 262.20703125 374.0234375 266.11328125 374.0234375 c 0,20,-1
 271.97265625 374.0234375 l 0,21,22
 314.94140625 374.0234375 314.94140625 374.0234375 342.7734375 383.7890625 c 0,23,24
 370.60546875 393.5546875 370.60546875 393.5546875 386.962890625 410.400390625 c 0,25,26
 403.3203125 427.24609375 403.3203125 427.24609375 409.66796875 450.439453125 c 0,27,28
 416.015625 473.6328125 416.015625 473.6328125 416.015625 500 c 0,0,1
452.1484375 187.98828125 m 0,29,30
 452.1484375 252.44140625 452.1484375 252.44140625 415.0390625 283.69140625 c 0,31,32
 377.9296875 314.94140625 377.9296875 314.94140625 296.875 314.94140625 c 0,33,-1
 278.80859375 314.94140625 l 0,34,35
 268.06640625 314.94140625 268.06640625 314.94140625 247.0703125 313.96484375 c 0,36,-1
 247.0703125 59.08203125 l 0,37,38
 258.30078125 58.59375 258.30078125 58.59375 268.06640625 58.10546875 c 0,39,40
 276.3671875 57.6171875 276.3671875 57.6171875 283.935546875 57.373046875 c 0,41,42
 291.50390625 57.12890625 291.50390625 57.12890625 293.9453125 57.12890625 c 0,43,44
 332.03125 57.12890625 332.03125 57.12890625 361.572265625 63.96484375 c 0,45,46
 391.11328125 70.80078125 391.11328125 70.80078125 411.376953125 86.42578125 c 0,47,48
 431.640625 102.05078125 431.640625 102.05078125 441.89453125 126.953125 c 0,49,50
 452.1484375 151.85546875 452.1484375 151.85546875 452.1484375 187.98828125 c 0,29,30
602.05078125 194.82421875 m 0,51,52
 602.05078125 147.94921875 602.05078125 147.94921875 591.796875 115.478515625 c 0,53,54
 581.54296875 83.0078125 581.54296875 83.0078125 564.208984375 61.279296875 c 0,55,56
 546.875 39.55078125 546.875 39.55078125 523.681640625 27.34375 c 0,57,58
 500.48828125 15.13671875 500.48828125 15.13671875 474.853515625 9.033203125 c 0,59,60
 449.21875 2.9296875 449.21875 2.9296875 422.607421875 1.46484375 c 0,61,62
 395.99609375 0 395.99609375 0 371.09375 0 c 0,63,-1
 27.83203125 0 l 0,64,-1
 27.83203125 50.78125 l 0,65,-1
 82.03125 56.15234375 l 0,66,67
 91.30859375 57.12890625 91.30859375 57.12890625 97.65625 62.744140625 c 0,68,69
 104.00390625 68.359375 104.00390625 68.359375 104.00390625 78.125 c 0,70,-1
 104.00390625 592.7734375 l 0,71,72
 104.00390625 602.5390625 104.00390625 602.5390625 97.65625 608.3984375 c 0,73,74
 91.30859375 614.2578125 91.30859375 614.2578125 82.03125 615.234375 c 0,75,-1
 27.83203125 620.1171875 l 0,76,-1
 27.83203125 670.8984375 l 0,77,-1
 350.09765625 670.8984375 l 0,78,79
 368.1640625 670.8984375 368.1640625 670.8984375 390.869140625 669.189453125 c 0,80,81
 413.57421875 667.48046875 413.57421875 667.48046875 437.255859375 661.865234375 c 0,82,83
 460.9375 656.25 460.9375 656.25 483.3984375 645.99609375 c 0,84,85
 505.859375 635.7421875 505.859375 635.7421875 523.681640625 618.408203125 c 0,86,87
 541.50390625 601.07421875 541.50390625 601.07421875 552.24609375 575.927734375 c 0,88,89
 562.98828125 550.78125 562.98828125 550.78125 562.98828125 516.11328125 c 0,90,91
 562.98828125 485.83984375 562.98828125 485.83984375 554.6875 462.890625 c 0,92,93
 546.38671875 439.94140625 546.38671875 439.94140625 533.203125 422.8515625 c 0,94,95
 520.01953125 405.76171875 520.01953125 405.76171875 503.90625 394.04296875 c 0,96,97
 487.79296875 382.32421875 487.79296875 382.32421875 471.923828125 374.51171875 c 0,98,99
 456.0546875 366.69921875 456.0546875 366.69921875 442.3828125 362.548828125 c 0,100,101
 428.7109375 358.3984375 428.7109375 358.3984375 421.38671875 356.93359375 c 0,102,103
 439.453125 356.4453125 439.453125 356.4453125 460.205078125 353.515625 c 0,104,105
 480.95703125 350.5859375 480.95703125 350.5859375 500.9765625 343.505859375 c 0,106,107
 520.99609375 336.42578125 520.99609375 336.42578125 539.306640625 324.70703125 c 0,108,109
 557.6171875 312.98828125 557.6171875 312.98828125 571.533203125 295.166015625 c 0,110,111
 585.44921875 277.34375 585.44921875 277.34375 593.75 252.685546875 c 0,112,113
 602.05078125 228.02734375 602.05078125 228.02734375 602.05078125 194.82421875 c 0,51,52
EndSplineSet
EndChar

StartChar: C
Encoding: 38 67 38
Width: 636
VWidth: 488
Flags: W
LayerCount: 2
Fore
SplineSet
600.09765625 23.92578125 m 0,0,1
 590.8203125 20.01953125 590.8203125 20.01953125 571.044921875 13.427734375 c 0,2,3
 551.26953125 6.8359375 551.26953125 6.8359375 523.4375 0.244140625 c 0,4,5
 495.60546875 -6.34765625 495.60546875 -6.34765625 461.181640625 -11.23046875 c 0,6,7
 426.7578125 -16.11328125 426.7578125 -16.11328125 388.18359375 -16.11328125 c 0,8,9
 336.9140625 -16.11328125 336.9140625 -16.11328125 291.015625 -4.39453125 c 0,10,11
 245.1171875 7.32421875 245.1171875 7.32421875 206.0546875 29.296875 c 0,12,13
 166.9921875 51.26953125 166.9921875 51.26953125 135.7421875 82.51953125 c 0,14,15
 104.4921875 113.76953125 104.4921875 113.76953125 82.51953125 153.076171875 c 0,16,17
 60.546875 192.3828125 60.546875 192.3828125 48.828125 238.525390625 c 0,18,19
 37.109375 284.66796875 37.109375 284.66796875 37.109375 335.9375 c 0,20,21
 37.109375 414.0625 37.109375 414.0625 64.208984375 478.515625 c 0,22,23
 91.30859375 542.96875 91.30859375 542.96875 138.671875 589.35546875 c 0,24,25
 186.03515625 635.7421875 186.03515625 635.7421875 250.48828125 661.376953125 c 0,26,27
 314.94140625 687.01171875 314.94140625 687.01171875 389.16015625 687.01171875 c 0,28,29
 417.48046875 687.01171875 417.48046875 687.01171875 440.91796875 684.5703125 c 0,30,31
 464.35546875 682.12890625 464.35546875 682.12890625 488.037109375 677.001953125 c 0,32,33
 511.71875 671.875 511.71875 671.875 538.330078125 664.0625 c 0,34,35
 564.94140625 656.25 564.94140625 656.25 600.09765625 645.01953125 c 0,36,-1
 600.09765625 475.09765625 l 0,37,-1
 521.97265625 475.09765625 l 0,38,-1
 500 586.9140625 l 0,39,40
 500 589.35546875 500 589.35546875 496.09375 594.970703125 c 0,41,42
 492.1875 600.5859375 492.1875 600.5859375 486.81640625 603.02734375 c 0,43,44
 482.91015625 604.98046875 482.91015625 604.98046875 474.853515625 607.666015625 c 0,45,46
 466.796875 610.3515625 466.796875 610.3515625 456.787109375 612.79296875 c 0,47,48
 446.77734375 615.234375 446.77734375 615.234375 436.03515625 617.1875 c 0,49,50
 425.29296875 619.140625 425.29296875 619.140625 416.015625 619.140625 c 0,51,52
 364.74609375 619.140625 364.74609375 619.140625 323.486328125 598.876953125 c 0,53,54
 282.2265625 578.61328125 282.2265625 578.61328125 253.41796875 541.259765625 c 0,55,56
 224.609375 503.90625 224.609375 503.90625 209.228515625 451.416015625 c 0,57,58
 193.84765625 398.92578125 193.84765625 398.92578125 193.84765625 333.984375 c 0,59,60
 193.84765625 298.828125 193.84765625 298.828125 199.21875 264.16015625 c 0,61,62
 204.58984375 229.4921875 204.58984375 229.4921875 216.064453125 197.75390625 c 0,63,64
 227.5390625 166.015625 227.5390625 166.015625 245.849609375 138.916015625 c 0,65,66
 264.16015625 111.81640625 264.16015625 111.81640625 289.55078125 91.796875 c 0,67,68
 314.94140625 71.77734375 314.94140625 71.77734375 348.388671875 60.302734375 c 0,69,70
 381.8359375 48.828125 381.8359375 48.828125 423.828125 48.828125 c 0,71,72
 442.3828125 48.828125 442.3828125 48.828125 458.0078125 53.466796875 c 0,73,74
 473.6328125 58.10546875 473.6328125 58.10546875 481.93359375 62.01171875 c 0,75,76
 485.83984375 63.4765625 485.83984375 63.4765625 491.69921875 70.068359375 c 0,77,78
 497.55859375 76.66015625 497.55859375 76.66015625 499.0234375 81.0546875 c 0,79,-1
 520.99609375 199.21875 l 0,80,-1
 600.09765625 199.21875 l 0,81,-1
 600.09765625 23.92578125 l 0,0,1
EndSplineSet
EndChar

StartChar: D
Encoding: 39 68 39
Width: 724
VWidth: 488
Flags: W
LayerCount: 2
Fore
SplineSet
687.01171875 342.7734375 m 0,0,1
 687.01171875 256.8359375 687.01171875 256.8359375 662.353515625 192.626953125 c 0,2,3
 637.6953125 128.41796875 637.6953125 128.41796875 592.041015625 85.44921875 c 0,4,5
 546.38671875 42.48046875 546.38671875 42.48046875 481.93359375 21.240234375 c 0,6,7
 417.48046875 0 417.48046875 0 337.890625 0 c 0,8,-1
 25.87890625 0 l 0,9,-1
 25.87890625 50.78125 l 0,10,-1
 81.0546875 56.15234375 l 0,11,12
 89.84375 57.12890625 89.84375 57.12890625 96.923828125 62.744140625 c 0,13,14
 104.00390625 68.359375 104.00390625 68.359375 104.00390625 78.125 c 0,15,-1
 104.00390625 592.7734375 l 0,16,17
 104.00390625 602.5390625 104.00390625 602.5390625 96.923828125 608.3984375 c 0,18,19
 89.84375 614.2578125 89.84375 614.2578125 81.0546875 615.234375 c 0,20,-1
 25.87890625 620.1171875 l 0,21,-1
 25.87890625 670.8984375 l 0,22,-1
 332.03125 670.8984375 l 0,23,24
 417.48046875 670.8984375 417.48046875 670.8984375 483.642578125 646.97265625 c 0,25,26
 549.8046875 623.046875 549.8046875 623.046875 594.970703125 579.833984375 c 0,27,28
 640.13671875 536.62109375 640.13671875 536.62109375 663.57421875 476.318359375 c 0,29,30
 687.01171875 416.015625 687.01171875 416.015625 687.01171875 342.7734375 c 0,0,1
525.87890625 332.03125 m 0,31,32
 525.87890625 389.6484375 525.87890625 389.6484375 517.08984375 432.861328125 c 0,33,34
 508.30078125 476.07421875 508.30078125 476.07421875 492.919921875 507.080078125 c 0,35,36
 477.5390625 538.0859375 477.5390625 538.0859375 456.54296875 558.59375 c 0,37,38
 435.546875 579.1015625 435.546875 579.1015625 411.62109375 591.064453125 c 0,39,40
 387.6953125 603.02734375 387.6953125 603.02734375 361.81640625 607.91015625 c 0,41,42
 335.9375 612.79296875 335.9375 612.79296875 310.05859375 612.79296875 c 0,43,-1
 247.0703125 612.79296875 l 0,44,-1
 247.0703125 59.08203125 l 0,45,-1
 330.078125 61.03515625 l 0,46,47
 351.5625 61.5234375 351.5625 61.5234375 374.51171875 66.89453125 c 0,48,49
 397.4609375 72.265625 397.4609375 72.265625 419.189453125 84.47265625 c 0,50,51
 440.91796875 96.6796875 440.91796875 96.6796875 460.205078125 116.943359375 c 0,52,53
 479.4921875 137.20703125 479.4921875 137.20703125 494.140625 167.236328125 c 0,54,55
 508.7890625 197.265625 508.7890625 197.265625 517.333984375 238.037109375 c 0,56,57
 525.87890625 278.80859375 525.87890625 278.80859375 525.87890625 332.03125 c 0,31,32
EndSplineSet
EndChar

StartChar: E
Encoding: 40 69 40
Width: 598
VWidth: 488
Flags: W
LayerCount: 2
Fore
SplineSet
25.87890625 0 m 0,0,-1
 25.87890625 50.78125 l 0,1,-1
 81.0546875 56.15234375 l 0,2,3
 89.84375 57.12890625 89.84375 57.12890625 96.923828125 62.744140625 c 0,4,5
 104.00390625 68.359375 104.00390625 68.359375 104.00390625 78.125 c 0,6,-1
 104.00390625 592.7734375 l 0,7,8
 104.00390625 602.5390625 104.00390625 602.5390625 96.923828125 608.3984375 c 0,9,10
 89.84375 614.2578125 89.84375 614.2578125 81.0546875 615.234375 c 0,11,-1
 25.87890625 620.1171875 l 0,12,-1
 25.87890625 670.8984375 l 0,13,-1
 536.1328125 670.8984375 l 0,14,-1
 536.1328125 511.23046875 l 0,15,-1
 463.8671875 511.23046875 l 0,16,-1
 448.2421875 594.23828125 l 0,17,18
 446.2890625 601.5625 446.2890625 601.5625 441.650390625 607.177734375 c 0,19,20
 437.01171875 612.79296875 437.01171875 612.79296875 430.17578125 612.79296875 c 0,21,-1
 244.140625 612.79296875 l 0,22,-1
 244.140625 377.9296875 l 0,23,-1
 362.79296875 377.9296875 l 0,24,25
 369.62890625 377.9296875 369.62890625 377.9296875 374.267578125 384.27734375 c 0,26,27
 378.90625 390.625 378.90625 390.625 379.8828125 395.99609375 c 0,28,-1
 389.16015625 463.8671875 l 0,29,-1
 451.171875 463.8671875 l 0,30,-1
 451.171875 229.00390625 l 0,31,-1
 389.16015625 229.00390625 l 0,32,-1
 379.8828125 296.875 l 0,33,34
 378.90625 302.24609375 378.90625 302.24609375 374.267578125 308.59375 c 0,35,36
 369.62890625 314.94140625 369.62890625 314.94140625 362.79296875 314.94140625 c 0,37,-1
 244.140625 314.94140625 l 0,38,-1
 244.140625 60.05859375 l 0,39,-1
 461.9140625 60.05859375 l 0,40,41
 468.26171875 60.05859375 468.26171875 60.05859375 473.6328125 66.89453125 c 0,42,43
 479.00390625 73.73046875 479.00390625 73.73046875 479.98046875 79.1015625 c 0,44,-1
 495.1171875 183.10546875 l 0,45,-1
 567.87109375 183.10546875 l 0,46,-1
 567.87109375 0 l 0,47,-1
 25.87890625 0 l 0,0,-1
EndSplineSet
EndChar

StartChar: F
Encoding: 41 70 41
Width: 559
VWidth: 488
Flags: W
LayerCount: 2
Fore
SplineSet
459.9609375 500 m 0,0,-1
 445.80078125 590.8203125 l 0,1,2
 444.3359375 598.6328125 444.3359375 598.6328125 439.697265625 604.248046875 c 0,3,4
 435.05859375 609.86328125 435.05859375 609.86328125 428.22265625 609.86328125 c 0,5,-1
 247.0703125 609.86328125 l 0,6,-1
 247.0703125 363.76953125 l 0,7,-1
 371.09375 363.76953125 l 0,8,9
 377.9296875 363.76953125 377.9296875 363.76953125 382.568359375 370.1171875 c 0,10,11
 387.20703125 376.46484375 387.20703125 376.46484375 388.18359375 381.8359375 c 0,12,-1
 397.94921875 450.1953125 l 0,13,-1
 459.9609375 450.1953125 l 0,14,-1
 459.9609375 213.8671875 l 0,15,-1
 397.94921875 213.8671875 l 0,16,-1
 388.18359375 282.2265625 l 0,17,18
 387.20703125 287.59765625 387.20703125 287.59765625 382.080078125 293.701171875 c 0,19,20
 376.953125 299.8046875 376.953125 299.8046875 371.09375 299.8046875 c 0,21,-1
 247.0703125 299.8046875 l 0,22,-1
 247.0703125 78.125 l 0,23,24
 247.0703125 68.359375 247.0703125 68.359375 253.41796875 62.744140625 c 0,25,26
 259.765625 57.12890625 259.765625 57.12890625 269.04296875 56.15234375 c 0,27,-1
 333.984375 50.78125 l 0,28,-1
 333.984375 0 l 0,29,-1
 26.85546875 0 l 0,30,-1
 26.85546875 50.78125 l 0,31,-1
 81.0546875 56.15234375 l 0,32,33
 89.84375 57.12890625 89.84375 57.12890625 96.923828125 62.744140625 c 0,34,35
 104.00390625 68.359375 104.00390625 68.359375 104.00390625 78.125 c 0,36,-1
 104.00390625 592.7734375 l 0,37,38
 104.00390625 602.5390625 104.00390625 602.5390625 96.923828125 608.3984375 c 0,39,40
 89.84375 614.2578125 89.84375 614.2578125 81.0546875 615.234375 c 0,41,-1
 23.92578125 620.1171875 l 0,42,-1
 23.92578125 670.8984375 l 0,43,-1
 532.2265625 670.8984375 l 0,44,-1
 532.2265625 500 l 0,45,-1
 459.9609375 500 l 0,0,-1
EndSplineSet
EndChar

StartChar: G
Encoding: 42 71 42
Width: 715
VWidth: 488
Flags: W
LayerCount: 2
Fore
SplineSet
642.08984375 275.87890625 m 0,0,1
 632.8125 274.90234375 632.8125 274.90234375 625.9765625 269.287109375 c 0,2,3
 619.140625 263.671875 619.140625 263.671875 619.140625 253.90625 c 0,4,-1
 619.140625 30.76171875 l 0,5,6
 589.35546875 17.578125 589.35546875 17.578125 553.22265625 7.32421875 c 0,7,8
 521.97265625 -1.46484375 521.97265625 -1.46484375 479.736328125 -8.7890625 c 0,9,10
 437.5 -16.11328125 437.5 -16.11328125 387.20703125 -16.11328125 c 0,11,12
 312.01171875 -16.11328125 312.01171875 -16.11328125 248.046875 9.033203125 c 0,13,14
 184.08203125 34.1796875 184.08203125 34.1796875 137.20703125 80.56640625 c 0,15,16
 90.33203125 126.953125 90.33203125 126.953125 63.720703125 191.89453125 c 0,17,18
 37.109375 256.8359375 37.109375 256.8359375 37.109375 336.9140625 c 0,19,20
 37.109375 417.96875 37.109375 417.96875 63.96484375 482.91015625 c 0,21,22
 90.8203125 547.8515625 90.8203125 547.8515625 138.427734375 593.26171875 c 0,23,24
 186.03515625 638.671875 186.03515625 638.671875 251.708984375 662.841796875 c 0,25,26
 317.3828125 687.01171875 317.3828125 687.01171875 395.01953125 687.01171875 c 0,27,28
 444.3359375 687.01171875 444.3359375 687.01171875 485.3515625 680.908203125 c 0,29,30
 526.3671875 674.8046875 526.3671875 674.8046875 556.640625 667.48046875 c 0,31,32
 591.796875 658.69140625 591.796875 658.69140625 620.1171875 647.94921875 c 0,33,-1
 620.1171875 475.09765625 l 0,34,-1
 541.9921875 475.09765625 l 0,35,-1
 521.97265625 583.0078125 l 0,36,37
 520.99609375 588.37890625 520.99609375 588.37890625 515.625 594.970703125 c 0,38,39
 510.25390625 601.5625 510.25390625 601.5625 503.90625 604.00390625 c 0,40,41
 480.46875 612.79296875 480.46875 612.79296875 460.44921875 616.943359375 c 0,42,43
 440.4296875 621.09375 440.4296875 621.09375 432.12890625 621.09375 c 0,44,45
 388.671875 621.09375 388.671875 621.09375 353.759765625 610.107421875 c 0,46,47
 318.84765625 599.12109375 318.84765625 599.12109375 292.236328125 579.833984375 c 0,48,49
 265.625 560.546875 265.625 560.546875 246.58203125 534.1796875 c 0,50,51
 227.5390625 507.8125 227.5390625 507.8125 215.33203125 476.5625 c 0,52,53
 203.125 445.3125 203.125 445.3125 197.509765625 410.888671875 c 0,54,55
 191.89453125 376.46484375 191.89453125 376.46484375 191.89453125 340.8203125 c 0,56,57
 191.89453125 276.3671875 191.89453125 276.3671875 208.0078125 224.365234375 c 0,58,59
 224.12109375 172.36328125 224.12109375 172.36328125 255.126953125 135.498046875 c 0,60,61
 286.1328125 98.6328125 286.1328125 98.6328125 331.54296875 78.857421875 c 0,62,63
 376.953125 59.08203125 376.953125 59.08203125 436.03515625 59.08203125 c 0,64,65
 442.87109375 59.08203125 442.87109375 59.08203125 452.880859375 58.349609375 c 0,66,67
 462.890625 57.6171875 462.890625 57.6171875 480.95703125 59.08203125 c 0,68,-1
 480.95703125 253.90625 l 0,69,70
 480.95703125 263.671875 480.95703125 263.671875 474.12109375 269.775390625 c 0,71,72
 467.28515625 275.87890625 467.28515625 275.87890625 458.0078125 275.87890625 c 0,73,-1
 391.11328125 280.76171875 l 0,74,-1
 391.11328125 332.03125 l 0,75,-1
 692.87109375 332.03125 l 0,76,-1
 692.87109375 280.76171875 l 0,77,-1
 642.08984375 275.87890625 l 0,0,1
EndSplineSet
EndChar

StartChar: H
Encoding: 43 72 43
Width: 769
VWidth: 488
Flags: W
LayerCount: 2
Fore
SplineSet
448.2421875 0 m 0,0,-1
 448.2421875 50.78125 l 0,1,-1
 500 56.15234375 l 0,2,3
 509.27734375 57.12890625 509.27734375 57.12890625 515.625 62.744140625 c 0,4,5
 521.97265625 68.359375 521.97265625 68.359375 521.97265625 78.125 c 0,6,-1
 521.97265625 319.82421875 l 0,7,-1
 247.0703125 319.82421875 l 0,8,-1
 247.0703125 78.125 l 0,9,10
 247.0703125 68.359375 247.0703125 68.359375 253.41796875 62.744140625 c 0,11,12
 259.765625 57.12890625 259.765625 57.12890625 269.04296875 56.15234375 c 0,13,-1
 321.77734375 50.78125 l 0,14,-1
 321.77734375 0 l 0,15,-1
 29.78515625 0 l 0,16,-1
 29.78515625 50.78125 l 0,17,-1
 82.03125 56.15234375 l 0,18,19
 91.30859375 57.12890625 91.30859375 57.12890625 97.65625 62.744140625 c 0,20,21
 104.00390625 68.359375 104.00390625 68.359375 104.00390625 78.125 c 0,22,-1
 104.00390625 592.7734375 l 0,23,24
 104.00390625 602.5390625 104.00390625 602.5390625 97.65625 608.3984375 c 0,25,26
 91.30859375 614.2578125 91.30859375 614.2578125 82.03125 615.234375 c 0,27,-1
 29.78515625 620.1171875 l 0,28,-1
 29.78515625 670.8984375 l 0,29,-1
 321.77734375 670.8984375 l 0,30,-1
 321.77734375 620.1171875 l 0,31,-1
 269.04296875 615.234375 l 0,32,33
 259.765625 614.2578125 259.765625 614.2578125 253.41796875 608.3984375 c 0,34,35
 247.0703125 602.5390625 247.0703125 602.5390625 247.0703125 592.7734375 c 0,36,-1
 247.0703125 383.7890625 l 0,37,-1
 521.97265625 383.7890625 l 0,38,-1
 521.97265625 592.7734375 l 0,39,40
 521.97265625 602.5390625 521.97265625 602.5390625 515.625 608.3984375 c 0,41,42
 509.27734375 614.2578125 509.27734375 614.2578125 500 615.234375 c 0,43,-1
 448.2421875 620.1171875 l 0,44,-1
 448.2421875 670.8984375 l 0,45,-1
 738.76953125 670.8984375 l 0,46,-1
 738.76953125 620.1171875 l 0,47,-1
 687.01171875 615.234375 l 0,48,49
 678.7109375 614.2578125 678.7109375 614.2578125 671.875 608.3984375 c 0,50,51
 665.0390625 602.5390625 665.0390625 602.5390625 665.0390625 592.7734375 c 0,52,-1
 665.0390625 78.125 l 0,53,54
 665.0390625 68.359375 665.0390625 68.359375 671.38671875 62.744140625 c 0,55,56
 677.734375 57.12890625 677.734375 57.12890625 687.01171875 56.15234375 c 0,57,-1
 738.76953125 50.78125 l 0,58,-1
 738.76953125 0 l 0,59,-1
 448.2421875 0 l 0,0,-1
EndSplineSet
EndChar

StartChar: I
Encoding: 44 73 44
Width: 358
VWidth: 488
Flags: W
LayerCount: 2
Fore
SplineSet
22.94921875 0 m 0,0,-1
 22.94921875 50.78125 l 0,1,-1
 84.9609375 56.15234375 l 0,2,3
 94.23828125 57.12890625 94.23828125 57.12890625 100.5859375 62.744140625 c 0,4,5
 106.93359375 68.359375 106.93359375 68.359375 106.93359375 78.125 c 0,6,-1
 106.93359375 592.7734375 l 0,7,8
 106.93359375 602.5390625 106.93359375 602.5390625 100.5859375 608.3984375 c 0,9,10
 94.23828125 614.2578125 94.23828125 614.2578125 84.9609375 615.234375 c 0,11,-1
 22.94921875 620.1171875 l 0,12,-1
 22.94921875 670.8984375 l 0,13,-1
 334.9609375 670.8984375 l 0,14,-1
 334.9609375 620.1171875 l 0,15,-1
 272.94921875 615.234375 l 0,16,17
 264.6484375 614.2578125 264.6484375 614.2578125 257.32421875 608.3984375 c 0,18,19
 250 602.5390625 250 602.5390625 250 592.7734375 c 0,20,-1
 250 78.125 l 0,21,22
 250 68.359375 250 68.359375 257.32421875 62.744140625 c 0,23,24
 264.6484375 57.12890625 264.6484375 57.12890625 272.94921875 56.15234375 c 0,25,-1
 334.9609375 50.78125 l 0,26,-1
 334.9609375 0 l 0,27,-1
 22.94921875 0 l 0,0,-1
EndSplineSet
EndChar

StartChar: J
Encoding: 45 74 45
Width: 512
VWidth: 488
Flags: W
LayerCount: 2
Fore
SplineSet
429.19921875 615.234375 m 0,0,1
 419.921875 614.2578125 419.921875 614.2578125 413.57421875 608.3984375 c 0,2,3
 407.2265625 602.5390625 407.2265625 602.5390625 407.2265625 592.7734375 c 0,4,-1
 407.2265625 242.1875 l 0,5,6
 407.2265625 184.08203125 407.2265625 184.08203125 393.5546875 136.71875 c 0,7,8
 379.8828125 89.35546875 379.8828125 89.35546875 351.318359375 55.17578125 c 0,9,10
 322.75390625 20.99609375 322.75390625 20.99609375 278.564453125 2.44140625 c 0,11,12
 234.375 -16.11328125 234.375 -16.11328125 172.8515625 -16.11328125 c 0,13,14
 152.34375 -16.11328125 152.34375 -16.11328125 130.859375 -13.18359375 c 0,15,16
 109.375 -10.25390625 109.375 -10.25390625 89.599609375 -6.103515625 c 0,17,18
 69.82421875 -1.953125 69.82421875 -1.953125 52.734375 2.9296875 c 0,19,20
 35.64453125 7.8125 35.64453125 7.8125 23.92578125 12.20703125 c 0,21,-1
 23.92578125 194.82421875 l 0,22,-1
 102.05078125 194.82421875 l 0,23,-1
 125 61.03515625 l 0,24,25
 126.46484375 56.15234375 126.46484375 56.15234375 129.8828125 52.24609375 c 0,26,27
 132.8125 48.828125 132.8125 48.828125 137.6953125 46.38671875 c 0,28,29
 142.578125 43.9453125 142.578125 43.9453125 150.87890625 43.9453125 c 0,30,31
 178.7109375 43.9453125 178.7109375 43.9453125 199.951171875 54.19921875 c 0,32,33
 221.19140625 64.453125 221.19140625 64.453125 235.83984375 87.890625 c 0,34,35
 250.48828125 111.328125 250.48828125 111.328125 257.8125 149.90234375 c 0,36,37
 265.13671875 188.4765625 265.13671875 188.4765625 265.13671875 245.1171875 c 0,38,-1
 265.13671875 592.7734375 l 0,39,40
 265.13671875 602.5390625 265.13671875 602.5390625 258.30078125 608.3984375 c 0,41,42
 251.46484375 614.2578125 251.46484375 614.2578125 243.1640625 615.234375 c 0,43,-1
 181.15234375 620.1171875 l 0,44,-1
 181.15234375 670.8984375 l 0,45,-1
 490.234375 670.8984375 l 0,46,-1
 490.234375 620.1171875 l 0,47,-1
 429.19921875 615.234375 l 0,0,1
EndSplineSet
EndChar

StartChar: K
Encoding: 46 75 46
Width: 682
VWidth: 488
Flags: W
LayerCount: 2
Fore
SplineSet
464.84375 0 m 0,0,-1
 464.84375 37.109375 l 0,1,-1
 301.7578125 292.96875 l 0,2,-1
 247.0703125 292.96875 l 0,3,-1
 247.0703125 78.125 l 0,4,5
 247.0703125 68.359375 247.0703125 68.359375 253.41796875 62.744140625 c 0,6,7
 259.765625 57.12890625 259.765625 57.12890625 269.04296875 56.15234375 c 0,8,-1
 321.77734375 50.78125 l 0,9,-1
 321.77734375 0 l 0,10,-1
 28.80859375 0 l 0,11,-1
 28.80859375 50.78125 l 0,12,-1
 82.03125 56.15234375 l 0,13,14
 91.30859375 57.12890625 91.30859375 57.12890625 97.65625 62.744140625 c 0,15,16
 104.00390625 68.359375 104.00390625 68.359375 104.00390625 78.125 c 0,17,-1
 104.00390625 592.7734375 l 0,18,19
 104.00390625 602.5390625 104.00390625 602.5390625 97.65625 608.3984375 c 0,20,21
 91.30859375 614.2578125 91.30859375 614.2578125 82.03125 615.234375 c 0,22,-1
 28.80859375 620.1171875 l 0,23,-1
 28.80859375 670.8984375 l 0,24,-1
 321.77734375 670.8984375 l 0,25,-1
 321.77734375 620.1171875 l 0,26,-1
 269.04296875 615.234375 l 0,27,28
 259.765625 614.2578125 259.765625 614.2578125 253.41796875 608.3984375 c 0,29,30
 247.0703125 602.5390625 247.0703125 602.5390625 247.0703125 592.7734375 c 0,31,-1
 247.0703125 340.8203125 l 0,32,-1
 274.90234375 340.8203125 l 0,33,-1
 490.234375 603.02734375 l 0,34,35
 492.67578125 605.95703125 492.67578125 605.95703125 491.455078125 610.595703125 c 0,36,37
 490.234375 615.234375 490.234375 615.234375 484.86328125 615.234375 c 0,38,-1
 428.22265625 620.1171875 l 0,39,-1
 428.22265625 670.8984375 l 0,40,-1
 657.2265625 670.8984375 l 0,41,-1
 657.2265625 620.1171875 l 0,42,43
 646.484375 619.140625 646.484375 619.140625 634.27734375 618.1640625 c 0,44,45
 624.0234375 617.1875 624.0234375 617.1875 611.572265625 615.966796875 c 0,46,47
 599.12109375 614.74609375 599.12109375 614.74609375 586.9140625 613.76953125 c 0,48,-1
 400.87890625 392.08984375 l 0,49,-1
 610.83984375 57.12890625 l 0,50,-1
 682.12890625 50.78125 l 0,51,-1
 682.12890625 0 l 0,52,-1
 464.84375 0 l 0,0,-1
EndSplineSet
EndChar

StartChar: L
Encoding: 47 76 47
Width: 554
VWidth: 488
Flags: W
LayerCount: 2
Fore
SplineSet
26.85546875 0 m 0,0,-1
 26.85546875 50.78125 l 0,1,-1
 82.03125 56.15234375 l 0,2,3
 91.30859375 57.12890625 91.30859375 57.12890625 97.65625 62.744140625 c 0,4,5
 104.00390625 68.359375 104.00390625 68.359375 104.00390625 78.125 c 0,6,-1
 104.00390625 592.7734375 l 0,7,8
 104.00390625 602.5390625 104.00390625 602.5390625 97.65625 608.3984375 c 0,9,10
 91.30859375 614.2578125 91.30859375 614.2578125 82.03125 615.234375 c 0,11,-1
 26.85546875 620.1171875 l 0,12,-1
 26.85546875 670.8984375 l 0,13,-1
 325.1953125 670.8984375 l 0,14,-1
 325.1953125 620.1171875 l 0,15,-1
 269.04296875 615.234375 l 0,16,17
 259.765625 614.2578125 259.765625 614.2578125 253.41796875 608.3984375 c 0,18,19
 247.0703125 602.5390625 247.0703125 602.5390625 247.0703125 592.7734375 c 0,20,-1
 247.0703125 61.03515625 l 0,21,-1
 420.8984375 61.03515625 l 0,22,23
 426.26953125 61.03515625 426.26953125 61.03515625 430.419921875 63.4765625 c 0,24,25
 434.5703125 65.91796875 434.5703125 65.91796875 437.744140625 69.580078125 c 0,26,27
 440.91796875 73.2421875 440.91796875 73.2421875 442.626953125 77.1484375 c 0,28,29
 444.3359375 81.0546875 444.3359375 81.0546875 444.82421875 83.984375 c 0,30,-1
 458.0078125 199.21875 l 0,31,-1
 538.0859375 199.21875 l 0,32,-1
 538.0859375 0 l 0,33,-1
 26.85546875 0 l 0,0,-1
EndSplineSet
EndChar

StartChar: M
Encoding: 48 77 48
Width: 902
VWidth: 488
Flags: W
LayerCount: 2
Fore
SplineSet
583.984375 0 m 0,0,-1
 583.984375 50.78125 l 0,1,-1
 632.8125 56.15234375 l 0,2,3
 641.11328125 57.12890625 641.11328125 57.12890625 647.94921875 62.744140625 c 0,4,5
 654.78515625 68.359375 654.78515625 68.359375 654.78515625 78.125 c 0,6,-1
 654.78515625 603.02734375 l 0,7,-1
 454.1015625 0 l 0,8,-1
 376.953125 0 l 0,9,-1
 180.17578125 599.12109375 l 0,10,-1
 180.17578125 78.125 l 0,11,12
 180.17578125 68.359375 180.17578125 68.359375 187.01171875 62.744140625 c 0,13,14
 193.84765625 57.12890625 193.84765625 57.12890625 202.1484375 56.15234375 c 0,15,-1
 255.859375 50.78125 l 0,16,-1
 255.859375 0 l 0,17,-1
 24.90234375 0 l 0,18,-1
 24.90234375 50.78125 l 0,19,-1
 81.0546875 56.15234375 l 0,20,21
 89.84375 57.12890625 89.84375 57.12890625 96.923828125 62.744140625 c 0,22,23
 104.00390625 68.359375 104.00390625 68.359375 104.00390625 78.125 c 0,24,-1
 104.00390625 592.7734375 l 0,25,26
 104.00390625 602.5390625 104.00390625 602.5390625 96.923828125 608.3984375 c 0,27,28
 89.84375 614.2578125 89.84375 614.2578125 81.0546875 615.234375 c 0,29,-1
 24.90234375 620.1171875 l 0,30,-1
 24.90234375 670.8984375 l 0,31,-1
 312.01171875 670.8984375 l 0,32,-1
 312.01171875 643.06640625 l 0,33,-1
 453.125 214.84375 l 0,34,-1
 592.7734375 643.06640625 l 0,35,-1
 592.7734375 670.8984375 l 0,36,-1
 876.953125 670.8984375 l 0,37,-1
 876.953125 620.1171875 l 0,38,-1
 819.82421875 615.234375 l 0,39,40
 811.03515625 614.2578125 811.03515625 614.2578125 804.443359375 608.3984375 c 0,41,42
 797.8515625 602.5390625 797.8515625 602.5390625 797.8515625 592.7734375 c 0,43,-1
 797.8515625 78.125 l 0,44,45
 797.8515625 68.359375 797.8515625 68.359375 804.443359375 62.744140625 c 0,46,47
 811.03515625 57.12890625 811.03515625 57.12890625 819.82421875 56.15234375 c 0,48,-1
 876.953125 50.78125 l 0,49,-1
 876.953125 0 l 0,50,-1
 583.984375 0 l 0,0,-1
EndSplineSet
EndChar

StartChar: N
Encoding: 49 78 49
Width: 744
VWidth: 488
Flags: W
LayerCount: 2
Fore
SplineSet
661.1328125 615.234375 m 0,0,1
 652.83203125 614.2578125 652.83203125 614.2578125 645.99609375 608.3984375 c 0,2,3
 639.16015625 602.5390625 639.16015625 602.5390625 639.16015625 592.7734375 c 0,4,-1
 639.16015625 0 l 0,5,-1
 517.08984375 0 l 0,6,-1
 180.17578125 528.80859375 l 0,7,-1
 180.17578125 78.125 l 0,8,9
 180.17578125 68.359375 180.17578125 68.359375 187.01171875 62.744140625 c 0,10,11
 193.84765625 57.12890625 193.84765625 57.12890625 202.1484375 56.15234375 c 0,12,-1
 257.8125 50.78125 l 0,13,-1
 257.8125 0 l 0,14,-1
 26.85546875 0 l 0,15,-1
 26.85546875 50.78125 l 0,16,-1
 82.03125 56.15234375 l 0,17,18
 91.30859375 57.12890625 91.30859375 57.12890625 97.65625 62.744140625 c 0,19,20
 104.00390625 68.359375 104.00390625 68.359375 104.00390625 78.125 c 0,21,-1
 104.00390625 592.7734375 l 0,22,23
 104.00390625 602.5390625 104.00390625 602.5390625 97.65625 608.3984375 c 0,24,25
 91.30859375 614.2578125 91.30859375 614.2578125 82.03125 615.234375 c 0,26,-1
 27.83203125 620.1171875 l 0,27,-1
 27.83203125 670.8984375 l 0,28,-1
 274.90234375 670.8984375 l 0,29,-1
 274.90234375 644.04296875 l 0,30,-1
 562.98828125 192.87109375 l 0,31,-1
 562.98828125 592.7734375 l 0,32,33
 562.98828125 602.5390625 562.98828125 602.5390625 555.908203125 608.3984375 c 0,34,35
 548.828125 614.2578125 548.828125 614.2578125 540.0390625 615.234375 c 0,36,-1
 482.91015625 620.1171875 l 0,37,-1
 482.91015625 670.8984375 l 0,38,-1
 714.84375 670.8984375 l 0,39,-1
 714.84375 620.1171875 l 0,40,-1
 661.1328125 615.234375 l 0,0,1
EndSplineSet
EndChar

StartChar: O
Encoding: 50 79 50
Width: 755
VWidth: 488
Flags: W
LayerCount: 2
Fore
SplineSet
720.21484375 332.03125 m 0,0,1
 720.21484375 260.25390625 720.21484375 260.25390625 696.044921875 197.021484375 c 0,2,3
 671.875 133.7890625 671.875 133.7890625 627.44140625 86.42578125 c 0,4,5
 583.0078125 39.0625 583.0078125 39.0625 520.99609375 11.474609375 c 0,6,7
 458.984375 -16.11328125 458.984375 -16.11328125 383.7890625 -16.11328125 c 0,8,9
 309.08203125 -16.11328125 309.08203125 -16.11328125 245.361328125 7.568359375 c 0,10,11
 181.640625 31.25 181.640625 31.25 135.498046875 76.66015625 c 0,12,13
 89.35546875 122.0703125 89.35546875 122.0703125 63.232421875 188.4765625 c 0,14,15
 37.109375 254.8828125 37.109375 254.8828125 37.109375 339.84375 c 0,16,17
 37.109375 413.57421875 37.109375 413.57421875 60.05859375 477.294921875 c 0,18,19
 83.0078125 541.015625 83.0078125 541.015625 126.220703125 587.40234375 c 0,20,21
 169.43359375 633.7890625 169.43359375 633.7890625 232.177734375 660.400390625 c 0,22,23
 294.921875 687.01171875 294.921875 687.01171875 375 687.01171875 c 0,24,25
 426.7578125 687.01171875 426.7578125 687.01171875 472.65625 674.072265625 c 0,26,27
 518.5546875 661.1328125 518.5546875 661.1328125 556.884765625 637.939453125 c 0,28,29
 595.21484375 614.74609375 595.21484375 614.74609375 625.48828125 582.275390625 c 0,30,31
 655.76171875 549.8046875 655.76171875 549.8046875 676.7578125 510.25390625 c 0,32,33
 697.75390625 470.703125 697.75390625 470.703125 708.984375 425.537109375 c 0,34,35
 720.21484375 380.37109375 720.21484375 380.37109375 720.21484375 332.03125 c 0,0,1
559.08203125 328.125 m 0,36,37
 559.08203125 386.71875 559.08203125 386.71875 548.095703125 439.697265625 c 0,38,39
 537.109375 492.67578125 537.109375 492.67578125 515.13671875 532.71484375 c 0,40,41
 493.1640625 572.75390625 493.1640625 572.75390625 460.205078125 596.435546875 c 0,42,43
 427.24609375 620.1171875 427.24609375 620.1171875 383.7890625 620.1171875 c 0,44,45
 349.12109375 620.1171875 349.12109375 620.1171875 321.77734375 608.3984375 c 0,46,47
 294.43359375 596.6796875 294.43359375 596.6796875 273.681640625 576.416015625 c 0,48,49
 252.9296875 556.15234375 252.9296875 556.15234375 238.28125 528.80859375 c 0,50,51
 223.6328125 501.46484375 223.6328125 501.46484375 214.35546875 469.970703125 c 0,52,53
 205.078125 438.4765625 205.078125 438.4765625 200.927734375 404.541015625 c 0,54,55
 196.77734375 370.60546875 196.77734375 370.60546875 196.77734375 336.9140625 c 0,56,57
 196.77734375 301.26953125 196.77734375 301.26953125 201.416015625 266.11328125 c 0,58,59
 206.0546875 230.95703125 206.0546875 230.95703125 215.33203125 198.73046875 c 0,60,61
 224.609375 166.50390625 224.609375 166.50390625 239.2578125 138.671875 c 0,62,63
 253.90625 110.83984375 253.90625 110.83984375 273.4375 90.576171875 c 0,64,65
 292.96875 70.3125 292.96875 70.3125 318.115234375 58.59375 c 0,66,67
 343.26171875 46.875 343.26171875 46.875 374.0234375 46.875 c 0,68,69
 407.2265625 46.875 407.2265625 46.875 434.08203125 58.837890625 c 0,70,71
 460.9375 70.80078125 460.9375 70.80078125 481.4453125 91.30859375 c 0,72,73
 501.953125 111.81640625 501.953125 111.81640625 516.6015625 139.16015625 c 0,74,75
 531.25 166.50390625 531.25 166.50390625 540.771484375 197.75390625 c 0,76,77
 550.29296875 229.00390625 550.29296875 229.00390625 554.6875 262.451171875 c 0,78,79
 559.08203125 295.8984375 559.08203125 295.8984375 559.08203125 328.125 c 0,36,37
EndSplineSet
EndChar

StartChar: P
Encoding: 51 80 51
Width: 611
VWidth: 488
Flags: W
LayerCount: 2
Fore
SplineSet
425.78125 462.890625 m 0,0,1
 425.78125 498.046875 425.78125 498.046875 416.9921875 525.390625 c 0,2,3
 408.203125 552.734375 408.203125 552.734375 392.08984375 571.533203125 c 0,4,5
 375.9765625 590.33203125 375.9765625 590.33203125 353.515625 600.09765625 c 0,6,7
 331.0546875 609.86328125 331.0546875 609.86328125 303.22265625 609.86328125 c 0,8,-1
 247.0703125 609.86328125 l 0,9,-1
 247.0703125 308.10546875 l 0,10,11
 252.9296875 307.6171875 252.9296875 307.6171875 256.591796875 307.373046875 c 0,12,13
 260.25390625 307.12890625 260.25390625 307.12890625 262.6953125 307.12890625 c 0,14,-1
 273.92578125 307.12890625 l 0,15,16
 308.59375 307.6171875 308.59375 307.6171875 336.669921875 315.91796875 c 0,17,18
 364.74609375 324.21875 364.74609375 324.21875 384.521484375 342.7734375 c 0,19,20
 404.296875 361.328125 404.296875 361.328125 415.0390625 390.869140625 c 0,21,22
 425.78125 420.41015625 425.78125 420.41015625 425.78125 462.890625 c 0,0,1
575.1953125 467.7734375 m 0,23,24
 575.1953125 424.8046875 575.1953125 424.8046875 564.697265625 391.845703125 c 0,25,26
 554.19921875 358.88671875 554.19921875 358.88671875 535.64453125 334.228515625 c 0,27,28
 517.08984375 309.5703125 517.08984375 309.5703125 491.943359375 292.724609375 c 0,29,30
 466.796875 275.87890625 466.796875 275.87890625 437.744140625 265.625 c 0,31,32
 408.69140625 255.37109375 408.69140625 255.37109375 376.708984375 250.732421875 c 0,33,34
 344.7265625 246.09375 344.7265625 246.09375 312.98828125 246.09375 c 0,35,36
 298.828125 246.09375 298.828125 246.09375 283.203125 245.849609375 c 0,37,38
 267.578125 245.60546875 267.578125 245.60546875 247.0703125 248.046875 c 0,39,-1
 247.0703125 78.125 l 0,40,41
 247.0703125 68.359375 247.0703125 68.359375 253.41796875 62.744140625 c 0,42,43
 259.765625 57.12890625 259.765625 57.12890625 269.04296875 56.15234375 c 0,44,-1
 332.03125 50.78125 l 0,45,-1
 332.03125 0 l 0,46,-1
 25.87890625 0 l 0,47,-1
 25.87890625 50.78125 l 0,48,-1
 81.0546875 56.15234375 l 0,49,50
 89.84375 57.12890625 89.84375 57.12890625 96.923828125 62.744140625 c 0,51,52
 104.00390625 68.359375 104.00390625 68.359375 104.00390625 78.125 c 0,53,-1
 104.00390625 592.7734375 l 0,54,55
 104.00390625 602.5390625 104.00390625 602.5390625 96.923828125 608.3984375 c 0,56,57
 89.84375 614.2578125 89.84375 614.2578125 81.0546875 615.234375 c 0,58,-1
 22.94921875 620.1171875 l 0,59,-1
 22.94921875 670.8984375 l 0,60,-1
 303.22265625 670.8984375 l 0,61,62
 336.9140625 670.8984375 336.9140625 670.8984375 370.1171875 668.212890625 c 0,63,64
 403.3203125 665.52734375 403.3203125 665.52734375 433.59375 657.470703125 c 0,65,66
 463.8671875 649.4140625 463.8671875 649.4140625 489.74609375 635.498046875 c 0,67,68
 515.625 621.58203125 515.625 621.58203125 534.66796875 598.876953125 c 0,69,70
 553.7109375 576.171875 553.7109375 576.171875 564.453125 543.9453125 c 0,71,72
 575.1953125 511.71875 575.1953125 511.71875 575.1953125 467.7734375 c 0,23,24
EndSplineSet
EndChar

StartChar: Q
Encoding: 52 81 52
Width: 755
VWidth: 488
Flags: W
LayerCount: 2
Fore
SplineSet
687.01171875 -161.1328125 m 0,0,1
 635.25390625 -172.8515625 635.25390625 -172.8515625 592.7734375 -178.466796875 c 0,2,3
 550.29296875 -184.08203125 550.29296875 -184.08203125 509.765625 -184.08203125 c 0,4,5
 456.0546875 -184.08203125 456.0546875 -184.08203125 417.96875 -171.630859375 c 0,6,7
 379.8828125 -159.1796875 379.8828125 -159.1796875 355.95703125 -136.474609375 c 0,8,9
 332.03125 -113.76953125 332.03125 -113.76953125 320.80078125 -81.54296875 c 0,10,11
 309.5703125 -49.31640625 309.5703125 -49.31640625 309.08203125 -9.765625 c 0,12,13
 248.53515625 0.9765625 248.53515625 0.9765625 198.486328125 29.052734375 c 0,14,15
 148.4375 57.12890625 148.4375 57.12890625 112.548828125 101.5625 c 0,16,17
 76.66015625 145.99609375 76.66015625 145.99609375 56.884765625 205.810546875 c 0,18,19
 37.109375 265.625 37.109375 265.625 37.109375 339.84375 c 0,20,21
 37.109375 413.57421875 37.109375 413.57421875 60.05859375 477.294921875 c 0,22,23
 83.0078125 541.015625 83.0078125 541.015625 126.220703125 587.40234375 c 0,24,25
 169.43359375 633.7890625 169.43359375 633.7890625 232.177734375 660.400390625 c 0,26,27
 294.921875 687.01171875 294.921875 687.01171875 375 687.01171875 c 0,28,29
 426.7578125 687.01171875 426.7578125 687.01171875 472.65625 674.072265625 c 0,30,31
 518.5546875 661.1328125 518.5546875 661.1328125 556.884765625 637.939453125 c 0,32,33
 595.21484375 614.74609375 595.21484375 614.74609375 625.48828125 582.275390625 c 0,34,35
 655.76171875 549.8046875 655.76171875 549.8046875 676.7578125 510.25390625 c 0,36,37
 697.75390625 470.703125 697.75390625 470.703125 708.984375 425.537109375 c 0,38,39
 720.21484375 380.37109375 720.21484375 380.37109375 720.21484375 332.03125 c 0,40,41
 720.21484375 269.53125 720.21484375 269.53125 701.66015625 213.37890625 c 0,42,43
 683.10546875 157.2265625 683.10546875 157.2265625 648.92578125 112.060546875 c 0,44,45
 614.74609375 66.89453125 614.74609375 66.89453125 566.162109375 35.64453125 c 0,46,47
 517.578125 4.39453125 517.578125 4.39453125 458.0078125 -7.8125 c 0,48,49
 457.03125 -35.15625 457.03125 -35.15625 468.017578125 -55.908203125 c 0,50,51
 479.00390625 -76.66015625 479.00390625 -76.66015625 497.802734375 -91.064453125 c 0,52,53
 516.6015625 -105.46875 516.6015625 -105.46875 541.748046875 -112.79296875 c 0,54,55
 566.89453125 -120.1171875 566.89453125 -120.1171875 594.23828125 -120.1171875 c 0,56,57
 608.88671875 -120.1171875 608.88671875 -120.1171875 631.34765625 -117.919921875 c 0,58,59
 653.80859375 -115.72265625 653.80859375 -115.72265625 687.01171875 -107.91015625 c 0,60,-1
 687.01171875 -161.1328125 l 0,0,1
559.08203125 328.125 m 0,61,62
 559.08203125 386.71875 559.08203125 386.71875 548.095703125 439.697265625 c 0,63,64
 537.109375 492.67578125 537.109375 492.67578125 515.13671875 532.71484375 c 0,65,66
 493.1640625 572.75390625 493.1640625 572.75390625 460.205078125 596.435546875 c 0,67,68
 427.24609375 620.1171875 427.24609375 620.1171875 383.7890625 620.1171875 c 0,69,70
 349.12109375 620.1171875 349.12109375 620.1171875 321.77734375 608.3984375 c 0,71,72
 294.43359375 596.6796875 294.43359375 596.6796875 273.681640625 576.416015625 c 0,73,74
 252.9296875 556.15234375 252.9296875 556.15234375 238.28125 528.80859375 c 0,75,76
 223.6328125 501.46484375 223.6328125 501.46484375 214.35546875 469.970703125 c 0,77,78
 205.078125 438.4765625 205.078125 438.4765625 200.927734375 404.541015625 c 0,79,80
 196.77734375 370.60546875 196.77734375 370.60546875 196.77734375 336.9140625 c 0,81,82
 196.77734375 301.26953125 196.77734375 301.26953125 201.416015625 266.11328125 c 0,83,84
 206.0546875 230.95703125 206.0546875 230.95703125 215.33203125 198.73046875 c 0,85,86
 224.609375 166.50390625 224.609375 166.50390625 239.2578125 138.671875 c 0,87,88
 253.90625 110.83984375 253.90625 110.83984375 273.4375 90.576171875 c 0,89,90
 292.96875 70.3125 292.96875 70.3125 318.115234375 58.59375 c 0,91,92
 343.26171875 46.875 343.26171875 46.875 374.0234375 46.875 c 0,93,94
 407.2265625 46.875 407.2265625 46.875 434.08203125 58.837890625 c 0,95,96
 460.9375 70.80078125 460.9375 70.80078125 481.4453125 91.30859375 c 0,97,98
 501.953125 111.81640625 501.953125 111.81640625 516.6015625 139.16015625 c 0,99,100
 531.25 166.50390625 531.25 166.50390625 540.771484375 197.75390625 c 0,101,102
 550.29296875 229.00390625 550.29296875 229.00390625 554.6875 262.451171875 c 0,103,104
 559.08203125 295.8984375 559.08203125 295.8984375 559.08203125 328.125 c 0,61,62
EndSplineSet
EndChar

StartChar: R
Encoding: 53 82 53
Width: 704
VWidth: 488
Flags: W
LayerCount: 2
Fore
SplineSet
428.22265625 485.83984375 m 0,0,1
 428.22265625 549.31640625 428.22265625 549.31640625 390.13671875 580.078125 c 0,2,3
 352.05078125 610.83984375 352.05078125 610.83984375 278.80859375 610.83984375 c 0,4,5
 274.90234375 611.328125 274.90234375 611.328125 269.53125 611.328125 c 0,6,-1
 259.27734375 611.328125 l 0,7,8
 253.41796875 611.328125 253.41796875 611.328125 247.0703125 610.83984375 c 0,9,-1
 247.0703125 354.98046875 l 0,10,11
 259.765625 354.00390625 259.765625 354.00390625 267.822265625 353.515625 c 0,12,13
 275.87890625 353.02734375 275.87890625 353.02734375 279.78515625 353.02734375 c 0,14,15
 303.22265625 353.02734375 303.22265625 353.02734375 329.345703125 357.666015625 c 0,16,17
 355.46875 362.3046875 355.46875 362.3046875 377.44140625 376.708984375 c 0,18,19
 399.4140625 391.11328125 399.4140625 391.11328125 413.818359375 417.236328125 c 0,20,21
 428.22265625 443.359375 428.22265625 443.359375 428.22265625 485.83984375 c 0,0,1
704.1015625 0 m 0,22,23
 670.8984375 -3.90625 670.8984375 -3.90625 647.216796875 -10.009765625 c 0,24,25
 623.53515625 -16.11328125 623.53515625 -16.11328125 604.98046875 -16.11328125 c 0,26,27
 556.640625 -16.11328125 556.640625 -16.11328125 524.4140625 -2.685546875 c 0,28,29
 492.1875 10.7421875 492.1875 10.7421875 470.947265625 32.470703125 c 0,30,31
 449.70703125 54.19921875 449.70703125 54.19921875 436.5234375 82.03125 c 0,32,33
 423.33984375 109.86328125 423.33984375 109.86328125 412.841796875 138.916015625 c 0,34,35
 402.34375 167.96875 402.34375 167.96875 392.08984375 195.80078125 c 0,36,37
 381.8359375 223.6328125 381.8359375 223.6328125 366.2109375 245.361328125 c 0,38,39
 350.5859375 267.08984375 350.5859375 267.08984375 327.1484375 280.517578125 c 0,40,41
 303.7109375 293.9453125 303.7109375 293.9453125 267.08984375 293.9453125 c 0,42,-1
 247.0703125 293.9453125 l 0,43,-1
 247.0703125 78.125 l 0,44,45
 247.0703125 68.359375 247.0703125 68.359375 253.41796875 62.744140625 c 0,46,47
 259.765625 57.12890625 259.765625 57.12890625 269.04296875 56.15234375 c 0,48,-1
 324.21875 50.78125 l 0,49,-1
 324.21875 0 l 0,50,-1
 27.83203125 0 l 0,51,-1
 27.83203125 50.78125 l 0,52,-1
 81.0546875 56.15234375 l 0,53,54
 89.84375 57.12890625 89.84375 57.12890625 96.923828125 62.744140625 c 0,55,56
 104.00390625 68.359375 104.00390625 68.359375 104.00390625 78.125 c 0,57,-1
 104.00390625 592.7734375 l 0,58,59
 104.00390625 602.5390625 104.00390625 602.5390625 96.923828125 608.3984375 c 0,60,61
 89.84375 614.2578125 89.84375 614.2578125 81.0546875 615.234375 c 0,62,-1
 27.83203125 620.1171875 l 0,63,-1
 27.83203125 670.8984375 l 0,64,-1
 359.86328125 670.8984375 l 0,65,66
 378.41796875 670.8984375 378.41796875 670.8984375 401.85546875 668.45703125 c 0,67,68
 425.29296875 666.015625 425.29296875 666.015625 449.462890625 659.423828125 c 0,69,70
 473.6328125 652.83203125 473.6328125 652.83203125 496.826171875 641.11328125 c 0,71,72
 520.01953125 629.39453125 520.01953125 629.39453125 538.0859375 611.083984375 c 0,73,74
 556.15234375 592.7734375 556.15234375 592.7734375 567.138671875 566.650390625 c 0,75,76
 578.125 540.52734375 578.125 540.52734375 578.125 504.8828125 c 0,77,78
 578.125 471.19140625 578.125 471.19140625 569.091796875 445.80078125 c 0,79,80
 560.05859375 420.41015625 560.05859375 420.41015625 545.166015625 401.611328125 c 0,81,82
 530.2734375 382.8125 530.2734375 382.8125 511.474609375 369.873046875 c 0,83,84
 492.67578125 356.93359375 492.67578125 356.93359375 473.14453125 348.876953125 c 0,85,86
 453.61328125 340.8203125 453.61328125 340.8203125 435.546875 336.42578125 c 0,87,88
 417.48046875 332.03125 417.48046875 332.03125 403.80859375 330.078125 c 0,89,90
 436.5234375 323.73046875 436.5234375 323.73046875 459.47265625 311.279296875 c 0,91,92
 482.421875 298.828125 482.421875 298.828125 498.046875 282.2265625 c 0,93,94
 513.671875 265.625 513.671875 265.625 523.681640625 246.09375 c 0,95,96
 533.69140625 226.5625 533.69140625 226.5625 540.771484375 205.810546875 c 0,97,98
 547.8515625 185.05859375 547.8515625 185.05859375 553.466796875 164.55078125 c 0,99,100
 559.08203125 144.04296875 559.08203125 144.04296875 566.40625 125.48828125 c 0,101,102
 573.73046875 106.93359375 573.73046875 106.93359375 583.740234375 91.552734375 c 0,103,104
 593.75 76.171875 593.75 76.171875 609.375 65.673828125 c 0,105,106
 625 55.17578125 625 55.17578125 647.94921875 51.025390625 c 0,107,108
 670.8984375 46.875 670.8984375 46.875 704.1015625 50.78125 c 0,109,-1
 704.1015625 0 l 0,22,23
EndSplineSet
EndChar

StartChar: S
Encoding: 54 83 54
Width: 536
VWidth: 488
Flags: W
LayerCount: 2
Fore
SplineSet
499.0234375 195.80078125 m 0,0,1
 499.0234375 143.06640625 499.0234375 143.06640625 477.05078125 103.271484375 c 0,2,3
 455.078125 63.4765625 455.078125 63.4765625 418.212890625 37.109375 c 0,4,5
 381.34765625 10.7421875 381.34765625 10.7421875 333.0078125 -2.685546875 c 0,6,7
 284.66796875 -16.11328125 284.66796875 -16.11328125 231.93359375 -16.11328125 c 0,8,9
 192.3828125 -16.11328125 192.3828125 -16.11328125 157.470703125 -10.25390625 c 0,10,11
 122.55859375 -4.39453125 122.55859375 -4.39453125 95.703125 2.9296875 c 0,12,13
 64.453125 11.23046875 64.453125 11.23046875 37.109375 21.97265625 c 0,14,-1
 37.109375 205.078125 l 0,15,-1
 116.2109375 205.078125 l 0,16,-1
 132.8125 83.984375 l 0,17,18
 133.7890625 78.125 133.7890625 78.125 138.671875 73.486328125 c 0,19,20
 143.5546875 68.84765625 143.5546875 68.84765625 145.99609375 68.84765625 c 0,21,22
 157.71484375 63.96484375 157.71484375 63.96484375 170.41015625 60.05859375 c 0,23,24
 181.640625 56.640625 181.640625 56.640625 195.3125 54.19921875 c 0,25,26
 208.984375 51.7578125 208.984375 51.7578125 223.14453125 51.7578125 c 0,27,28
 245.1171875 51.7578125 245.1171875 51.7578125 268.06640625 57.12890625 c 0,29,30
 291.015625 62.5 291.015625 62.5 309.814453125 73.73046875 c 0,31,32
 328.61328125 84.9609375 328.61328125 84.9609375 340.33203125 103.02734375 c 0,33,34
 352.05078125 121.09375 352.05078125 121.09375 352.05078125 145.99609375 c 0,35,36
 352.05078125 177.24609375 352.05078125 177.24609375 337.40234375 199.951171875 c 0,37,38
 322.75390625 222.65625 322.75390625 222.65625 299.31640625 240.966796875 c 0,39,40
 275.87890625 259.27734375 275.87890625 259.27734375 246.337890625 274.658203125 c 0,41,42
 216.796875 290.0390625 216.796875 290.0390625 187.01171875 306.15234375 c 0,43,44
 160.64453125 320.3125 160.64453125 320.3125 135.986328125 336.669921875 c 0,45,46
 111.328125 353.02734375 111.328125 353.02734375 92.28515625 374.0234375 c 0,47,48
 73.2421875 395.01953125 73.2421875 395.01953125 62.01171875 421.875 c 0,49,50
 50.78125 448.73046875 50.78125 448.73046875 50.78125 483.88671875 c 0,51,52
 50.78125 532.71484375 50.78125 532.71484375 70.3125 570.556640625 c 0,53,54
 89.84375 608.3984375 89.84375 608.3984375 123.046875 634.27734375 c 0,55,56
 156.25 660.15625 156.25 660.15625 199.951171875 673.583984375 c 0,57,58
 243.65234375 687.01171875 243.65234375 687.01171875 291.9921875 687.01171875 c 0,59,60
 330.078125 687.01171875 330.078125 687.01171875 364.2578125 680.6640625 c 0,61,62
 398.4375 674.31640625 398.4375 674.31640625 424.8046875 666.9921875 c 0,63,64
 455.078125 658.203125 455.078125 658.203125 480.95703125 646.97265625 c 0,65,-1
 480.95703125 482.91015625 l 0,66,-1
 403.80859375 482.91015625 l 0,67,-1
 387.20703125 589.84375 l 0,68,69
 386.71875 591.796875 386.71875 591.796875 384.521484375 594.23828125 c 0,70,71
 382.32421875 596.6796875 382.32421875 596.6796875 379.8828125 599.12109375 c 0,72,73
 376.953125 601.5625 376.953125 601.5625 373.046875 604.00390625 c 0,74,75
 367.67578125 608.3984375 367.67578125 608.3984375 358.88671875 611.81640625 c 0,76,77
 351.5625 614.74609375 351.5625 614.74609375 340.33203125 617.431640625 c 0,78,79
 329.1015625 620.1171875 329.1015625 620.1171875 312.98828125 620.1171875 c 0,80,81
 288.0859375 620.1171875 288.0859375 620.1171875 265.869140625 614.2578125 c 0,82,83
 243.65234375 608.3984375 243.65234375 608.3984375 226.806640625 597.16796875 c 0,84,85
 209.9609375 585.9375 209.9609375 585.9375 199.951171875 568.84765625 c 0,86,87
 189.94140625 551.7578125 189.94140625 551.7578125 189.94140625 529.78515625 c 0,88,89
 189.94140625 503.41796875 189.94140625 503.41796875 201.171875 483.154296875 c 0,90,91
 212.40234375 462.890625 212.40234375 462.890625 231.201171875 446.77734375 c 0,92,93
 250 430.6640625 250 430.6640625 274.4140625 417.48046875 c 0,94,95
 298.828125 404.296875 298.828125 404.296875 325.1953125 391.11328125 c 0,96,97
 356.4453125 375.48828125 356.4453125 375.48828125 387.451171875 358.3984375 c 0,98,99
 418.45703125 341.30859375 418.45703125 341.30859375 443.359375 319.091796875 c 0,100,101
 468.26171875 296.875 468.26171875 296.875 483.642578125 267.08984375 c 0,102,103
 499.0234375 237.3046875 499.0234375 237.3046875 499.0234375 195.80078125 c 0,0,1
EndSplineSet
EndChar

StartChar: T
Encoding: 55 84 55
Width: 608
VWidth: 488
Flags: W
LayerCount: 2
Fore
SplineSet
520.01953125 487.79296875 m 0,0,-1
 501.953125 599.12109375 l 0,1,2
 500.48828125 610.83984375 500.48828125 610.83984375 487.79296875 610.83984375 c 0,3,-1
 375.9765625 610.83984375 l 0,4,-1
 375.9765625 78.125 l 0,5,6
 375.9765625 68.359375 375.9765625 68.359375 382.568359375 62.744140625 c 0,7,8
 389.16015625 57.12890625 389.16015625 57.12890625 397.94921875 56.15234375 c 0,9,-1
 457.03125 50.78125 l 0,10,-1
 457.03125 0 l 0,11,-1
 151.85546875 0 l 0,12,-1
 151.85546875 50.78125 l 0,13,-1
 209.9609375 56.15234375 l 0,14,15
 219.23828125 57.12890625 219.23828125 57.12890625 226.07421875 62.744140625 c 0,16,17
 232.91015625 68.359375 232.91015625 68.359375 232.91015625 78.125 c 0,18,-1
 232.91015625 610.83984375 l 0,19,-1
 121.09375 610.83984375 l 0,20,21
 107.421875 610.83984375 107.421875 610.83984375 105.95703125 599.12109375 c 0,22,-1
 87.890625 487.79296875 l 0,23,-1
 16.11328125 487.79296875 l 0,24,-1
 16.11328125 670.8984375 l 0,25,-1
 592.7734375 670.8984375 l 0,26,-1
 592.7734375 487.79296875 l 0,27,-1
 520.01953125 487.79296875 l 0,0,-1
EndSplineSet
EndChar

StartChar: U
Encoding: 56 85 56
Width: 729
VWidth: 488
Flags: W
LayerCount: 2
Fore
SplineSet
649.90234375 615.234375 m 0,0,1
 641.6015625 614.2578125 641.6015625 614.2578125 634.765625 608.3984375 c 0,2,3
 627.9296875 602.5390625 627.9296875 602.5390625 627.9296875 592.7734375 c 0,4,-1
 627.9296875 253.90625 l 0,5,6
 627.9296875 180.17578125 627.9296875 180.17578125 611.328125 128.662109375 c 0,7,8
 594.7265625 77.1484375 594.7265625 77.1484375 561.03515625 44.921875 c 0,9,10
 527.34375 12.6953125 527.34375 12.6953125 475.830078125 -1.708984375 c 0,11,12
 424.31640625 -16.11328125 424.31640625 -16.11328125 354.00390625 -16.11328125 c 0,13,14
 225.09765625 -16.11328125 225.09765625 -16.11328125 162.109375 52.978515625 c 0,15,16
 99.12109375 122.0703125 99.12109375 122.0703125 99.12109375 253.90625 c 0,17,-1
 99.12109375 592.7734375 l 0,18,19
 99.12109375 602.5390625 99.12109375 602.5390625 92.041015625 608.3984375 c 0,20,21
 84.9609375 614.2578125 84.9609375 614.2578125 76.171875 615.234375 c 0,22,-1
 21.97265625 620.1171875 l 0,23,-1
 21.97265625 670.8984375 l 0,24,-1
 317.87109375 670.8984375 l 0,25,-1
 317.87109375 620.1171875 l 0,26,-1
 264.16015625 615.234375 l 0,27,28
 255.859375 614.2578125 255.859375 614.2578125 249.0234375 608.3984375 c 0,29,30
 242.1875 602.5390625 242.1875 602.5390625 242.1875 592.7734375 c 0,31,-1
 242.1875 246.09375 l 0,32,33
 242.1875 152.34375 242.1875 152.34375 281.73828125 109.619140625 c 0,34,35
 321.2890625 66.89453125 321.2890625 66.89453125 403.80859375 66.89453125 c 0,36,37
 443.359375 66.89453125 443.359375 66.89453125 471.19140625 79.833984375 c 0,38,39
 499.0234375 92.7734375 499.0234375 92.7734375 517.08984375 116.2109375 c 0,40,41
 535.15625 139.6484375 535.15625 139.6484375 543.45703125 172.607421875 c 0,42,43
 551.7578125 205.56640625 551.7578125 205.56640625 551.7578125 246.09375 c 0,44,-1
 551.7578125 592.7734375 l 0,45,46
 551.7578125 602.5390625 551.7578125 602.5390625 545.41015625 608.3984375 c 0,47,48
 539.0625 614.2578125 539.0625 614.2578125 529.78515625 615.234375 c 0,49,-1
 473.14453125 620.1171875 l 0,50,-1
 473.14453125 670.8984375 l 0,51,-1
 703.125 670.8984375 l 0,52,-1
 703.125 620.1171875 l 0,53,-1
 649.90234375 615.234375 l 0,0,1
EndSplineSet
EndChar

StartChar: V
Encoding: 57 86 57
Width: 706
VWidth: 488
Flags: W
LayerCount: 2
Fore
SplineSet
632.8125 611.81640625 m 0,0,-1
 402.83203125 -16.11328125 l 0,1,-1
 308.10546875 -16.11328125 l 0,2,-1
 74.21875 610.83984375 l 0,3,-1
 9.765625 620.1171875 l 0,4,-1
 9.765625 670.8984375 l 0,5,-1
 294.921875 670.8984375 l 0,6,-1
 294.921875 620.1171875 l 0,7,-1
 238.76953125 612.79296875 l 0,8,9
 229.98046875 611.328125 229.98046875 611.328125 228.271484375 604.248046875 c 0,10,11
 226.5625 597.16796875 226.5625 597.16796875 229.00390625 590.8203125 c 0,12,-1
 387.20703125 155.76171875 l 0,13,-1
 540.0390625 591.796875 l 0,14,15
 541.50390625 598.14453125 541.50390625 598.14453125 539.306640625 604.736328125 c 0,16,17
 537.109375 611.328125 537.109375 611.328125 525.87890625 612.79296875 c 0,18,-1
 472.16796875 620.1171875 l 0,19,-1
 472.16796875 670.8984375 l 0,20,-1
 695.80078125 670.8984375 l 0,21,-1
 695.80078125 620.1171875 l 0,22,-1
 632.8125 611.81640625 l 0,0,-1
EndSplineSet
EndChar

StartChar: W
Encoding: 58 87 58
Width: 965
VWidth: 488
Flags: W
LayerCount: 2
Fore
SplineSet
895.01953125 611.81640625 m 0,0,-1
 737.79296875 -16.11328125 l 0,1,-1
 643.06640625 -16.11328125 l 0,2,-1
 486.81640625 503.90625 l 0,3,-1
 333.984375 -16.11328125 l 0,4,-1
 237.79296875 -16.11328125 l 0,5,-1
 70.80078125 611.81640625 l 0,6,-1
 9.765625 620.1171875 l 0,7,-1
 9.765625 670.8984375 l 0,8,-1
 282.2265625 670.8984375 l 0,9,-1
 282.2265625 620.1171875 l 0,10,-1
 223.14453125 613.76953125 l 0,11,12
 213.8671875 612.79296875 213.8671875 612.79296875 213.134765625 605.95703125 c 0,13,14
 212.40234375 599.12109375 212.40234375 599.12109375 213.8671875 592.7734375 c 0,15,-1
 319.82421875 196.77734375 l 0,16,-1
 459.9609375 670.8984375 l 0,17,-1
 567.87109375 670.8984375 l 0,18,-1
 712.890625 186.03515625 l 0,19,-1
 812.98828125 592.7734375 l 0,20,21
 814.453125 599.12109375 814.453125 599.12109375 812.01171875 605.712890625 c 0,22,23
 809.5703125 612.3046875 809.5703125 612.3046875 798.828125 613.76953125 c 0,24,-1
 734.86328125 620.1171875 l 0,25,-1
 734.86328125 670.8984375 l 0,26,-1
 956.0546875 670.8984375 l 0,27,-1
 956.0546875 620.1171875 l 0,28,-1
 895.01953125 611.81640625 l 0,0,-1
EndSplineSet
EndChar

StartChar: X
Encoding: 59 88 59
Width: 670
VWidth: 488
Flags: W
LayerCount: 2
Fore
SplineSet
360.83984375 0 m 0,0,-1
 360.83984375 50.78125 l 0,1,-1
 421.875 55.17578125 l 0,2,3
 428.7109375 56.15234375 428.7109375 56.15234375 430.908203125 62.98828125 c 0,4,5
 433.10546875 69.82421875 433.10546875 69.82421875 426.7578125 79.1015625 c 0,6,-1
 314.94140625 254.8828125 l 0,7,-1
 180.17578125 80.078125 l 0,8,9
 176.26953125 75.68359375 176.26953125 75.68359375 175.78125 71.533203125 c 0,10,11
 175.29296875 67.3828125 175.29296875 67.3828125 176.7578125 63.96484375 c 0,12,13
 178.22265625 60.546875 178.22265625 60.546875 180.908203125 58.59375 c 0,14,15
 183.59375 56.640625 183.59375 56.640625 186.03515625 56.15234375 c 0,16,-1
 246.09375 50.78125 l 0,17,-1
 246.09375 0 l 0,18,-1
 9.765625 0 l 0,19,-1
 9.765625 50.78125 l 0,20,-1
 74.21875 59.08203125 l 0,21,-1
 272.94921875 319.82421875 l 0,22,-1
 85.9375 610.83984375 l 0,23,-1
 22.94921875 620.1171875 l 0,24,-1
 22.94921875 670.8984375 l 0,25,-1
 315.91796875 670.8984375 l 0,26,-1
 315.91796875 620.1171875 l 0,27,-1
 263.18359375 615.234375 l 0,28,29
 257.8125 615.234375 257.8125 615.234375 254.8828125 607.91015625 c 0,30,31
 251.953125 600.5859375 251.953125 600.5859375 257.8125 590.8203125 c 0,32,-1
 357.91015625 433.10546875 l 0,33,-1
 480.95703125 591.796875 l 0,34,35
 487.79296875 600.09765625 487.79296875 600.09765625 484.86328125 608.154296875 c 0,36,37
 481.93359375 616.2109375 481.93359375 616.2109375 475.09765625 616.2109375 c 0,38,-1
 421.875 620.1171875 l 0,39,-1
 421.875 670.8984375 l 0,40,-1
 649.90234375 670.8984375 l 0,41,-1
 649.90234375 620.1171875 l 0,42,-1
 586.9140625 610.83984375 l 0,43,-1
 399.90234375 368.1640625 l 0,44,-1
 598.14453125 59.08203125 l 0,45,-1
 661.1328125 50.78125 l 0,46,-1
 661.1328125 0 l 0,47,-1
 360.83984375 0 l 0,0,-1
EndSplineSet
EndChar

StartChar: Y
Encoding: 60 89 60
Width: 663
VWidth: 488
Flags: W
LayerCount: 2
Fore
SplineSet
595.21484375 610.83984375 m 0,0,-1
 410.15625 290.0390625 l 0,1,-1
 410.15625 78.125 l 0,2,3
 410.15625 68.359375 410.15625 68.359375 416.50390625 62.744140625 c 0,4,5
 422.8515625 57.12890625 422.8515625 57.12890625 432.12890625 56.15234375 c 0,6,-1
 493.1640625 50.78125 l 0,7,-1
 493.1640625 0 l 0,8,-1
 183.10546875 0 l 0,9,-1
 183.10546875 50.78125 l 0,10,-1
 244.140625 56.15234375 l 0,11,12
 252.44140625 57.12890625 252.44140625 57.12890625 259.765625 62.744140625 c 0,13,14
 267.08984375 68.359375 267.08984375 68.359375 267.08984375 78.125 c 0,15,-1
 267.08984375 262.20703125 l 0,16,-1
 74.21875 610.83984375 l 0,17,-1
 9.765625 620.1171875 l 0,18,-1
 9.765625 670.8984375 l 0,19,-1
 293.9453125 670.8984375 l 0,20,-1
 293.9453125 620.1171875 l 0,21,-1
 241.2109375 615.234375 l 0,22,23
 235.83984375 615.234375 235.83984375 615.234375 233.154296875 607.91015625 c 0,24,25
 230.46875 600.5859375 230.46875 600.5859375 235.83984375 590.8203125 c 0,26,-1
 361.81640625 354.00390625 l 0,27,-1
 498.046875 591.796875 l 0,28,29
 503.41796875 601.07421875 503.41796875 601.07421875 501.708984375 608.642578125 c 0,30,31
 500 616.2109375 500 616.2109375 493.1640625 616.2109375 c 0,32,-1
 432.12890625 620.1171875 l 0,33,-1
 432.12890625 670.8984375 l 0,34,-1
 652.83203125 670.8984375 l 0,35,-1
 652.83203125 620.1171875 l 0,36,-1
 595.21484375 610.83984375 l 0,0,-1
EndSplineSet
EndChar

StartChar: Z
Encoding: 61 90 61
Width: 581
VWidth: 488
Flags: W
LayerCount: 2
Fore
SplineSet
37.109375 0 m 0,0,-1
 37.109375 59.08203125 l 0,1,-1
 379.8828125 609.86328125 l 0,2,-1
 159.1796875 609.86328125 l 0,3,4
 146.484375 609.86328125 146.484375 609.86328125 145.01953125 598.14453125 c 0,5,-1
 126.953125 488.76953125 l 0,6,-1
 54.19921875 488.76953125 l 0,7,-1
 54.19921875 670.8984375 l 0,8,-1
 539.0625 670.8984375 l 0,9,-1
 539.0625 611.81640625 l 0,10,-1
 196.77734375 62.01171875 l 0,11,-1
 436.03515625 62.01171875 l 0,12,13
 448.2421875 62.01171875 448.2421875 62.01171875 451.171875 73.2421875 c 0,14,-1
 471.19140625 196.77734375 l 0,15,-1
 543.9453125 196.77734375 l 0,16,-1
 543.9453125 0 l 0,17,-1
 37.109375 0 l 0,0,-1
EndSplineSet
EndChar

StartChar: bracketleft
Encoding: 62 91 62
Width: 547
VWidth: 488
Flags: W
LayerCount: 2
Fore
SplineSet
234.375 -131.8359375 m 0,0,-1
 234.375 708.0078125 l 0,1,-1
 511.71875 708.0078125 l 0,2,-1
 511.71875 647.94921875 l 0,3,-1
 358.3984375 647.94921875 l 0,4,-1
 358.3984375 -74.21875 l 0,5,-1
 511.71875 -74.21875 l 0,6,-1
 511.71875 -131.8359375 l 0,7,-1
 234.375 -131.8359375 l 0,0,-1
EndSplineSet
EndChar

StartChar: backslash
Encoding: 63 92 63
Width: 494
VWidth: 488
Flags: W
LayerCount: 2
Fore
SplineSet
416.015625 -92.7734375 m 0,0,-1
 0 670.8984375 l 0,1,-1
 78.125 670.8984375 l 0,2,-1
 494.140625 -92.7734375 l 0,3,-1
 416.015625 -92.7734375 l 0,0,-1
EndSplineSet
EndChar

StartChar: bracketright
Encoding: 64 93 64
Width: 588
VWidth: 488
Flags: W
LayerCount: 2
Fore
SplineSet
36.1328125 -131.8359375 m 0,0,-1
 36.1328125 -74.21875 l 0,1,-1
 188.96484375 -74.21875 l 0,2,-1
 188.96484375 647.94921875 l 0,3,-1
 36.1328125 647.94921875 l 0,4,-1
 36.1328125 708.0078125 l 0,5,-1
 312.98828125 708.0078125 l 0,6,-1
 312.98828125 -131.8359375 l 0,7,-1
 36.1328125 -131.8359375 l 0,0,-1
EndSplineSet
EndChar

StartChar: asciicircum
Encoding: 65 94 65
Width: 339
Flags: W
LayerCount: 2
Fore
SplineSet
256 550 m 1,0,-1
 170 645 l 1,1,-1
 84 550 l 1,2,-1
 1 550 l 1,3,-1
 111 721 l 1,4,-1
 229 721 l 1,5,-1
 339 550 l 1,6,-1
 256 550 l 1,0,-1
EndSplineSet
Refer: 360 770 N 1 0 0 1 461.914 0 2
EndChar

StartChar: underscore
Encoding: 66 95 66
Width: 339
VWidth: 488
Flags: W
LayerCount: 2
Fore
SplineSet
0 -166.015625 m 0,0,-1
 0 -85.44921875 l 0,1,-1
 339.84375 -85.44921875 l 0,2,-1
 339.84375 -166.015625 l 0,3,-1
 0 -166.015625 l 0,0,-1
EndSplineSet
EndChar

StartChar: grave
Encoding: 67 96 67
Width: 374
Flags: W
LayerCount: 2
Fore
SplineSet
187 550 m 1,0,-1
 25 638 l 2,1,2
 20 640 20 640 16 645 c 128,-1,3
 12 650 12 650 9 655.5 c 128,-1,4
 6 661 6 661 4.5 667 c 128,-1,5
 3 673 3 673 3 677 c 0,6,7
 3 685 3 685 5.5 694.5 c 128,-1,8
 8 704 8 704 14.5 711.5 c 128,-1,9
 21 719 21 719 31.5 723.5 c 128,-1,10
 42 728 42 728 58 728 c 0,11,12
 68 728 68 728 75.5 727 c 128,-1,13
 83 726 83 726 90 722.5 c 128,-1,14
 97 719 97 719 104 713 c 128,-1,15
 111 707 111 707 119 698 c 2,16,-1
 255 547 l 1,17,-1
 187 550 l 1,0,-1
EndSplineSet
Refer: 358 768 N 1 0 0 1 450.684 0 2
EndChar

StartChar: a
Encoding: 68 97 68
Width: 553
VWidth: 488
Flags: W
LayerCount: 2
Fore
SplineSet
336.9140625 257.8125 m 0,0,1
 288.57421875 248.046875 288.57421875 248.046875 257.080078125 237.79296875 c 0,2,3
 225.5859375 227.5390625 225.5859375 227.5390625 207.03125 214.35546875 c 0,4,5
 188.4765625 201.171875 188.4765625 201.171875 181.15234375 184.326171875 c 0,6,7
 173.828125 167.48046875 173.828125 167.48046875 173.828125 145.01953125 c 0,8,9
 173.828125 129.39453125 173.828125 129.39453125 178.955078125 115.966796875 c 0,10,11
 184.08203125 102.5390625 184.08203125 102.5390625 193.603515625 92.529296875 c 0,12,13
 203.125 82.51953125 203.125 82.51953125 216.30859375 76.66015625 c 0,14,15
 229.4921875 70.80078125 229.4921875 70.80078125 245.1171875 70.80078125 c 0,16,17
 261.23046875 70.80078125 261.23046875 70.80078125 277.587890625 74.21875 c 0,18,19
 293.9453125 77.63671875 293.9453125 77.63671875 307.12890625 81.54296875 c 0,20,21
 322.75390625 86.42578125 322.75390625 86.42578125 336.9140625 92.7734375 c 0,22,-1
 336.9140625 257.8125 l 0,0,1
350.09765625 0 m 0,23,-1
 336.9140625 49.8046875 l 0,24,25
 311.03515625 32.2265625 311.03515625 32.2265625 282.71484375 18.5546875 c 0,26,27
 257.8125 6.8359375 257.8125 6.8359375 227.05078125 -2.685546875 c 0,28,29
 196.2890625 -12.20703125 196.2890625 -12.20703125 163.0859375 -12.20703125 c 0,30,31
 135.7421875 -12.20703125 135.7421875 -12.20703125 112.060546875 -3.173828125 c 0,32,33
 88.37890625 5.859375 88.37890625 5.859375 70.556640625 22.705078125 c 0,34,35
 52.734375 39.55078125 52.734375 39.55078125 42.48046875 63.4765625 c 0,36,37
 32.2265625 87.40234375 32.2265625 87.40234375 32.2265625 117.1875 c 0,38,39
 32.2265625 139.6484375 32.2265625 139.6484375 35.888671875 158.69140625 c 0,40,41
 39.55078125 177.734375 39.55078125 177.734375 50.537109375 194.091796875 c 0,42,43
 61.5234375 210.44921875 61.5234375 210.44921875 82.03125 225.341796875 c 0,44,45
 102.5390625 240.234375 102.5390625 240.234375 136.474609375 254.39453125 c 0,46,47
 170.41015625 268.5546875 170.41015625 268.5546875 219.7265625 282.71484375 c 0,48,49
 269.04296875 296.875 269.04296875 296.875 337.890625 312.01171875 c 0,50,-1
 337.890625 324.21875 l 0,51,52
 337.890625 331.54296875 337.890625 331.54296875 338.37890625 337.40234375 c 0,53,54
 338.37890625 344.23828125 338.37890625 344.23828125 338.8671875 351.07421875 c 0,55,56
 339.35546875 365.234375 339.35546875 365.234375 335.9375 381.591796875 c 0,57,58
 332.51953125 397.94921875 332.51953125 397.94921875 322.265625 411.865234375 c 0,59,60
 312.01171875 425.78125 312.01171875 425.78125 293.45703125 434.814453125 c 0,61,62
 274.90234375 443.84765625 274.90234375 443.84765625 245.1171875 443.84765625 c 0,63,64
 234.86328125 443.84765625 234.86328125 443.84765625 226.806640625 443.359375 c 0,65,66
 218.75 442.87109375 218.75 442.87109375 213.37890625 441.89453125 c 0,67,68
 207.03125 440.91796875 207.03125 440.91796875 202.1484375 439.94140625 c 0,69,-1
 202.1484375 345.21484375 l 0,70,-1
 99.12109375 345.21484375 l 0,71,72
 86.42578125 344.23828125 86.42578125 344.23828125 76.66015625 347.65625 c 0,73,74
 68.359375 350.5859375 68.359375 350.5859375 61.279296875 357.91015625 c 0,75,76
 54.19921875 365.234375 54.19921875 365.234375 54.19921875 380.859375 c 0,77,78
 54.19921875 408.69140625 54.19921875 408.69140625 73.974609375 430.6640625 c 0,79,80
 93.75 452.63671875 93.75 452.63671875 125.732421875 468.017578125 c 0,81,82
 157.71484375 483.3984375 157.71484375 483.3984375 197.509765625 491.69921875 c 0,83,84
 237.3046875 500 237.3046875 500 276.85546875 500 c 0,85,86
 319.82421875 500 319.82421875 500 355.46875 493.65234375 c 0,87,88
 391.11328125 487.3046875 391.11328125 487.3046875 416.748046875 468.994140625 c 0,89,90
 442.3828125 450.68359375 442.3828125 450.68359375 456.298828125 417.48046875 c 0,91,92
 470.21484375 384.27734375 470.21484375 384.27734375 470.21484375 330.078125 c 0,93,-1
 470.21484375 73.2421875 l 0,94,95
 470.21484375 63.96484375 470.21484375 63.96484375 476.5625 57.373046875 c 0,96,97
 482.91015625 50.78125 482.91015625 50.78125 492.1875 49.8046875 c 0,98,-1
 536.1328125 46.875 l 0,99,-1
 536.1328125 0 l 0,100,-1
 350.09765625 0 l 0,23,-1
EndSplineSet
EndChar

StartChar: b
Encoding: 69 98 69
Width: 598
VWidth: 488
Flags: W
LayerCount: 2
Fore
SplineSet
420.8984375 244.140625 m 0,0,1
 420.8984375 284.66796875 420.8984375 284.66796875 411.62109375 316.650390625 c 0,2,3
 402.34375 348.6328125 402.34375 348.6328125 384.27734375 371.09375 c 0,4,5
 366.2109375 393.5546875 366.2109375 393.5546875 339.111328125 405.2734375 c 0,6,7
 312.01171875 416.9921875 312.01171875 416.9921875 276.85546875 416.9921875 c 0,8,9
 267.578125 416.9921875 267.578125 416.9921875 258.544921875 416.015625 c 0,10,11
 249.51171875 415.0390625 249.51171875 415.0390625 241.69921875 414.0625 c 0,12,-1
 224.12109375 411.1328125 l 0,13,-1
 224.12109375 56.15234375 l 0,14,15
 232.91015625 56.15234375 232.91015625 56.15234375 236.572265625 55.6640625 c 0,16,17
 240.234375 55.17578125 240.234375 55.17578125 245.1171875 55.17578125 c 0,18,19
 286.62109375 55.17578125 286.62109375 55.17578125 319.3359375 64.697265625 c 0,20,21
 352.05078125 74.21875 352.05078125 74.21875 374.51171875 96.435546875 c 0,22,23
 396.97265625 118.65234375 396.97265625 118.65234375 408.935546875 154.78515625 c 0,24,25
 420.8984375 190.91796875 420.8984375 190.91796875 420.8984375 244.140625 c 0,0,1
565.91796875 273.92578125 m 0,26,27
 565.91796875 216.30859375 565.91796875 216.30859375 546.38671875 166.259765625 c 0,28,29
 526.85546875 116.2109375 526.85546875 116.2109375 489.501953125 79.345703125 c 0,30,31
 452.1484375 42.48046875 452.1484375 42.48046875 397.705078125 21.240234375 c 0,32,33
 343.26171875 0 343.26171875 0 272.94921875 0 c 0,34,-1
 89.84375 0 l 0,35,-1
 89.84375 648.92578125 l 0,36,-1
 20.01953125 648.92578125 l 0,37,-1
 20.01953125 689.94140625 l 0,38,-1
 172.8515625 740.234375 l 0,39,-1
 224.12109375 740.234375 l 0,40,-1
 224.12109375 454.1015625 l 0,41,42
 245.1171875 466.796875 245.1171875 466.796875 268.5546875 477.05078125 c 0,43,44
 289.0625 485.3515625 289.0625 485.3515625 314.94140625 492.67578125 c 0,45,46
 340.8203125 500 340.8203125 500 369.140625 500 c 0,47,48
 409.1796875 500 409.1796875 500 445.068359375 484.86328125 c 0,49,50
 480.95703125 469.7265625 480.95703125 469.7265625 507.8125 440.673828125 c 0,51,52
 534.66796875 411.62109375 534.66796875 411.62109375 550.29296875 369.62890625 c 0,53,54
 565.91796875 327.63671875 565.91796875 327.63671875 565.91796875 273.92578125 c 0,26,27
EndSplineSet
EndChar

StartChar: c
Encoding: 70 99 70
Width: 501
VWidth: 488
Flags: W
LayerCount: 2
Fore
SplineSet
471.19140625 43.9453125 m 0,0,1
 458.49609375 38.0859375 458.49609375 38.0859375 440.185546875 28.80859375 c 0,2,3
 421.875 19.53125 421.875 19.53125 397.705078125 10.25390625 c 0,4,5
 373.53515625 0.9765625 373.53515625 0.9765625 342.7734375 -5.615234375 c 0,6,7
 312.01171875 -12.20703125 312.01171875 -12.20703125 273.92578125 -12.20703125 c 0,8,9
 215.33203125 -12.20703125 215.33203125 -12.20703125 170.41015625 7.8125 c 0,10,11
 125.48828125 27.83203125 125.48828125 27.83203125 94.7265625 61.767578125 c 0,12,13
 63.96484375 95.703125 63.96484375 95.703125 48.095703125 140.13671875 c 0,14,15
 32.2265625 184.5703125 32.2265625 184.5703125 32.2265625 233.88671875 c 0,16,17
 32.2265625 292.96875 32.2265625 292.96875 52.490234375 342.041015625 c 0,18,19
 72.75390625 391.11328125 72.75390625 391.11328125 107.666015625 426.26953125 c 0,20,21
 142.578125 461.42578125 142.578125 461.42578125 189.453125 480.712890625 c 0,22,23
 236.328125 500 236.328125 500 290.0390625 500 c 0,24,25
 329.58984375 500 329.58984375 500 361.328125 491.943359375 c 0,26,27
 393.06640625 483.88671875 393.06640625 483.88671875 415.771484375 469.23828125 c 0,28,29
 438.4765625 454.58984375 438.4765625 454.58984375 450.68359375 434.326171875 c 0,30,31
 462.890625 414.0625 462.890625 414.0625 462.890625 390.13671875 c 0,32,33
 462.890625 373.046875 462.890625 373.046875 456.787109375 359.375 c 0,34,35
 450.68359375 345.703125 450.68359375 345.703125 440.91796875 335.693359375 c 0,36,37
 431.15234375 325.68359375 431.15234375 325.68359375 418.45703125 320.3125 c 0,38,39
 405.76171875 314.94140625 405.76171875 314.94140625 392.08984375 314.94140625 c 0,40,41
 376.46484375 314.94140625 376.46484375 314.94140625 365.966796875 316.89453125 c 0,42,43
 355.46875 318.84765625 355.46875 318.84765625 348.14453125 322.021484375 c 0,44,45
 340.8203125 325.1953125 340.8203125 325.1953125 335.44921875 328.857421875 c 0,46,47
 330.078125 332.51953125 330.078125 332.51953125 325.1953125 335.9375 c 0,48,-1
 325.1953125 448.2421875 l 0,49,50
 318.84765625 448.2421875 318.84765625 448.2421875 315.185546875 448.73046875 c 0,51,52
 311.5234375 449.21875 311.5234375 449.21875 306.15234375 449.21875 c 0,53,54
 283.203125 449.21875 283.203125 449.21875 260.498046875 437.5 c 0,55,56
 237.79296875 425.78125 237.79296875 425.78125 219.7265625 402.587890625 c 0,57,58
 201.66015625 379.39453125 201.66015625 379.39453125 190.4296875 344.482421875 c 0,59,60
 179.19921875 309.5703125 179.19921875 309.5703125 179.19921875 263.18359375 c 0,61,62
 179.19921875 219.23828125 179.19921875 219.23828125 189.697265625 183.837890625 c 0,63,64
 200.1953125 148.4375 200.1953125 148.4375 219.7265625 123.53515625 c 0,65,66
 239.2578125 98.6328125 239.2578125 98.6328125 267.578125 85.205078125 c 0,67,68
 295.8984375 71.77734375 295.8984375 71.77734375 331.0546875 71.77734375 c 0,69,70
 354.00390625 71.77734375 354.00390625 71.77734375 376.953125 78.125 c 0,71,72
 399.90234375 84.47265625 399.90234375 84.47265625 419.189453125 92.7734375 c 0,73,74
 438.4765625 101.07421875 438.4765625 101.07421875 452.392578125 109.130859375 c 0,75,76
 466.30859375 117.1875 466.30859375 117.1875 471.19140625 121.09375 c 0,77,-1
 471.19140625 43.9453125 l 0,0,1
EndSplineSet
EndChar

StartChar: d
Encoding: 71 100 71
Width: 608
VWidth: 488
Flags: W
LayerCount: 2
Fore
SplineSet
386.23046875 0 m 0,0,-1
 386.23046875 58.10546875 l 0,1,2
 380.37109375 55.17578125 380.37109375 55.17578125 365.234375 43.701171875 c 0,3,4
 350.09765625 32.2265625 350.09765625 32.2265625 328.61328125 19.775390625 c 0,5,6
 307.12890625 7.32421875 307.12890625 7.32421875 281.25 -2.44140625 c 0,7,8
 255.37109375 -12.20703125 255.37109375 -12.20703125 228.02734375 -12.20703125 c 0,9,10
 182.12890625 -12.20703125 182.12890625 -12.20703125 145.751953125 6.34765625 c 0,11,12
 109.375 24.90234375 109.375 24.90234375 84.228515625 57.6171875 c 0,13,14
 59.08203125 90.33203125 59.08203125 90.33203125 45.654296875 135.25390625 c 0,15,16
 32.2265625 180.17578125 32.2265625 180.17578125 32.2265625 232.91015625 c 0,17,18
 32.2265625 297.36328125 32.2265625 297.36328125 51.7578125 347.16796875 c 0,19,20
 71.2890625 396.97265625 71.2890625 396.97265625 105.95703125 430.908203125 c 0,21,22
 140.625 464.84375 140.625 464.84375 188.4765625 482.421875 c 0,23,24
 236.328125 500 236.328125 500 292.96875 500 c 0,25,26
 307.12890625 500 307.12890625 500 323.486328125 498.046875 c 0,27,28
 339.84375 496.09375 339.84375 496.09375 354.00390625 493.65234375 c 0,29,30
 370.1171875 491.2109375 370.1171875 491.2109375 386.23046875 487.79296875 c 0,31,-1
 386.23046875 648.92578125 l 0,32,-1
 312.01171875 648.92578125 l 0,33,-1
 312.01171875 689.94140625 l 0,34,-1
 467.7734375 740.234375 l 0,35,-1
 519.04296875 740.234375 l 0,36,-1
 519.04296875 73.2421875 l 0,37,38
 519.04296875 63.96484375 519.04296875 63.96484375 525.390625 57.373046875 c 0,39,40
 531.73828125 50.78125 531.73828125 50.78125 541.015625 49.8046875 c 0,41,-1
 583.0078125 46.875 l 0,42,-1
 583.0078125 0 l 0,43,-1
 386.23046875 0 l 0,0,-1
386.23046875 421.875 m 0,44,45
 374.51171875 426.7578125 374.51171875 426.7578125 361.81640625 430.6640625 c 0,46,47
 351.07421875 434.08203125 351.07421875 434.08203125 338.623046875 437.01171875 c 0,48,49
 326.171875 439.94140625 326.171875 439.94140625 314.94140625 439.94140625 c 0,50,51
 280.2734375 439.94140625 280.2734375 439.94140625 254.39453125 425.78125 c 0,52,53
 228.515625 411.62109375 228.515625 411.62109375 211.669921875 386.71875 c 0,54,55
 194.82421875 361.81640625 194.82421875 361.81640625 186.5234375 328.125 c 0,56,57
 178.22265625 294.43359375 178.22265625 294.43359375 178.22265625 255.859375 c 0,58,59
 178.22265625 216.30859375 178.22265625 216.30859375 186.279296875 184.08203125 c 0,60,61
 194.3359375 151.85546875 194.3359375 151.85546875 210.44921875 128.662109375 c 0,62,63
 226.5625 105.46875 226.5625 105.46875 250.9765625 92.7734375 c 0,64,65
 275.390625 80.078125 275.390625 80.078125 308.10546875 80.078125 c 0,66,67
 321.77734375 80.078125 321.77734375 80.078125 335.693359375 82.763671875 c 0,68,69
 349.609375 85.44921875 349.609375 85.44921875 360.83984375 89.35546875 c 0,70,71
 374.0234375 93.75 374.0234375 93.75 386.23046875 99.12109375 c 0,72,-1
 386.23046875 421.875 l 0,44,45
EndSplineSet
EndChar

StartChar: e
Encoding: 72 101 72
Width: 528
VWidth: 488
Flags: W
LayerCount: 2
Fore
SplineSet
498.046875 46.875 m 0,0,1
 472.16796875 29.78515625 472.16796875 29.78515625 439.94140625 17.08984375 c 0,2,3
 412.109375 5.859375 412.109375 5.859375 373.53515625 -3.173828125 c 0,4,5
 334.9609375 -12.20703125 334.9609375 -12.20703125 287.109375 -12.20703125 c 0,6,7
 223.14453125 -12.20703125 223.14453125 -12.20703125 175.537109375 7.32421875 c 0,8,9
 127.9296875 26.85546875 127.9296875 26.85546875 95.947265625 60.791015625 c 0,10,11
 63.96484375 94.7265625 63.96484375 94.7265625 48.095703125 140.13671875 c 0,12,13
 32.2265625 185.546875 32.2265625 185.546875 32.2265625 237.79296875 c 0,14,15
 32.2265625 294.43359375 32.2265625 294.43359375 50.048828125 342.529296875 c 0,16,17
 67.87109375 390.625 67.87109375 390.625 100.830078125 425.537109375 c 0,18,19
 133.7890625 460.44921875 133.7890625 460.44921875 180.419921875 480.224609375 c 0,20,21
 227.05078125 500 227.05078125 500 284.1796875 500 c 0,22,23
 342.7734375 500 342.7734375 500 383.544921875 480.712890625 c 0,24,25
 424.31640625 461.42578125 424.31640625 461.42578125 449.70703125 429.443359375 c 0,26,27
 475.09765625 397.4609375 475.09765625 397.4609375 486.572265625 356.4453125 c 0,28,29
 498.046875 315.4296875 498.046875 315.4296875 498.046875 271.97265625 c 0,30,-1
 498.046875 248.046875 l 0,31,-1
 169.921875 248.046875 l 0,32,33
 169.921875 207.03125 169.921875 207.03125 180.17578125 174.31640625 c 0,34,35
 190.4296875 141.6015625 190.4296875 141.6015625 210.205078125 118.65234375 c 0,36,37
 229.98046875 95.703125 229.98046875 95.703125 258.7890625 83.251953125 c 0,38,39
 287.59765625 70.80078125 287.59765625 70.80078125 324.21875 70.80078125 c 0,40,41
 362.3046875 70.80078125 362.3046875 70.80078125 393.798828125 79.345703125 c 0,42,43
 425.29296875 87.890625 425.29296875 87.890625 448.73046875 98.6328125 c 0,44,45
 475.5859375 111.328125 475.5859375 111.328125 498.046875 126.953125 c 0,46,-1
 498.046875 46.875 l 0,0,1
354.98046875 326.171875 m 0,47,48
 354.98046875 350.09765625 354.98046875 350.09765625 350.5859375 371.09375 c 0,49,50
 346.19140625 392.08984375 346.19140625 392.08984375 336.181640625 407.470703125 c 0,51,52
 326.171875 422.8515625 326.171875 422.8515625 310.546875 431.884765625 c 0,53,54
 294.921875 440.91796875 294.921875 440.91796875 272.94921875 440.91796875 c 0,55,56
 245.1171875 440.91796875 245.1171875 440.91796875 226.318359375 428.466796875 c 0,57,58
 207.51953125 416.015625 207.51953125 416.015625 196.044921875 396.240234375 c 0,59,60
 184.5703125 376.46484375 184.5703125 376.46484375 179.6875 352.05078125 c 0,61,62
 174.8046875 327.63671875 174.8046875 327.63671875 174.8046875 304.19921875 c 0,63,-1
 354.98046875 304.19921875 l 0,64,-1
 354.98046875 326.171875 l 0,47,48
EndSplineSet
EndChar

StartChar: f
Encoding: 73 102 73
Width: 347
VWidth: 488
Flags: W
LayerCount: 2
Fore
SplineSet
419.921875 660.15625 m 0,0,1
 419.921875 648.4375 419.921875 648.4375 414.794921875 638.18359375 c 0,2,3
 409.66796875 627.9296875 409.66796875 627.9296875 401.123046875 619.384765625 c 0,4,5
 392.578125 610.83984375 392.578125 610.83984375 381.34765625 604.4921875 c 0,6,7
 370.1171875 598.14453125 370.1171875 598.14453125 357.91015625 594.23828125 c 0,8,-1
 258.7890625 687.01171875 l 0,9,10
 251.46484375 675.78125 251.46484375 675.78125 245.361328125 663.330078125 c 0,11,12
 239.2578125 650.87890625 239.2578125 650.87890625 235.3515625 633.544921875 c 0,13,14
 231.4453125 616.2109375 231.4453125 616.2109375 229.248046875 592.28515625 c 0,15,16
 227.05078125 568.359375 227.05078125 568.359375 227.05078125 534.1796875 c 0,17,-1
 227.05078125 476.07421875 l 0,18,-1
 335.9375 476.07421875 l 0,19,-1
 335.9375 412.109375 l 0,20,-1
 228.02734375 412.109375 l 0,21,-1
 228.02734375 73.2421875 l 0,22,23
 228.02734375 63.96484375 228.02734375 63.96484375 234.130859375 56.884765625 c 0,24,25
 240.234375 49.8046875 240.234375 49.8046875 250 49.8046875 c 0,26,-1
 311.03515625 46.875 l 0,27,-1
 311.03515625 0 l 0,28,-1
 20.99609375 0 l 0,29,-1
 20.99609375 46.875 l 0,30,-1
 71.77734375 49.8046875 l 0,31,32
 81.0546875 50.78125 81.0546875 50.78125 87.646484375 57.373046875 c 0,33,34
 94.23828125 63.96484375 94.23828125 63.96484375 94.23828125 73.2421875 c 0,35,-1
 94.23828125 412.109375 l 0,36,-1
 28.80859375 412.109375 l 0,37,-1
 28.80859375 452.1484375 l 0,38,-1
 92.7734375 484.86328125 l 0,39,40
 92.7734375 524.4140625 92.7734375 524.4140625 103.759765625 559.5703125 c 0,41,42
 114.74609375 594.7265625 114.74609375 594.7265625 136.23046875 627.9296875 c 0,43,44
 150.87890625 652.34375 150.87890625 652.34375 170.654296875 672.8515625 c 0,45,46
 190.4296875 693.359375 190.4296875 693.359375 214.35546875 708.49609375 c 0,47,48
 238.28125 723.6328125 238.28125 723.6328125 265.869140625 731.93359375 c 0,49,50
 293.45703125 740.234375 293.45703125 740.234375 324.21875 740.234375 c 0,51,52
 338.8671875 740.234375 338.8671875 740.234375 355.712890625 735.595703125 c 0,53,54
 372.55859375 730.95703125 372.55859375 730.95703125 386.962890625 721.435546875 c 0,55,56
 401.3671875 711.9140625 401.3671875 711.9140625 410.64453125 696.533203125 c 0,57,58
 419.921875 681.15234375 419.921875 681.15234375 419.921875 660.15625 c 0,0,1
EndSplineSet
EndChar

StartChar: g
Encoding: 74 103 74
Width: 555
VWidth: 488
Flags: W
LayerCount: 2
Fore
SplineSet
458.0078125 410.15625 m 0,0,1
 463.37890625 399.4140625 463.37890625 399.4140625 467.7734375 387.20703125 c 0,2,3
 471.6796875 376.46484375 471.6796875 376.46484375 474.853515625 363.037109375 c 0,4,5
 478.02734375 349.609375 478.02734375 349.609375 478.02734375 333.984375 c 0,6,7
 478.02734375 300.29296875 478.02734375 300.29296875 466.796875 274.658203125 c 0,8,9
 455.56640625 249.0234375 455.56640625 249.0234375 436.767578125 230.224609375 c 0,10,11
 417.96875 211.42578125 417.96875 211.42578125 393.5546875 198.73046875 c 0,12,13
 369.140625 186.03515625 369.140625 186.03515625 342.529296875 178.7109375 c 0,14,15
 315.91796875 171.38671875 315.91796875 171.38671875 289.0625 168.9453125 c 0,16,17
 262.20703125 166.50390625 262.20703125 166.50390625 238.76953125 167.96875 c 0,18,19
 229.98046875 162.109375 229.98046875 162.109375 222.900390625 155.76171875 c 0,20,21
 215.8203125 149.4140625 215.8203125 149.4140625 211.9140625 142.333984375 c 0,22,23
 208.0078125 135.25390625 208.0078125 135.25390625 207.763671875 126.953125 c 0,24,25
 207.51953125 118.65234375 207.51953125 118.65234375 211.9140625 107.91015625 c 0,26,27
 293.9453125 101.07421875 293.9453125 101.07421875 351.806640625 88.8671875 c 0,28,29
 409.66796875 76.66015625 409.66796875 76.66015625 446.2890625 58.59375 c 0,30,31
 482.91015625 40.52734375 482.91015625 40.52734375 499.51171875 15.869140625 c 0,32,33
 516.11328125 -8.7890625 516.11328125 -8.7890625 516.11328125 -40.0390625 c 0,34,35
 516.11328125 -68.84765625 516.11328125 -68.84765625 505.126953125 -94.23828125 c 0,36,37
 494.140625 -119.62890625 494.140625 -119.62890625 475.09765625 -140.869140625 c 0,38,39
 456.0546875 -162.109375 456.0546875 -162.109375 430.17578125 -178.955078125 c 0,40,41
 404.296875 -195.80078125 404.296875 -195.80078125 374.267578125 -207.275390625 c 0,42,43
 344.23828125 -218.75 344.23828125 -218.75 311.5234375 -224.853515625 c 0,44,45
 278.80859375 -230.95703125 278.80859375 -230.95703125 246.09375 -230.95703125 c 0,46,47
 206.54296875 -230.95703125 206.54296875 -230.95703125 168.212890625 -221.923828125 c 0,48,49
 129.8828125 -212.890625 129.8828125 -212.890625 99.609375 -193.84765625 c 0,50,51
 69.3359375 -174.8046875 69.3359375 -174.8046875 50.78125 -145.5078125 c 0,52,53
 32.2265625 -116.2109375 32.2265625 -116.2109375 32.2265625 -76.171875 c 0,54,55
 32.2265625 -44.921875 32.2265625 -44.921875 43.9453125 -24.169921875 c 0,56,57
 55.6640625 -3.41796875 55.6640625 -3.41796875 71.77734375 9.033203125 c 0,58,59
 87.890625 21.484375 87.890625 21.484375 104.736328125 25.87890625 c 0,60,61
 121.58203125 30.2734375 121.58203125 30.2734375 131.8359375 28.80859375 c 0,62,63
 125 42.48046875 125 42.48046875 122.0703125 57.373046875 c 0,64,65
 119.140625 72.265625 119.140625 72.265625 119.140625 82.03125 c 0,66,67
 119.140625 94.7265625 119.140625 94.7265625 122.55859375 106.201171875 c 0,68,69
 125.9765625 117.67578125 125.9765625 117.67578125 132.8125 128.662109375 c 0,70,71
 139.6484375 139.6484375 139.6484375 139.6484375 150.146484375 150.87890625 c 0,72,73
 160.64453125 162.109375 160.64453125 162.109375 174.8046875 174.8046875 c 0,74,75
 161.62109375 177.734375 161.62109375 177.734375 140.869140625 187.01171875 c 0,76,77
 120.1171875 196.2890625 120.1171875 196.2890625 100.341796875 214.111328125 c 0,78,79
 80.56640625 231.93359375 80.56640625 231.93359375 66.162109375 259.033203125 c 0,80,81
 51.7578125 286.1328125 51.7578125 286.1328125 51.7578125 325.1953125 c 0,82,83
 51.7578125 370.1171875 51.7578125 370.1171875 69.091796875 403.076171875 c 0,84,85
 86.42578125 436.03515625 86.42578125 436.03515625 116.455078125 457.51953125 c 0,86,87
 146.484375 479.00390625 146.484375 479.00390625 186.767578125 489.501953125 c 0,88,89
 227.05078125 500 227.05078125 500 272.94921875 500 c 0,90,91
 296.38671875 500 296.38671875 500 317.138671875 496.58203125 c 0,92,93
 337.890625 493.1640625 337.890625 493.1640625 355.712890625 488.525390625 c 0,94,95
 373.53515625 483.88671875 373.53515625 483.88671875 388.427734375 478.515625 c 0,96,97
 403.3203125 473.14453125 403.3203125 473.14453125 416.015625 469.23828125 c 0,98,-1
 545.8984375 469.23828125 l 0,99,-1
 545.8984375 410.15625 l 0,100,-1
 458.0078125 410.15625 l 0,0,1
346.19140625 335.9375 m 0,101,102
 346.19140625 356.4453125 346.19140625 356.4453125 341.552734375 377.197265625 c 0,103,104
 336.9140625 397.94921875 336.9140625 397.94921875 327.392578125 414.306640625 c 0,105,106
 317.87109375 430.6640625 317.87109375 430.6640625 303.7109375 440.91796875 c 0,107,108
 289.55078125 451.171875 289.55078125 451.171875 270.99609375 451.171875 c 0,109,110
 248.53515625 451.171875 248.53515625 451.171875 232.91015625 441.162109375 c 0,111,112
 217.28515625 431.15234375 217.28515625 431.15234375 207.763671875 414.55078125 c 0,113,114
 198.2421875 397.94921875 198.2421875 397.94921875 194.091796875 377.197265625 c 0,115,116
 189.94140625 356.4453125 189.94140625 356.4453125 189.94140625 334.9609375 c 0,117,118
 189.94140625 312.98828125 189.94140625 312.98828125 194.580078125 291.259765625 c 0,119,120
 199.21875 269.53125 199.21875 269.53125 208.740234375 252.685546875 c 0,121,122
 218.26171875 235.83984375 218.26171875 235.83984375 233.3984375 225.341796875 c 0,123,124
 248.53515625 214.84375 248.53515625 214.84375 269.04296875 214.84375 c 0,125,126
 289.55078125 214.84375 289.55078125 214.84375 303.955078125 225.341796875 c 0,127,128
 318.359375 235.83984375 318.359375 235.83984375 327.880859375 253.173828125 c 0,129,130
 337.40234375 270.5078125 337.40234375 270.5078125 341.796875 292.236328125 c 0,131,132
 346.19140625 313.96484375 346.19140625 313.96484375 346.19140625 335.9375 c 0,101,102
387.20703125 -68.84765625 m 0,133,134
 387.20703125 -51.26953125 387.20703125 -51.26953125 376.46484375 -38.57421875 c 0,135,136
 365.72265625 -25.87890625 365.72265625 -25.87890625 348.6328125 -16.845703125 c 0,137,138
 331.54296875 -7.8125 331.54296875 -7.8125 310.05859375 -1.953125 c 0,139,140
 288.57421875 3.90625 288.57421875 3.90625 267.08984375 7.568359375 c 0,141,142
 245.60546875 11.23046875 245.60546875 11.23046875 226.5625 12.939453125 c 0,143,144
 207.51953125 14.6484375 207.51953125 14.6484375 194.82421875 16.11328125 c 0,145,146
 189.94140625 8.7890625 189.94140625 8.7890625 184.5703125 0.9765625 c 0,147,148
 179.19921875 -6.8359375 179.19921875 -6.8359375 174.560546875 -16.11328125 c 0,149,150
 169.921875 -25.390625 169.921875 -25.390625 166.9921875 -36.865234375 c 0,151,152
 164.0625 -48.33984375 164.0625 -48.33984375 164.0625 -62.01171875 c 0,153,154
 163.57421875 -85.9375 163.57421875 -85.9375 173.33984375 -106.689453125 c 0,155,156
 183.10546875 -127.44140625 183.10546875 -127.44140625 198.73046875 -142.822265625 c 0,157,158
 214.35546875 -158.203125 214.35546875 -158.203125 234.130859375 -166.9921875 c 0,159,160
 253.90625 -175.78125 253.90625 -175.78125 273.92578125 -175.78125 c 0,161,162
 293.9453125 -175.78125 293.9453125 -175.78125 314.208984375 -168.212890625 c 0,163,164
 334.47265625 -160.64453125 334.47265625 -160.64453125 350.5859375 -146.728515625 c 0,165,166
 366.69921875 -132.8125 366.69921875 -132.8125 376.953125 -113.037109375 c 0,167,168
 387.20703125 -93.26171875 387.20703125 -93.26171875 387.20703125 -68.84765625 c 0,133,134
EndSplineSet
EndChar

StartChar: h
Encoding: 75 104 75
Width: 625
VWidth: 488
Flags: W
LayerCount: 2
Fore
SplineSet
348.14453125 0 m 0,0,-1
 348.14453125 46.875 l 0,1,-1
 379.8828125 49.8046875 l 0,2,3
 389.16015625 50.78125 389.16015625 50.78125 395.5078125 57.373046875 c 0,4,5
 401.85546875 63.96484375 401.85546875 63.96484375 401.85546875 73.2421875 c 0,6,-1
 401.85546875 309.08203125 l 0,7,8
 401.85546875 321.2890625 401.85546875 321.2890625 399.169921875 338.37890625 c 0,9,10
 396.484375 355.46875 396.484375 355.46875 387.6953125 370.849609375 c 0,11,12
 378.90625 386.23046875 378.90625 386.23046875 362.3046875 397.216796875 c 0,13,14
 345.703125 408.203125 345.703125 408.203125 317.87109375 408.203125 c 0,15,16
 302.734375 408.203125 302.734375 408.203125 286.376953125 406.005859375 c 0,17,18
 270.01953125 403.80859375 270.01953125 403.80859375 255.859375 401.3671875 c 0,19,20
 239.74609375 398.4375 239.74609375 398.4375 224.12109375 395.01953125 c 0,21,-1
 224.12109375 73.2421875 l 0,22,23
 224.12109375 63.96484375 224.12109375 63.96484375 230.46875 57.373046875 c 0,24,25
 236.81640625 50.78125 236.81640625 50.78125 246.09375 49.8046875 c 0,26,-1
 280.76171875 46.875 l 0,27,-1
 280.76171875 0 l 0,28,-1
 26.85546875 0 l 0,29,-1
 26.85546875 46.875 l 0,30,-1
 67.87109375 49.8046875 l 0,31,32
 77.1484375 50.78125 77.1484375 50.78125 83.49609375 57.373046875 c 0,33,34
 89.84375 63.96484375 89.84375 63.96484375 89.84375 73.2421875 c 0,35,-1
 89.84375 648.92578125 l 0,36,-1
 19.04296875 648.92578125 l 0,37,-1
 19.04296875 689.94140625 l 0,38,-1
 171.875 740.234375 l 0,39,-1
 224.12109375 740.234375 l 0,40,-1
 224.12109375 437.98828125 l 0,41,42
 251.953125 455.078125 251.953125 455.078125 282.2265625 468.75 c 0,43,44
 294.921875 474.609375 294.921875 474.609375 309.326171875 480.224609375 c 0,45,46
 323.73046875 485.83984375 323.73046875 485.83984375 338.623046875 490.234375 c 0,47,48
 353.515625 494.62890625 353.515625 494.62890625 368.896484375 497.314453125 c 0,49,50
 384.27734375 500 384.27734375 500 398.92578125 500 c 0,51,52
 428.22265625 500 428.22265625 500 449.951171875 492.431640625 c 0,53,54
 471.6796875 484.86328125 471.6796875 484.86328125 487.060546875 472.412109375 c 0,55,56
 502.44140625 459.9609375 502.44140625 459.9609375 511.962890625 443.603515625 c 0,57,58
 521.484375 427.24609375 521.484375 427.24609375 526.85546875 409.66796875 c 0,59,60
 532.2265625 392.08984375 532.2265625 392.08984375 534.1796875 374.755859375 c 0,61,62
 536.1328125 357.421875 536.1328125 357.421875 536.1328125 342.7734375 c 0,63,-1
 536.1328125 73.2421875 l 0,64,65
 536.1328125 63.96484375 536.1328125 63.96484375 542.48046875 57.373046875 c 0,66,67
 548.828125 50.78125 548.828125 50.78125 558.10546875 49.8046875 c 0,68,-1
 600.09765625 46.875 l 0,69,-1
 600.09765625 0 l 0,70,-1
 348.14453125 0 l 0,0,-1
EndSplineSet
EndChar

StartChar: i
Encoding: 76 105 76
Width: 333
VWidth: 488
Flags: W
LayerCount: 2
Fore
SplineSet
247.0703125 663.0859375 m 0,0,1
 247.0703125 646.97265625 247.0703125 646.97265625 240.966796875 632.8125 c 0,2,3
 234.86328125 618.65234375 234.86328125 618.65234375 224.12109375 607.91015625 c 0,4,5
 213.37890625 597.16796875 213.37890625 597.16796875 199.21875 591.064453125 c 0,6,7
 185.05859375 584.9609375 185.05859375 584.9609375 168.9453125 584.9609375 c 0,8,9
 152.83203125 584.9609375 152.83203125 584.9609375 138.671875 591.064453125 c 0,10,11
 124.51171875 597.16796875 124.51171875 597.16796875 114.2578125 607.91015625 c 0,12,13
 104.00390625 618.65234375 104.00390625 618.65234375 97.900390625 632.8125 c 0,14,15
 91.796875 646.97265625 91.796875 646.97265625 91.796875 663.0859375 c 0,16,17
 91.796875 679.19921875 91.796875 679.19921875 97.900390625 693.359375 c 0,18,19
 104.00390625 707.51953125 104.00390625 707.51953125 114.2578125 717.7734375 c 0,20,21
 124.51171875 728.02734375 124.51171875 728.02734375 138.671875 734.130859375 c 0,22,23
 152.83203125 740.234375 152.83203125 740.234375 168.9453125 740.234375 c 0,24,25
 185.05859375 740.234375 185.05859375 740.234375 199.21875 734.130859375 c 0,26,27
 213.37890625 728.02734375 213.37890625 728.02734375 224.12109375 717.7734375 c 0,28,29
 234.86328125 707.51953125 234.86328125 707.51953125 240.966796875 693.359375 c 0,30,31
 247.0703125 679.19921875 247.0703125 679.19921875 247.0703125 663.0859375 c 0,0,1
32.2265625 0 m 0,32,-1
 32.2265625 46.875 l 0,33,-1
 78.125 49.8046875 l 0,34,35
 86.9140625 50.78125 86.9140625 50.78125 93.505859375 57.373046875 c 0,36,37
 100.09765625 63.96484375 100.09765625 63.96484375 100.09765625 73.2421875 c 0,38,-1
 100.09765625 409.1796875 l 0,39,-1
 36.1328125 409.1796875 l 0,40,-1
 36.1328125 450.1953125 l 0,41,-1
 182.12890625 500 l 0,42,-1
 232.91015625 500 l 0,43,-1
 232.91015625 73.2421875 l 0,44,45
 232.91015625 63.96484375 232.91015625 63.96484375 239.990234375 57.373046875 c 0,46,47
 247.0703125 50.78125 247.0703125 50.78125 255.859375 49.8046875 c 0,48,-1
 304.19921875 46.875 l 0,49,-1
 304.19921875 0 l 0,50,-1
 32.2265625 0 l 0,32,-1
EndSplineSet
EndChar

StartChar: j
Encoding: 77 106 77
Width: 324
VWidth: 488
Flags: W
LayerCount: 2
Fore
SplineSet
243.1640625 663.0859375 m 0,0,1
 243.1640625 646.97265625 243.1640625 646.97265625 237.060546875 632.8125 c 0,2,3
 230.95703125 618.65234375 230.95703125 618.65234375 220.703125 607.91015625 c 0,4,5
 210.44921875 597.16796875 210.44921875 597.16796875 196.2890625 591.064453125 c 0,6,7
 182.12890625 584.9609375 182.12890625 584.9609375 166.015625 584.9609375 c 0,8,9
 149.90234375 584.9609375 149.90234375 584.9609375 135.7421875 591.064453125 c 0,10,11
 121.58203125 597.16796875 121.58203125 597.16796875 110.83984375 607.91015625 c 0,12,13
 100.09765625 618.65234375 100.09765625 618.65234375 93.994140625 632.8125 c 0,14,15
 87.890625 646.97265625 87.890625 646.97265625 87.890625 663.0859375 c 0,16,17
 87.890625 679.19921875 87.890625 679.19921875 93.994140625 693.359375 c 0,18,19
 100.09765625 707.51953125 100.09765625 707.51953125 110.83984375 717.7734375 c 0,20,21
 121.58203125 728.02734375 121.58203125 728.02734375 135.7421875 734.130859375 c 0,22,23
 149.90234375 740.234375 149.90234375 740.234375 166.015625 740.234375 c 0,24,25
 182.12890625 740.234375 182.12890625 740.234375 196.2890625 734.130859375 c 0,26,27
 210.44921875 728.02734375 210.44921875 728.02734375 220.703125 717.7734375 c 0,28,29
 230.95703125 707.51953125 230.95703125 707.51953125 237.060546875 693.359375 c 0,30,31
 243.1640625 679.19921875 243.1640625 679.19921875 243.1640625 663.0859375 c 0,0,1
232.91015625 46.875 m 0,32,33
 232.91015625 -7.8125 232.91015625 -7.8125 219.7265625 -59.08203125 c 0,34,35
 206.54296875 -110.3515625 206.54296875 -110.3515625 178.22265625 -149.90234375 c 0,36,37
 150.87890625 -187.01171875 150.87890625 -187.01171875 109.375 -208.984375 c 0,38,39
 67.87109375 -230.95703125 67.87109375 -230.95703125 9.765625 -230.95703125 c 0,40,41
 -10.25390625 -230.95703125 -10.25390625 -230.95703125 -28.3203125 -226.07421875 c 0,42,43
 -46.38671875 -221.19140625 -46.38671875 -221.19140625 -60.05859375 -211.42578125 c 0,44,45
 -73.73046875 -201.66015625 -73.73046875 -201.66015625 -81.787109375 -187.5 c 0,46,47
 -89.84375 -173.33984375 -89.84375 -173.33984375 -89.84375 -154.78515625 c 0,48,49
 -89.84375 -141.6015625 -89.84375 -141.6015625 -84.716796875 -129.8828125 c 0,50,51
 -79.58984375 -118.1640625 -79.58984375 -118.1640625 -70.80078125 -109.130859375 c 0,52,53
 -62.01171875 -100.09765625 -62.01171875 -100.09765625 -50.29296875 -94.482421875 c 0,54,55
 -38.57421875 -88.8671875 -38.57421875 -88.8671875 -25.87890625 -87.890625 c 0,56,-1
 71.77734375 -187.01171875 l 0,57,58
 77.63671875 -177.734375 77.63671875 -177.734375 82.03125 -164.794921875 c 0,59,60
 86.42578125 -151.85546875 86.42578125 -151.85546875 89.35546875 -137.20703125 c 0,61,62
 92.28515625 -122.55859375 92.28515625 -122.55859375 94.23828125 -107.177734375 c 0,63,64
 96.19140625 -91.796875 96.19140625 -91.796875 97.65625 -77.1484375 c 0,65,66
 100.09765625 -42.96875 100.09765625 -42.96875 100.09765625 -4.8828125 c 0,67,-1
 100.09765625 409.1796875 l 0,68,-1
 28.80859375 409.1796875 l 0,69,-1
 28.80859375 450.1953125 l 0,70,-1
 182.12890625 500 l 0,71,-1
 232.91015625 500 l 0,72,-1
 232.91015625 46.875 l 0,32,33
EndSplineSet
EndChar

StartChar: k
Encoding: 78 107 78
Width: 591
VWidth: 488
Flags: W
LayerCount: 2
Fore
SplineSet
380.859375 0 m 0,0,-1
 380.859375 41.015625 l 0,1,-1
 270.99609375 226.07421875 l 0,2,-1
 224.12109375 226.07421875 l 0,3,-1
 224.12109375 73.2421875 l 0,4,5
 224.12109375 63.96484375 224.12109375 63.96484375 230.224609375 57.373046875 c 0,6,7
 236.328125 50.78125 236.328125 50.78125 246.09375 49.8046875 c 0,8,-1
 286.1328125 46.875 l 0,9,-1
 286.1328125 0 l 0,10,-1
 25.87890625 0 l 0,11,-1
 25.87890625 46.875 l 0,12,-1
 67.87109375 49.8046875 l 0,13,14
 77.1484375 50.78125 77.1484375 50.78125 83.49609375 57.373046875 c 0,15,16
 89.84375 63.96484375 89.84375 63.96484375 89.84375 73.2421875 c 0,17,-1
 89.84375 648.92578125 l 0,18,-1
 20.01953125 648.92578125 l 0,19,-1
 20.01953125 689.94140625 l 0,20,-1
 172.8515625 740.234375 l 0,21,-1
 224.12109375 740.234375 l 0,22,-1
 224.12109375 259.765625 l 0,23,-1
 246.09375 259.765625 l 0,24,-1
 379.8828125 419.921875 l 0,25,26
 384.765625 425.29296875 384.765625 425.29296875 382.568359375 430.6640625 c 0,27,28
 380.37109375 436.03515625 380.37109375 436.03515625 373.046875 437.01171875 c 0,29,-1
 334.9609375 440.91796875 l 0,30,-1
 334.9609375 487.79296875 l 0,31,-1
 542.96875 487.79296875 l 0,32,-1
 542.96875 440.91796875 l 0,33,-1
 477.05078125 433.10546875 l 0,34,-1
 370.1171875 311.03515625 l 0,35,-1
 523.92578125 51.7578125 l 0,36,-1
 583.0078125 46.875 l 0,37,-1
 583.0078125 0 l 0,38,-1
 380.859375 0 l 0,0,-1
EndSplineSet
EndChar

StartChar: l
Encoding: 79 108 79
Width: 333
VWidth: 488
Flags: W
LayerCount: 2
Fore
SplineSet
28.80859375 0 m 0,0,-1
 28.80859375 46.875 l 0,1,-1
 78.125 49.8046875 l 0,2,3
 87.890625 50.78125 87.890625 50.78125 93.994140625 57.12890625 c 0,4,5
 100.09765625 63.4765625 100.09765625 63.4765625 100.09765625 73.2421875 c 0,6,-1
 100.09765625 648.92578125 l 0,7,-1
 28.80859375 648.92578125 l 0,8,-1
 28.80859375 689.94140625 l 0,9,-1
 182.12890625 740.234375 l 0,10,-1
 232.91015625 740.234375 l 0,11,-1
 232.91015625 73.2421875 l 0,12,13
 232.91015625 63.4765625 232.91015625 63.4765625 239.013671875 57.12890625 c 0,14,15
 245.1171875 50.78125 245.1171875 50.78125 254.8828125 49.8046875 c 0,16,-1
 305.17578125 46.875 l 0,17,-1
 305.17578125 0 l 0,18,-1
 28.80859375 0 l 0,0,-1
EndSplineSet
EndChar

StartChar: m
Encoding: 80 109 80
Width: 905
VWidth: 488
Flags: W
LayerCount: 2
Fore
SplineSet
632.8125 0 m 0,0,-1
 632.8125 46.875 l 0,1,-1
 664.0625 49.8046875 l 0,2,3
 672.8515625 50.78125 672.8515625 50.78125 679.931640625 57.373046875 c 0,4,5
 687.01171875 63.96484375 687.01171875 63.96484375 687.01171875 73.2421875 c 0,6,-1
 687.01171875 313.96484375 l 0,7,8
 687.01171875 332.03125 687.01171875 332.03125 682.6171875 349.12109375 c 0,9,10
 678.22265625 366.2109375 678.22265625 366.2109375 668.212890625 379.39453125 c 0,11,12
 658.203125 392.578125 658.203125 392.578125 641.6015625 400.390625 c 0,13,14
 625 408.203125 625 408.203125 600.09765625 408.203125 c 0,15,16
 583.984375 408.203125 583.984375 408.203125 569.580078125 405.517578125 c 0,17,18
 555.17578125 402.83203125 555.17578125 402.83203125 543.9453125 399.90234375 c 0,19,20
 531.25 396.484375 531.25 396.484375 520.01953125 392.08984375 c 0,21,-1
 520.01953125 73.2421875 l 0,22,23
 520.01953125 63.96484375 520.01953125 63.96484375 526.3671875 57.373046875 c 0,24,25
 532.71484375 50.78125 532.71484375 50.78125 541.9921875 49.8046875 c 0,26,-1
 573.2421875 46.875 l 0,27,-1
 573.2421875 0 l 0,28,-1
 333.0078125 0 l 0,29,-1
 333.0078125 46.875 l 0,30,-1
 363.76953125 49.8046875 l 0,31,32
 373.046875 50.78125 373.046875 50.78125 379.638671875 57.373046875 c 0,33,34
 386.23046875 63.96484375 386.23046875 63.96484375 386.23046875 73.2421875 c 0,35,-1
 386.23046875 313.96484375 l 0,36,37
 386.23046875 332.03125 386.23046875 332.03125 381.34765625 349.12109375 c 0,38,39
 376.46484375 366.2109375 376.46484375 366.2109375 366.2109375 379.39453125 c 0,40,41
 355.95703125 392.578125 355.95703125 392.578125 339.599609375 400.390625 c 0,42,43
 323.2421875 408.203125 323.2421875 408.203125 299.8046875 408.203125 c 0,44,45
 279.296875 408.203125 279.296875 408.203125 263.916015625 405.517578125 c 0,46,47
 248.53515625 402.83203125 248.53515625 402.83203125 238.76953125 399.90234375 c 0,48,49
 227.05078125 396.484375 227.05078125 396.484375 219.23828125 392.08984375 c 0,50,-1
 219.23828125 73.2421875 l 0,51,52
 219.23828125 63.96484375 219.23828125 63.96484375 226.07421875 57.373046875 c 0,53,54
 232.91015625 50.78125 232.91015625 50.78125 242.1875 49.8046875 c 0,55,-1
 272.94921875 46.875 l 0,56,-1
 272.94921875 0 l 0,57,-1
 26.85546875 0 l 0,58,-1
 26.85546875 46.875 l 0,59,-1
 63.96484375 49.8046875 l 0,60,61
 73.2421875 50.78125 73.2421875 50.78125 79.58984375 57.373046875 c 0,62,63
 85.9375 63.96484375 85.9375 63.96484375 85.9375 73.2421875 c 0,64,-1
 85.9375 408.203125 l 0,65,-1
 21.97265625 408.203125 l 0,66,-1
 21.97265625 449.21875 l 0,67,-1
 168.9453125 500 l 0,68,-1
 219.23828125 500 l 0,69,-1
 219.23828125 438.96484375 l 0,70,71
 244.62890625 456.0546875 244.62890625 456.0546875 271.97265625 469.23828125 c 0,72,73
 295.41015625 480.46875 295.41015625 480.46875 324.462890625 490.234375 c 0,74,75
 353.515625 500 353.515625 500 382.8125 500 c 0,76,77
 411.1328125 500 411.1328125 500 431.15234375 492.431640625 c 0,78,79
 451.171875 484.86328125 451.171875 484.86328125 465.087890625 474.365234375 c 0,80,81
 479.00390625 463.8671875 479.00390625 463.8671875 488.037109375 452.1484375 c 0,82,83
 497.0703125 440.4296875 497.0703125 440.4296875 503.90625 432.12890625 c 0,84,85
 533.203125 450.68359375 533.203125 450.68359375 563.4765625 465.8203125 c 0,86,87
 576.66015625 472.16796875 576.66015625 472.16796875 591.30859375 478.271484375 c 0,88,89
 605.95703125 484.375 605.95703125 484.375 621.337890625 489.2578125 c 0,90,91
 636.71875 494.140625 636.71875 494.140625 652.099609375 497.0703125 c 0,92,93
 667.48046875 500 667.48046875 500 682.12890625 500 c 0,94,95
 712.40234375 500 712.40234375 500 734.375 491.943359375 c 0,96,97
 756.34765625 483.88671875 756.34765625 483.88671875 771.728515625 470.703125 c 0,98,99
 787.109375 457.51953125 787.109375 457.51953125 796.38671875 441.162109375 c 0,100,101
 805.6640625 424.8046875 805.6640625 424.8046875 811.03515625 407.71484375 c 0,102,103
 816.40625 390.625 816.40625 390.625 818.115234375 374.755859375 c 0,104,105
 819.82421875 358.88671875 819.82421875 358.88671875 819.82421875 347.16796875 c 0,106,-1
 819.82421875 73.2421875 l 0,107,108
 819.82421875 63.96484375 819.82421875 63.96484375 826.416015625 57.373046875 c 0,109,110
 833.0078125 50.78125 833.0078125 50.78125 841.796875 49.8046875 c 0,111,-1
 877.9296875 46.875 l 0,112,-1
 877.9296875 0 l 0,113,-1
 632.8125 0 l 0,0,-1
EndSplineSet
EndChar

StartChar: n
Encoding: 81 110 81
Width: 625
VWidth: 488
Flags: W
LayerCount: 2
Fore
SplineSet
342.7734375 0 m 0,0,-1
 342.7734375 46.875 l 0,1,-1
 379.8828125 49.8046875 l 0,2,3
 389.16015625 50.78125 389.16015625 50.78125 395.5078125 57.373046875 c 0,4,5
 401.85546875 63.96484375 401.85546875 63.96484375 401.85546875 73.2421875 c 0,6,-1
 401.85546875 308.10546875 l 0,7,8
 401.85546875 327.1484375 401.85546875 327.1484375 397.4609375 345.21484375 c 0,9,10
 393.06640625 363.28125 393.06640625 363.28125 383.30078125 377.197265625 c 0,11,12
 373.53515625 391.11328125 373.53515625 391.11328125 357.91015625 399.658203125 c 0,13,14
 342.28515625 408.203125 342.28515625 408.203125 319.82421875 408.203125 c 0,15,16
 299.31640625 408.203125 299.31640625 408.203125 281.73828125 406.005859375 c 0,17,18
 264.16015625 403.80859375 264.16015625 403.80859375 251.46484375 401.3671875 c 0,19,20
 236.328125 398.4375 236.328125 398.4375 224.12109375 395.01953125 c 0,21,-1
 224.12109375 73.2421875 l 0,22,23
 224.12109375 63.96484375 224.12109375 63.96484375 230.95703125 57.373046875 c 0,24,25
 237.79296875 50.78125 237.79296875 50.78125 247.0703125 49.8046875 c 0,26,-1
 276.85546875 46.875 l 0,27,-1
 276.85546875 0 l 0,28,-1
 32.2265625 0 l 0,29,-1
 32.2265625 46.875 l 0,30,-1
 67.87109375 49.8046875 l 0,31,32
 77.1484375 50.78125 77.1484375 50.78125 83.49609375 57.373046875 c 0,33,34
 89.84375 63.96484375 89.84375 63.96484375 89.84375 73.2421875 c 0,35,-1
 89.84375 408.203125 l 0,36,-1
 20.99609375 408.203125 l 0,37,-1
 20.99609375 449.21875 l 0,38,-1
 171.875 500 l 0,39,-1
 224.12109375 500 l 0,40,-1
 224.12109375 438.96484375 l 0,41,42
 250 456.0546875 250 456.0546875 279.296875 469.23828125 c 0,43,44
 304.19921875 480.46875 304.19921875 480.46875 335.44921875 490.234375 c 0,45,46
 366.69921875 500 366.69921875 500 398.92578125 500 c 0,47,48
 441.89453125 500 441.89453125 500 468.75 485.107421875 c 0,49,50
 495.60546875 470.21484375 495.60546875 470.21484375 510.25390625 445.80078125 c 0,51,52
 524.90234375 421.38671875 524.90234375 421.38671875 530.029296875 390.13671875 c 0,53,54
 535.15625 358.88671875 535.15625 358.88671875 535.15625 326.171875 c 0,55,-1
 535.15625 73.2421875 l 0,56,57
 535.15625 63.96484375 535.15625 63.96484375 541.9921875 57.373046875 c 0,58,59
 548.828125 50.78125 548.828125 50.78125 558.10546875 49.8046875 c 0,60,-1
 588.8671875 46.875 l 0,61,-1
 588.8671875 0 l 0,62,-1
 342.7734375 0 l 0,0,-1
EndSplineSet
EndChar

StartChar: o
Encoding: 82 111 82
Width: 583
VWidth: 488
Flags: W
LayerCount: 2
Fore
SplineSet
553.22265625 241.2109375 m 0,0,1
 553.22265625 185.05859375 553.22265625 185.05859375 535.400390625 138.427734375 c 0,2,3
 517.578125 91.796875 517.578125 91.796875 483.3984375 58.349609375 c 0,4,5
 449.21875 24.90234375 449.21875 24.90234375 400.146484375 6.34765625 c 0,6,7
 351.07421875 -12.20703125 351.07421875 -12.20703125 289.0625 -12.20703125 c 0,8,9
 231.93359375 -12.20703125 231.93359375 -12.20703125 184.814453125 5.37109375 c 0,10,11
 137.6953125 22.94921875 137.6953125 22.94921875 103.759765625 55.6640625 c 0,12,13
 69.82421875 88.37890625 69.82421875 88.37890625 51.025390625 135.498046875 c 0,14,15
 32.2265625 182.6171875 32.2265625 182.6171875 32.2265625 242.1875 c 0,16,17
 32.2265625 303.7109375 32.2265625 303.7109375 51.7578125 351.5625 c 0,18,19
 71.2890625 399.4140625 71.2890625 399.4140625 106.201171875 432.373046875 c 0,20,21
 141.11328125 465.33203125 141.11328125 465.33203125 189.453125 482.666015625 c 0,22,23
 237.79296875 500 237.79296875 500 295.8984375 500 c 0,24,25
 357.91015625 500 357.91015625 500 405.76171875 480.95703125 c 0,26,27
 453.61328125 461.9140625 453.61328125 461.9140625 486.328125 427.490234375 c 0,28,29
 519.04296875 393.06640625 519.04296875 393.06640625 536.1328125 345.703125 c 0,30,31
 553.22265625 298.33984375 553.22265625 298.33984375 553.22265625 241.2109375 c 0,0,1
403.80859375 242.1875 m 0,32,33
 403.80859375 263.18359375 403.80859375 263.18359375 401.85546875 286.376953125 c 0,34,35
 399.90234375 309.5703125 399.90234375 309.5703125 395.263671875 332.03125 c 0,36,37
 390.625 354.4921875 390.625 354.4921875 382.32421875 374.51171875 c 0,38,39
 374.0234375 394.53125 374.0234375 394.53125 361.572265625 409.66796875 c 0,40,41
 349.12109375 424.8046875 349.12109375 424.8046875 332.03125 433.837890625 c 0,42,43
 314.94140625 442.87109375 314.94140625 442.87109375 291.9921875 442.87109375 c 0,44,45
 258.30078125 442.87109375 258.30078125 442.87109375 236.81640625 424.31640625 c 0,46,47
 215.33203125 405.76171875 215.33203125 405.76171875 203.369140625 376.708984375 c 0,48,49
 191.40625 347.65625 191.40625 347.65625 186.767578125 312.98828125 c 0,50,51
 182.12890625 278.3203125 182.12890625 278.3203125 182.12890625 246.09375 c 0,52,53
 182.12890625 224.609375 182.12890625 224.609375 183.837890625 201.171875 c 0,54,55
 185.546875 177.734375 185.546875 177.734375 190.185546875 155.2734375 c 0,56,57
 194.82421875 132.8125 194.82421875 132.8125 202.63671875 112.79296875 c 0,58,59
 210.44921875 92.7734375 210.44921875 92.7734375 222.900390625 77.392578125 c 0,60,61
 235.3515625 62.01171875 235.3515625 62.01171875 252.44140625 52.978515625 c 0,62,63
 269.53125 43.9453125 269.53125 43.9453125 292.96875 43.9453125 c 0,64,65
 327.1484375 43.9453125 327.1484375 43.9453125 348.6328125 62.255859375 c 0,66,67
 370.1171875 80.56640625 370.1171875 80.56640625 382.32421875 109.375 c 0,68,69
 394.53125 138.18359375 394.53125 138.18359375 399.169921875 173.33984375 c 0,70,71
 403.80859375 208.49609375 403.80859375 208.49609375 403.80859375 242.1875 c 0,32,33
EndSplineSet
EndChar

StartChar: p
Encoding: 83 112 83
Width: 604
VWidth: 488
Flags: W
LayerCount: 2
Fore
SplineSet
571.77734375 257.8125 m 0,0,1
 571.77734375 197.265625 571.77734375 197.265625 552.734375 147.4609375 c 0,2,3
 533.69140625 97.65625 533.69140625 97.65625 498.53515625 62.255859375 c 0,4,5
 463.37890625 26.85546875 463.37890625 26.85546875 413.57421875 7.32421875 c 0,6,7
 363.76953125 -12.20703125 363.76953125 -12.20703125 301.7578125 -12.20703125 c 0,8,9
 286.62109375 -12.20703125 286.62109375 -12.20703125 272.94921875 -10.7421875 c 0,10,11
 259.27734375 -9.27734375 259.27734375 -9.27734375 248.046875 -7.32421875 c 0,12,13
 235.3515625 -5.37109375 235.3515625 -5.37109375 224.12109375 -1.953125 c 0,14,-1
 224.12109375 -145.99609375 l 0,15,16
 224.12109375 -155.76171875 224.12109375 -155.76171875 230.224609375 -162.353515625 c 0,17,18
 236.328125 -168.9453125 236.328125 -168.9453125 246.09375 -168.9453125 c 0,19,-1
 298.828125 -171.875 l 0,20,-1
 298.828125 -219.23828125 l 0,21,-1
 23.92578125 -219.23828125 l 0,22,-1
 23.92578125 -171.875 l 0,23,-1
 67.87109375 -168.9453125 l 0,24,25
 77.1484375 -168.9453125 77.1484375 -168.9453125 83.49609375 -162.353515625 c 0,26,27
 89.84375 -155.76171875 89.84375 -155.76171875 89.84375 -145.99609375 c 0,28,-1
 89.84375 408.203125 l 0,29,-1
 23.92578125 408.203125 l 0,30,-1
 23.92578125 449.21875 l 0,31,-1
 171.875 500 l 0,32,-1
 224.12109375 500 l 0,33,-1
 224.12109375 437.01171875 l 0,34,35
 247.55859375 454.58984375 247.55859375 454.58984375 274.4140625 468.26171875 c 0,36,37
 297.36328125 479.98046875 297.36328125 479.98046875 325.68359375 489.990234375 c 0,38,39
 354.00390625 500 354.00390625 500 384.765625 500 c 0,40,41
 415.0390625 500 415.0390625 500 440.91796875 490.234375 c 0,42,43
 466.796875 480.46875 466.796875 480.46875 487.548828125 463.623046875 c 0,44,45
 508.30078125 446.77734375 508.30078125 446.77734375 524.169921875 423.583984375 c 0,46,47
 540.0390625 400.390625 540.0390625 400.390625 550.537109375 373.53515625 c 0,48,49
 561.03515625 346.6796875 561.03515625 346.6796875 566.40625 317.138671875 c 0,50,51
 571.77734375 287.59765625 571.77734375 287.59765625 571.77734375 257.8125 c 0,0,1
423.828125 243.1640625 m 0,52,53
 423.828125 275.87890625 423.828125 275.87890625 416.259765625 306.15234375 c 0,54,55
 408.69140625 336.42578125 408.69140625 336.42578125 393.310546875 359.130859375 c 0,56,57
 377.9296875 381.8359375 377.9296875 381.8359375 354.248046875 395.5078125 c 0,58,59
 330.56640625 409.1796875 330.56640625 409.1796875 297.8515625 409.1796875 c 0,60,61
 284.66796875 409.1796875 284.66796875 409.1796875 271.728515625 406.73828125 c 0,62,63
 258.7890625 404.296875 258.7890625 404.296875 248.046875 401.3671875 c 0,64,65
 235.3515625 397.94921875 235.3515625 397.94921875 224.12109375 394.04296875 c 0,66,-1
 224.12109375 54.19921875 l 0,67,68
 233.88671875 50.29296875 233.88671875 50.29296875 243.65234375 47.8515625 c 0,69,70
 251.953125 45.41015625 251.953125 45.41015625 261.23046875 43.701171875 c 0,71,72
 270.5078125 41.9921875 270.5078125 41.9921875 278.80859375 41.9921875 c 0,73,74
 314.94140625 41.9921875 314.94140625 41.9921875 342.041015625 57.6171875 c 0,75,76
 369.140625 73.2421875 369.140625 73.2421875 387.451171875 100.341796875 c 0,77,78
 405.76171875 127.44140625 405.76171875 127.44140625 414.794921875 164.306640625 c 0,79,80
 423.828125 201.171875 423.828125 201.171875 423.828125 243.1640625 c 0,52,53
EndSplineSet
EndChar

